<svg xmlns="http://www.w3.org/2000/svg" xmlns:xlink="http://www.w3.org/1999/xlink" width="500" height="274.95" viewBox="0 0 792.833 435.997"><defs><clipPath id="a"><rect width="231.749" height="190.481" fill="none"/></clipPath><clipPath id="b"><rect width="231.746" height="190.479" fill="none"/></clipPath><clipPath id="c"><rect width="522.423" height="435.997" fill="none"/></clipPath><clipPath id="e"><rect width="33.193" height="32.938" fill="none"/></clipPath><clipPath id="g"><rect width="54.671" height="140.787" fill="none"/></clipPath><clipPath id="h"><rect width="54.669" height="140.785" fill="none"/></clipPath><clipPath id="i"><rect width="97.891" height="110.174" fill="none"/></clipPath><clipPath id="j"><rect width="97.891" height="110.171" fill="none"/></clipPath><clipPath id="k"><rect width="95.156" height="106.399" fill="none"/></clipPath><clipPath id="l"><rect width="95.15" height="106.394" fill="none"/></clipPath><clipPath id="m"><rect width="53.736" height="139.943" fill="none"/></clipPath><clipPath id="n"><rect width="53.736" height="139.945" fill="none"/></clipPath><clipPath id="o"><rect width="63.917" height="71.845" fill="none"/></clipPath><clipPath id="p"><rect width="63.915" height="71.845" fill="none"/></clipPath><clipPath id="q"><rect width="59.935" height="72.636" fill="none"/></clipPath><clipPath id="r"><rect width="59.935" height="72.633" fill="none"/></clipPath><clipPath id="s"><rect width="46.206" height="85.168" fill="none"/></clipPath><clipPath id="t"><rect width="46.208" height="85.168" fill="none"/></clipPath><clipPath id="u"><rect width="67.506" height="73.013" fill="none"/></clipPath><clipPath id="v"><rect width="67.503" height="73.013" fill="none"/></clipPath><clipPath id="w"><rect width="25.631" height="15.205" fill="none"/></clipPath><clipPath id="x"><rect width="25.628" height="15.205" fill="none"/></clipPath><clipPath id="y"><rect width="55.602" height="144.294" fill="none"/></clipPath><clipPath id="z"><rect width="55.596" height="144.291" fill="none"/></clipPath><clipPath id="aa"><rect width="104.243" height="143.012" fill="none"/></clipPath><clipPath id="ab"><rect width="104.24" height="143.005" fill="none"/></clipPath><clipPath id="ac"><rect width="55.409" height="144.29" fill="none"/></clipPath><clipPath id="ad"><rect width="55.407" height="144.287" fill="none"/></clipPath><clipPath id="ae"><rect width="150.304" height="151.437" fill="none"/></clipPath><clipPath id="af"><rect width="150.306" height="151.437" fill="none"/></clipPath><clipPath id="ag"><rect width="103.029" height="111.441" fill="none"/></clipPath><clipPath id="ah"><rect width="103.032" height="111.435" fill="none"/></clipPath><clipPath id="ai"><rect width="104.292" height="113.825" fill="none"/></clipPath><clipPath id="aj"><rect width="104.29" height="113.825" fill="none"/></clipPath></defs><g transform="translate(-657.862 -112.517)"><g transform="translate(657.862 112.517)"><g transform="translate(0 18.352)" opacity="0.5"><g clip-path="url(#a)"><g transform="translate(0 0.002)"><g clip-path="url(#b)"><path d="M833.309,131.388c-2.027,0-6.161-1.964-12.438-1.964a251.153,251.153,0,0,0-45.448,4.307c-11.878,2.374-21.683,5.734-30.877,12.984-1.592,1.254-2,1.967-3.542,3.005-.517-6.232-7.375-12.441-16.367-12.441-4.625,0-25.066,2.078-29.359,4.031a24.416,24.416,0,0,0-6.82,4.961c-4.023,4.52-4.526,9.311-5.888,16.367-6.09,31.546-1.14,21.328-1.14,27.668,0,2.661-.287-.589-2.061,5.14-.54,1.748-1.1,4.023-1.592,6.266l-8.728,38.4c-.884,4.253-1.814,8.034-2.812,12.25-.961,4.051-1.754,8.412-2.874,12.833-2.132,8.387-5.5,20.774-5.5,29.2,0,8.293,8.8,15.056,15.71,15.056l29.556-3.829c7.946-2.553,14.081-9.024,14.306-19.082,16.353,18.809,47.532,15.156,72.271,9.422,4.52-1.049,14.141-2.962,17.88-5.032,8.256-4.569,1.91-3.6,9.254-1.015,6.88,2.414,22.184-.483,29.956-1.675,18.761-2.877,17.945-18.363,21.149-34.5,1.569-7.918,2.994-16.032,4.469-23.676,1.06-5.467,17.194-87.7,17.194-94.1,0-24.086-25.649-15.995-40-14.468-12.293,1.3-14.673,9.885-16.3,9.885" transform="translate(-657.859 -118.975)" fill="#050506" fill-rule="evenodd"/></g></g></g></g><g transform="translate(239.604)" opacity="0.5"><g clip-path="url(#c)"><g clip-path="url(#c)"><path d="M835.1,164.236c-1.82-7.83-6.3-16.839-9.066-24.324-1.908-5.166-2.488-6.644-6.135-10.229a20.309,20.309,0,0,0-14.255-5.382c-5.53,0-19.679,1.623-23.764,3.076-16.037,5.7-15.793,20.16-18.727,34.954l-12.776,67.745c-1.916,10.744-8.236,37.1-8.236,47.412,0,9.931,10.553,15.139,19.173,13.953,27.074-3.739,36.967.955,41.621-27.133,1.182-7.113,5.177-22.823,5.331-29.371,9.874,5.225,17.5,2.562,28.046,1.208,2.172-.279,3.67-1.015,5.993-1.208-.279,12.557-13.393,38.082,6.186,44.22,5.53,1.731,15.469-.344,21.843-1.134,11.125-1.382,20.555-1.828,24.751-12.574a40.938,40.938,0,0,0,2.22-10.218c3.727,4.287,6.7,8.128,11.733,11.176,12.918,7.832,31.5,5.919,44.851.23,9.694-4.131.833.751,20.719-1.532,3.338-.381,12.85-2.308,15.659-1.365-1.942.284-4.262,3.005-5.359,4.461-4.8,6.388,1.182,4.034-7.7,8.009-7.852,3.511-18.044-3.451-42.349,4.788a49.75,49.75,0,0,0-10.164,4.893c-2.59,1.8-6.92,4.216-7.744,7.309-6.533-1.746-7.008-9.2-29.468-7.858a52.368,52.368,0,0,0-45.462,32.45c-5.859,14.67-11.161,38.019-1.308,52.288,14.678,21.263,43.281,15.113,64.055,7.83,8.771-3.079,4.242-1.643,12.773-.85,16.9,1.569,34.852-.577,48.137-9.6,3.357-2.28,6.982-6.871,8.879-8.139,6.678,4.469,7.992,9.82,20.95,9.82v.654c-8.441,0-21.746,1.154-28.472,6.22-1.908,1.436-1.655.543-2.3,2.945-11.258,0-21.592,1.817-31.543,3.147-10.752,1.441-15.071,7.528-18.289,16.407-3.008,8.3-6.493,16.521-9.834,24.87-1.572,3.946-3.141,7.869-4.858,12.157-1.291,3.2-2.832,10.186-5.518,12.156,0-12.813-.716-23.622-.651-36.012.026-6.024-.531-11.707-3.158-15.173-7.463-9.84-17.055-6.954-27.625-5.771-4.438.5-10.073,1.015-13.945,1.768-7.611,1.475-14.86,7.508-14.86,15.909,0,13.638,2.038,32.674,1.956,41.908-.045,4.481.719,5.97.677,10.454-.042,4.625.631,6.533.665,10.459.074,7.233.7,14.374,1.248,21.007,1.7,20.64-2.2,40.251,15.21,51.563,4.842,3.147,13.018,4.705,20.18,4.705,22.519,0,39.088-9.461,48.069-23.3,4.8-7.386,7.54-15.659,11.136-24.216,1.837-4.37,3.488-8.012,5.245-12.429,1.652-4.156,3.053-9.049,5.609-12.722-.071,3.218-1.322,8.233-1.916,11.179-1.677,8.324-5.939,26.778-5.939,34.645a13.77,13.77,0,0,0,4.387,10.664c8.407,8.714,23.617,3.92,33.78,2.63,4.654-.591,6.374-.736,9.848-2.59,9.524-5.086,9.649-15.278,11.721-25.6,1.223-6.084,3.759-15.3,3.759-21.772h.659c0,23.929,5.584,43.864,34.7,43.864,20.435,0,34.334-10.545,43.338-25.4l7.725-15.841c4.264,6.792,3.69,12.725,15.053,20.953,16.651,12.054,40.362,9.328,58.651,2.337l12.6-6.385a60.43,60.43,0,0,0,5.2-3.963c1.689-1.385,3.866-3.417,5.385-4.432,1.225,5.257,8.1,11.13,14.4,11.13,4.219,0,8.191-.969,12.418-1.331,3.963-.338,8.049-.844,12.29-1.456,13.3-1.913,16.094-12.9,17.931-23.969,1.222-7.349,4.23-16.2,1.558-23.412-1.077-2.911-.949-1.467.483-4.6,2.868-6.292,16.276-69.107,19.753-85.05.847-3.886,2.34-7.861,2.34-12.06,0-8.975-8.847-17.521-18.786-16.216-4.876.64-10.229,1.288-15.71,2.01-9.293,1.228-19.02,2.616-22.866,12.486-1.652,4.239-1.979,10.223-2.775,14.9-1.68,9.987-2.314,20.56-4.671,30.681a66.105,66.105,0,0,0-6.738-7.014c-11.591-9.837-29.544-11.011-44.618-8.333a77.667,77.667,0,0,0-21.749,7.051,51.7,51.7,0,0,0-4.679,2.525,18.533,18.533,0,0,1-4.7,2.5c-11.96-8.009-13.442-5.427-31.225-3.079-16.333,2.158-20.074,3.682-26.2,18.977-1.154,2.888-2.01,5.023-3.179,7.946-.745,1.862-1,2.488-1.68,4.216l-1.874,4.017c0-10-.054-19.366-7.377-25.359-8.154-6.67-19.889-1.481-28.629-1.481,0-7.414,4.063-13.734,1.669-21.308-.856-2.684-3.025-6.138-4.91-7.534-2.2-1.623-5.038-2.434-7.653-3.48-.119-.051-.344-.159-.446-.2a3.479,3.479,0,0,1-.443-.208c5.345-.446,11.707-1.976,15.838-5.115l3.8-3.4c9.018,4.773,22.047,4.782,31.625.827,4.017-1.66,2.312-.989,6.968-.816,3.7.136,5.592-.4,9.137-.728,24.256-2.246,20.39-14.721,27.057-47.569,1.507-7.392,5.734-25.632,5.734-32.237,0-5.143-3.215-11.375-7.207-12.438,1.99-2.965,4.543-4.563,5.643-8.776,1.274-4.918-.088-7.375-1.055-11.52,5.979-4.006,7.7-9.362,9.115-16.418,2.166-10.837,11.835-58.878,11.835-66.722,0-13.973-1.021-24.282-10.627-33.888-21.6-21.6-53.869-4.1-56.351-3.775-2.965.384-.549-2.6-19.153-.023-9.035,1.251-19.767,1.24-24.507,10.192-5.655-1.319-4.836-1.805-12.236-2.82l-13.928-1.129c-9.177-.3-18.946.807-28.063,2.1-14.408,2.024-26.593,6.92-37.715,15.312-1.91,1.439-2.6,2.434-4.29,3.562.159-7.193,3.926-15.179,3.926-22.258,0-9.035-7.648-18.332-16.367-18.332-7.764,0-23.142,1.177-29.394,3.349-12.216,4.245-20.768,20.472-27.838,31.085-2.118,3.19-3.787,5.342-5.888,8.509-1.487,2.24-4.634,7.559-6.286,8.776m218.013,70.7c0,4.694-.287,7,2.587,11.156,1.265,1.822,2.871,3.912,5.268,4.554-2.195,4.145-4.756,4.873-7.975,9.7-3.482,5.217,1.026,4.472-5.84,6.6l-12.373,5.956c-5.336-3.574-3.181-.753-4.136-4.375-1.626-6.172-4.554-7.858-5-8.773-.114-.236-2.615-.637,1.828-1.24,8.105-1.106,11.924-.19,18.917-8.7,3.053-3.721,3.406-8.085,4.478-13.851,1.936-10.4,3.906-19.855,5.689-30.309l6.368-30.295c1.117,1.936-1.3,12.074-1.791,14.57-1.265,6.491-8.023,41.1-8.023,45m-108.673,239.6.2.193c-.014-.011-.261-.131-.2-.193" transform="translate(-742.141 -112.518)" fill="#1a1818" fill-rule="evenodd"/></g></g></g><g transform="translate(759.64 191.463)" opacity="0.5"><g clip-path="url(#e)"><g clip-path="url(#e)"><path d="M958.193,193.583a17.055,17.055,0,0,1-.944,7.281,17.611,17.611,0,0,1-3.539,5.922A18.806,18.806,0,0,1,948.3,210.9a16.71,16.71,0,0,1-6.522,1.839,17.733,17.733,0,0,1-6.8-.7,14.125,14.125,0,0,1-5.123-2.849,13.364,13.364,0,0,1-3.3-4.409,15.179,15.179,0,0,1-1.425-5.4,17.886,17.886,0,0,1,4.447-13.5,18.286,18.286,0,0,1,5.453-4.145,17.108,17.108,0,0,1,6.542-1.817,18.019,18.019,0,0,1,6.718.657,14.368,14.368,0,0,1,5.069,2.795,14.16,14.16,0,0,1,3.357,4.466,16.306,16.306,0,0,1,1.481,5.74" transform="translate(-925.061 -179.863)" fill="#1a1818"/></g></g></g><path d="M894.529,215.974,846.8,330.17c-7.417,17.683-21.166,22.01-33.635,23.546s-25.251.492-26.158-16.162L780.947,230v-.173a4.125,4.125,0,0,1,3.824-3.96l24.2-2.994a2.609,2.609,0,0,1,3.045,2.769l3.079,100.417c-.026,1.922.333,2.57,1.947,2.38,1.629-.208,2.365-.989,3.1-3.011l42.076-105.98c.739-1.839,2.2-3.42,4.014-3.642l26.175-3.232c1.626-.2,2.522.56,2.508,1.788a5.1,5.1,0,0,1-.384,1.618" transform="translate(-431.019 71.814)" fill="#1a1818"/><g transform="translate(452.139 274.195)" opacity="0.96"><g clip-path="url(#g)"><g transform="translate(0.003 0.003)"><g clip-path="url(#h)"><path d="M864.211,247.642l-17.985,95.316c-.381,1.967-1.294,3.665-4.37,4.04l-22.019,2.718c-2.166.264-3.241-1-2.863-3.147l17.97-95.316a5.24,5.24,0,0,1,4.193-4.014l22.033-2.721c1.984-.242,3.42.628,3.039,3.124m-26.539-15.068,3.062-16.626a4.625,4.625,0,0,1,4.375-4.031l23.469-2.9c2.172-.262,3.426.455,2.854,3.153l-3.056,16.614a4.6,4.6,0,0,1-4.37,4.031l-23.477,2.9c-2.175.27-3.247-.992-2.857-3.139" transform="translate(-816.9 -208.965)" fill="#1a1818"/></g></g></g></g><g transform="translate(510.425 296.219)" opacity="0.96"><g clip-path="url(#i)"><g transform="translate(-0.003 0.003)"><g clip-path="url(#j)"><path d="M934.909,220.492l-38.036,83.99c-7.395,16.469-19.165,20.717-29.82,22.033s-20.913-.21-22.371-15.577L837.4,232.529c0-.179.006-.353.006-.353a4.21,4.21,0,0,1,3.471-4.091l22.934-2.837c1.805-.225,2.866,1.214,3.031,3.292l2.337,68.192c.154,2.6.862,3.559,2.132,3.406s2.357-1.342,3.463-4.1L903.5,224.02c.927-2.212,2.743-4.009,4.554-4.23l24.737-3.056a2.085,2.085,0,0,1,2.5,2.132,5.006,5.006,0,0,1-.381,1.626" transform="translate(-837.398 -216.712)" fill="#1a1818"/></g></g></g></g><g transform="translate(600.138 288)" opacity="0.96"><g clip-path="url(#k)"><g transform="translate(0.006 0.005)"><g clip-path="url(#l)"><path d="M962.918,255.177l-2.482,12.532c-6.09,30.445-21.968,48.132-53.931,52.083-24.558,3.031-37.76-10.365-37.544-31.005a48.413,48.413,0,0,1,1-9.9l2.479-12.535c6.49-32.416,23.969-48.373,53.946-52.078,24.375-3.008,37.945,9.291,37.72,30.63a74.455,74.455,0,0,1-1.188,10.277m-41.127-16.233c-10.476,1.3-17.211,8.068-20.27,23.816l-2.479,12.532a53.078,53.078,0,0,0-.995,8.5c-.091,9.1,4.2,12.589,13.225,11.471,11.739-1.447,17.237-9.461,20.089-23.955l2.485-12.543a49.085,49.085,0,0,0,.981-8.159c.1-9.095-4.188-12.756-13.035-11.665" transform="translate(-868.96 -213.824)" fill="#1a1818"/></g></g></g></g><g transform="translate(697.992 244.675)" opacity="0.96"><g clip-path="url(#m)"><g transform="translate(0 -0.002)"><g clip-path="url(#n)"><path d="M935.929,309.33l-4.194,22.531a5.2,5.2,0,0,1-4.187,4.006l-21.314,2.627a2.322,2.322,0,0,1-2.857-2.442v-.7l4.208-22.522a5.042,5.042,0,0,1,4.2-3.838l21.305-2.633c1.808-.225,2.874.694,2.868,2.272-.014.347-.025.523-.025.7m21.171-107.6-20.424,89.682a5.655,5.655,0,0,1-4.375,4.216l-15.358,1.891a2.812,2.812,0,0,1-3.209-2.746c.005-.176.005-.355.005-.526l13.206-88.8c.208-1.95,2.564-3.807,4.56-4.054l22.573-2.786a2.444,2.444,0,0,1,3.033,2.419c0,.179-.011.526-.011.7" transform="translate(-903.376 -198.577)" fill="#1a1818"/></g></g></g></g><g transform="translate(350.979 190.446)" opacity="0.96"><g clip-path="url(#o)"><g transform="translate(0.003)"><g clip-path="url(#p)"><path d="M844.542,207.82l-1.294,7.008a3.686,3.686,0,0,1-3.073,3.215l-39.165,4.833a40.942,40.942,0,0,0-.549,4.9c-.063,6.144,2.965,7.9,10.783,6.931,7.682-.941,18.67-3.016,23.674-3.98,1.964-.358,2.562-.08,2.308,1.6l-1.814,9.188c-.392,1.936-.881,2.834-3.082,3.574a110.192,110.192,0,0,1-25.652,6c-13.183,1.629-25.547-4.168-25.359-20.586a44.555,44.555,0,0,1,.668-6.7l1.561-8.447c3.875-21.012,16.8-33.112,36.819-35.586,16.464-2.03,25,7.77,24.859,21.6a38.455,38.455,0,0,1-.685,6.445m-27.156-12.339c-8.3,1.026-12.267,6.943-14.172,15.327l22.932-2.834a29.968,29.968,0,0,0,.665-5.274c.063-5.436-2.59-8.06-9.424-7.218" transform="translate(-781.318 -179.506)" fill="#1a1818"/></g></g></g></g><g transform="translate(415.811 182.314)" opacity="0.96"><g clip-path="url(#q)"><g transform="translate(0.003 0.003)"><g clip-path="url(#r)"><path d="M864.054,179.891l-1.817,9.777a2.942,2.942,0,0,1-2.462,2.55c-.117.02-.25.034-.367.048a190.8,190.8,0,0,0-19.983.935c-.136.011-.256.026-.5.057-3.167.39-6.706.944-6.752,4.964-.014,1.413.952,2.357,2.894,3.3l13.456,6.715c7.5,3.8,9.524,8.859,9.478,13.47-.193,17.126-14.65,24.933-30.383,26.875-6.715.827-15.727,1-21.689.077-1.211-.2-1.814-.836-1.808-1.9.006-.233.006-.353.006-.594l1.939-9.8a3.137,3.137,0,0,1,2.826-2.584c.134-.02.247-.028.37-.048a189.205,189.205,0,0,0,20.478-.879c4.148-.5,8.051-1.345,8.1-6.309.014-1.535-.933-2.948-3.608-4.27l-14.175-7.1a14.019,14.019,0,0,1-7.781-13.083c.182-16.543,14.132-22.994,28.774-24.794a79.624,79.624,0,0,1,21.2.1c1.217.2,1.814.836,1.805,1.9Z" transform="translate(-804.123 -176.648)" fill="#1a1818"/></g></g></g></g><g transform="translate(481.6 161.518)" opacity="0.96"><g clip-path="url(#s)"><g clip-path="url(#t)"><path d="M873.457,184.82l-1.928,9.788a3.5,3.5,0,0,1-2.832,2.718l-10,1.231-6.712,35.176a19.663,19.663,0,0,0-.4,3.349c-.02,1.774.83,2.138,3.4,1.825l5.976-.742c1.222-.151,2.186.2,2.175,1.385,0,.125,0,.236-.006.353l-1.8,9.424a3.547,3.547,0,0,1-2.7,2.7,61.88,61.88,0,0,1-9.9,2.172c-11.1,1.365-17.277-1.766-17.177-12.043a41.635,41.635,0,0,1,.682-6.1l6.587-35.034-9.5-.364c-1.208-.082-2.056-.691-2.05-1.871,0-.114.011-.245.011-.355l1.427-7.963a4,4,0,0,1,3.067-2.863l9.768-1.2,1.8-9.9a3.877,3.877,0,0,1,2.954-2.726l15.4-4.375c.114-.017.236-.037.361-.048,1.112-.139,1.825.367,1.819,1.427,0,.117,0,.233-.011.35l-2.451,12.81,10-1.228a1.682,1.682,0,0,1,2.058,1.751c0,.117,0,.233-.011.355" transform="translate(-827.264 -169.329)" fill="#1a1818"/></g></g></g><g transform="translate(525.177 168.34)" opacity="0.96"><g clip-path="url(#u)"><g transform="translate(0.003)"><g clip-path="url(#v)"><path d="M906.849,172.425c2.806.361,3.534.739,3.147,3.15l-11.383,61.113a2.949,2.949,0,0,1-2.826,2.712l-12.444,1.541c-1.342.162-2.306-.54-2.05-2.1l.526-3.494c-6.647,5.777-12.509,8.392-18.991,9.188-14.624,1.805-20.364-8.338-20.236-20.151a43.64,43.64,0,0,1,.682-6.7s1.68-9.058,2.07-11.346c3.883-21.015,17.137-31.384,36.288-33.749a103.631,103.631,0,0,1,25.217-.162m-27.938,16.188c-8.663,1.077-12.253,6.473-14.064,16.256l-2.331,12.68a21.628,21.628,0,0,0-.4,3.943c-.045,3.906,1.387,7.028,6.872,6.348,4.154-.512,8.933-2.988,12.967-5.734l6.337-33.942a66.872,66.872,0,0,0-9.379.449" transform="translate(-842.592 -171.729)" fill="#1a1818"/></g></g></g></g><g transform="translate(566.242 145.196)" opacity="0.96"><g clip-path="url(#w)"><g clip-path="url(#x)"><path d="M882.143,164.786l-12.3,11.52a3.228,3.228,0,0,1-2.215,1.254l-9.91,1.222c-.424.051-.68-.074-.68-.415a1.775,1.775,0,0,1,.52-.964l9.766-10.789c.941-1.021,1.279-1.39,2.471-1.538l11.952-1.47c.5-.065.921.048.921.378a1.209,1.209,0,0,1-.52.8" transform="translate(-857.034 -163.59)" fill="#1a1818"/></g></g></g><g transform="translate(17.959 54.412)" opacity="0.96"><g clip-path="url(#y)"><g transform="translate(0.003)"><g clip-path="url(#z)"><path d="M708.906,177.314l-13.632,91.552c-.193,2.007-2.638,3.932-4.685,4.182l-23.278,2.874a2.612,2.612,0,0,1-3.13-2.49c0-.182.006-.543.008-.725l21.067-92.482c.58-2.05,2.459-4.083,4.509-4.33l15.83-1.953a2.9,2.9,0,0,1,3.318,2.832c-.006.179-.006.355-.006.54m10.678-42.383-4.338,23.224a5.18,5.18,0,0,1-4.324,3.957l-21.97,2.712c-1.68.21-2.968-.714-2.948-2.334.006-.361.006-.54.006-.728l4.336-23.224a5.365,5.365,0,0,1,4.321-4.137l21.97-2.715a2.533,2.533,0,0,1,3.139,2.493,1,1,0,0,1-.19.751" transform="translate(-664.179 -131.656)" fill="#1a1818"/></g></g></g></g><g transform="translate(69.567 47.033)" opacity="0.96"><g clip-path="url(#aa)"><g transform="translate(0 0.004)"><g clip-path="url(#ab)"><path d="M786.368,132.36l-3.341,17.169a5.361,5.361,0,0,1-4.318,4.134l-37.8,4.668c-7.63.944-12.3,2.962-14.269,13.831l-3.161,16.958,48.22-5.956a2.447,2.447,0,0,1,2.951,2.7c0,.182,0,.37-.011.546l-3.164,17.5a5.611,5.611,0,0,1-4.5,4.162l-48.22,5.953-3.741,19.551a24.383,24.383,0,0,0-.606,4.759c-.062,5.768,3.076,7.179,10.155,6.309l37.8-4.665a2.559,2.559,0,0,1,3.124,2.672v.543l-3.343,17.163c-.4,2.394-1.711,3.633-4.324,4.316-6.712,1.731-16.043,4.318-36.143,6.809-19.363,2.385-39.586-1.783-39.338-25.044a52.691,52.691,0,0,1,1.029-8.95l11.622-61.235c6.7-35.765,27.4-41.928,52.913-45.078,20.105-2.485,29.027-2.144,35.344-2.024,2.232.088,3.346.486,3.329,2.107-.006.367-.193.751-.2,1.106" transform="translate(-682.33 -129.063)" fill="#1a1818"/></g></g></g></g><g transform="translate(166.476 36.066)" opacity="0.96"><g clip-path="url(#ac)"><g transform="translate(0.003 0.003)"><g clip-path="url(#ad)"><path d="M771.818,128.469,746.592,262.344a5.592,5.592,0,0,1-4.33,4.318l-22.707,2.8a2.676,2.676,0,0,1-3.136-2.846c0-.182.008-.37.008-.549l25.22-133.878a5.652,5.652,0,0,1,4.514-4.159l22.718-2.8a2.4,2.4,0,0,1,2.946,2.516c0,.361-.009.537-.009.719" transform="translate(-716.421 -125.206)" fill="#1a1818"/></g></g></g></g><g transform="translate(257.691 17.705)" opacity="0.96"><g clip-path="url(#ae)"><g transform="translate(-0.005)"><g clip-path="url(#af)"><path d="M898.614,124.436,874.375,252.427a3.765,3.765,0,0,1-3.565,2.962l-24.586,3.031c-1.487.185-2.223-.984-2.2-2.6,0-.182.006-.543.006-.722l14.4-76.885c0-.182,0-.355.006-.54.006-.722-.361-.859-.742-.807-.554.071-.93.472-1.691,1.467L833.533,210.82a8.58,8.58,0,0,1-6.175,3.827l-14.892,1.842c-2.428.3-4.091-.4-5-2.448l-11.04-28.356c-.358-.859-.722-1.171-1.285-1.1-.372.046-.933.3-1.134,1.578l-14.388,76.883c-.4,2.033-2.092,3.866-3.767,4.071l-24.577,3.031c-1.3.165-2.783-.193-2.769-1.635.009-.182.009-.355.009-.543l24.234-128.173a9,9,0,0,1,7.889-7.093l16.2-2c3.909-.486,6.127,1.225,7.2,3.972l18.639,49.033c.534,1.37.9,2.229,1.649,2.132s1.311-1.063,2.442-2.638l38.346-56.072a12.766,12.766,0,0,1,9.186-5.987l18.8-2.328c3.54-.438,5.754,1.274,5.714,4.336-.006.37-.19.753-.2,1.288" transform="translate(-748.5 -118.745)" fill="#1a1818"/></g></g></g></g><g transform="translate(405.55 37.876)" opacity="0.96"><g clip-path="url(#ag)"><g transform="translate(-0.003 0.003)"><g clip-path="url(#ah)"><path d="M898.605,126.9c4.273.557,5.387,1.134,4.787,4.816l-17.356,93.281a4.536,4.536,0,0,1-4.33,4.134l-18.994,2.34c-2.047.259-3.517-.822-3.122-3.213l.8-5.322c-10.135,8.813-19.1,12.8-28.967,14.024-22.337,2.758-31.1-12.734-30.912-30.767a63.325,63.325,0,0,1,1.04-10.215s2.567-13.823,3.159-17.314c5.925-32.072,26.175-47.9,55.4-51.515a158.666,158.666,0,0,1,38.488-.25m-42.653,24.723c-13.226,1.626-18.7,9.871-21.465,24.8l-3.559,19.346a33.956,33.956,0,0,0-.608,6.021c-.071,5.953,2.107,10.729,10.488,9.695,6.331-.782,13.621-4.566,19.807-8.754l9.658-51.8a99.071,99.071,0,0,0-14.32.688" transform="translate(-800.51 -125.84)" fill="#1a1818"/></g></g></g></g><g transform="translate(507.069 24.467)" opacity="0.96"><g clip-path="url(#ai)"><g clip-path="url(#aj)"><path d="M939.278,158.823l-11.443,61.385a6.107,6.107,0,0,1-4.7,4.367l-22.522,2.78a2.5,2.5,0,0,1-2.945-2.7c0-.188,0-.543.008-.722L909.1,162.547a47.2,47.2,0,0,0,1.021-8.048c.071-6.672-4.367-8.29-9.956-7.6-7.076.876-16.04,5.4-20.162,8.253L866.4,227.8a5.838,5.838,0,0,1-4.518,4.338l-22.522,2.783a2.685,2.685,0,0,1-3.136-2.852c0-.185.006-.367.006-.546l18.533-98.1a5.368,5.368,0,0,1,4.315-4.142l20.3-2.5a2.56,2.56,0,0,1,3.133,2.675c0,.176-.006.355-.006.54l-.79,4.424a57.5,57.5,0,0,1,29.143-12.97c16.009-1.979,29.885,4.958,29.658,26.241a63.451,63.451,0,0,1-1.231,11.136" transform="translate(-836.221 -121.123)" fill="#1a1818"/></g></g></g><path d="M892.892,214.354,845.156,328.545c-7.415,17.692-21.163,22.01-33.632,23.546s-25.249.5-26.15-16.162L779.3,228.373V228.2a4.127,4.127,0,0,1,3.838-3.963l24.2-2.991a2.606,2.606,0,0,1,3.039,2.766l3.07,100.422c-.017,1.919.338,2.57,1.953,2.377,1.629-.21,2.363-.989,3.1-3.011L860.57,217.82c.748-1.834,2.2-3.417,4.017-3.639l26.178-3.235c1.62-.2,2.522.563,2.5,1.785a5.176,5.176,0,0,1-.378,1.623" transform="translate(-434.052 68.825)" fill="#fff"/><path d="M862.551,246.019l-17.973,95.316c-.381,1.967-1.3,3.667-4.37,4.04L818.187,348.1c-2.172.267-3.235-1-2.852-3.141L833.3,249.632a5.214,5.214,0,0,1,4.19-4.014l22.036-2.718c1.982-.247,3.417.628,3.028,3.119m-26.531-15.068,3.065-16.62a4.618,4.618,0,0,1,4.375-4.04l23.477-2.894c2.161-.273,3.417.452,2.843,3.147l-3.056,16.617a4.582,4.582,0,0,1-4.37,4.026l-23.474,2.9c-2.178.27-3.247-.992-2.86-3.139" transform="translate(-367.785 62.244)" fill="#fff"/><path d="M933.261,218.87l-38.036,84c-7.395,16.461-19.159,20.711-29.812,22.027s-20.916-.213-22.374-15.574l-7.281-78.412v-.353a4.213,4.213,0,0,1,3.471-4.091l22.937-2.834c1.808-.222,2.863,1.208,3.033,3.292l2.337,68.194c.148,2.59.858,3.554,2.126,3.4s2.354-1.336,3.469-4.1l28.723-72.024c.918-2.212,2.74-4.011,4.557-4.23l24.731-3.053a2.088,2.088,0,0,1,2.5,2.132,5.027,5.027,0,0,1-.387,1.626" transform="translate(-330.003 76.52)" fill="#fff"/><path d="M961.273,253.555l-2.482,12.535c-6.087,30.445-21.97,48.132-53.934,52.083-24.546,3.025-37.755-10.368-37.542-31a47.681,47.681,0,0,1,1-9.908l2.479-12.537c6.49-32.416,23.969-48.376,53.943-52.078,24.378-3.008,37.951,9.285,37.72,30.63a72.655,72.655,0,0,1-1.188,10.277m-41.126-16.231c-10.477,1.294-17.214,8.063-20.268,23.81L897.4,273.672a54,54,0,0,0-1,8.5c-.091,9.1,4.2,12.589,13.229,11.471,11.733-1.45,17.237-9.461,20.088-23.958l2.482-12.54a48.9,48.9,0,0,0,.984-8.159c.1-9.1-4.188-12.756-13.038-11.665" transform="translate(-271.848 71.191)" fill="#fff"/><path d="M934.294,307.707l-4.2,22.531a5.19,5.19,0,0,1-4.187,4.009l-21.308,2.627a2.316,2.316,0,0,1-2.86-2.442v-.7l4.208-22.525a5.022,5.022,0,0,1,4.19-3.832l21.308-2.635c1.808-.225,2.874.7,2.863,2.272,0,.35-.009.523-.009.7m21.163-107.6-20.43,89.684a5.655,5.655,0,0,1-4.375,4.213L915.3,295.9a2.818,2.818,0,0,1-3.218-2.746,3.635,3.635,0,0,0,.026-.52l13.191-88.8c.21-1.953,2.57-3.81,4.563-4.063l22.576-2.78a2.437,2.437,0,0,1,3.028,2.419c0,.179-.008.52-.008.7" transform="translate(-208.414 43.107)" fill="#fff"/><path d="M842.9,206.2l-1.3,7.008a3.662,3.662,0,0,1-3.068,3.213l-39.162,4.839a42.162,42.162,0,0,0-.557,4.9c-.048,6.144,2.974,7.895,10.786,6.931,7.687-.941,18.67-3.016,23.685-3.983,1.95-.358,2.553-.082,2.294,1.6l-1.8,9.191c-.4,1.939-.884,2.832-3.091,3.571a109.912,109.912,0,0,1-25.658,6c-13.169,1.629-25.53-4.162-25.354-20.592a46.228,46.228,0,0,1,.668-6.684l1.563-8.455c3.875-21.01,16.8-33.109,36.811-35.58,16.475-2.03,25.012,7.77,24.87,21.6a38.85,38.85,0,0,1-.688,6.451m-27.156-12.344c-8.29,1.032-12.256,6.945-14.167,15.326l22.931-2.832a31.681,31.681,0,0,0,.668-5.274c.054-5.439-2.593-8.06-9.433-7.221" transform="translate(-433.37 7.954)" fill="#fff"/><path d="M862.4,178.268l-1.805,9.78a2.957,2.957,0,0,1-2.471,2.55c-.111.014-.244.028-.364.046a193.147,193.147,0,0,0-19.986.932c-.128.014-.247.031-.492.054-3.176.392-6.715.95-6.758,4.972-.017,1.413.952,2.351,2.9,3.3l13.45,6.721c7.508,3.793,9.524,8.853,9.481,13.464-.2,17.129-14.65,24.93-30.386,26.875-6.712.83-15.719,1-21.692.08q-1.813-.3-1.8-1.9c.006-.236.006-.353.011-.589l1.925-9.8a3.157,3.157,0,0,1,2.834-2.59c.128-.02.247-.028.369-.045a188.38,188.38,0,0,0,20.478-.881c4.148-.509,8.051-1.348,8.094-6.306.017-1.538-.93-2.954-3.6-4.273l-14.172-7.1a14.021,14.021,0,0,1-7.8-13.083c.19-16.54,14.147-22.983,28.782-24.788a79.656,79.656,0,0,1,21.2.1c1.217.2,1.811.833,1.8,1.893Z" transform="translate(-391.34 2.681)" fill="#fff"/><path d="M871.811,183.2l-1.928,9.791a3.512,3.512,0,0,1-2.829,2.712l-10,1.234-6.709,35.17a20.255,20.255,0,0,0-.4,3.355c-.026,1.771.819,2.135,3.392,1.828l5.97-.748c1.228-.145,2.195.2,2.183,1.385,0,.125,0,.239-.006.358l-1.805,9.427a3.559,3.559,0,0,1-2.7,2.7,62.876,62.876,0,0,1-9.9,2.166c-11.108,1.367-17.283-1.763-17.175-12.04a41.123,41.123,0,0,1,.674-6.1l6.587-35.037-9.5-.361c-1.208-.088-2.044-.691-2.044-1.879,0-.108.009-.233.009-.347l1.425-7.966a3.988,3.988,0,0,1,3.067-2.86l9.771-1.194,1.8-9.9a3.881,3.881,0,0,1,2.948-2.729l15.409-4.375c.114-.014.236-.04.361-.045,1.109-.136,1.825.367,1.811,1.424,0,.117,0,.236-.009.355l-2.445,12.81,9.99-1.234a1.688,1.688,0,0,1,2.073,1.751,2.474,2.474,0,0,1-.017.355" transform="translate(-348.691 -10.798)" fill="#fff"/><path d="M905.213,170.8c2.8.367,3.525.751,3.139,3.156l-11.381,61.115a2.956,2.956,0,0,1-2.832,2.712L881.7,239.322c-1.333.162-2.306-.546-2.047-2.109l.526-3.488c-6.652,5.777-12.518,8.392-18.988,9.188-14.63,1.8-20.364-8.341-20.242-20.154a43.64,43.64,0,0,1,.682-6.7s1.68-9.058,2.073-11.349c3.872-21.012,17.14-31.384,36.285-33.749a103.847,103.847,0,0,1,25.226-.165m-27.949,16.191c-8.657,1.075-12.248,6.476-14.058,16.259l-2.329,12.674a21.243,21.243,0,0,0-.4,3.952c-.062,3.892,1.379,7.022,6.866,6.346,4.148-.515,8.921-2.988,12.972-5.734l6.331-33.939a66.024,66.024,0,0,0-9.387.443" transform="translate(-320.443 -6.378)" fill="#fff"/><path d="M880.5,163.163l-12.3,11.517a3.235,3.235,0,0,1-2.215,1.259l-9.91,1.217c-.424.057-.677-.074-.677-.409a1.684,1.684,0,0,1,.512-.964l9.763-10.795c.947-1.015,1.291-1.385,2.476-1.532l11.949-1.47c.5-.068.916.046.916.375a1.138,1.138,0,0,1-.509.8" transform="translate(-293.82 -21.382)" fill="#fff"/><path d="M707.255,175.688l-13.618,91.558c-.2,2.007-2.647,3.929-4.691,4.179L665.668,274.3a2.618,2.618,0,0,1-3.133-2.493c0-.179.006-.54.006-.719l21.072-92.479c.577-2.058,2.456-4.088,4.509-4.341l15.821-1.95a2.9,2.9,0,0,1,3.321,2.832c-.008.182-.008.358-.008.54M717.933,133.3l-4.336,23.23a5.169,5.169,0,0,1-4.33,3.957L687.309,163.2c-1.68.208-2.971-.719-2.951-2.34.006-.358.006-.543.006-.722l4.341-23.227a5.372,5.372,0,0,1,4.318-4.142l21.971-2.709c1.862-.225,3.159.873,3.136,2.5-.006.358-.006.54-.2.745" transform="translate(-649.249 -80.233)" fill="#fff"/><path d="M784.725,130.741l-3.34,17.163a5.382,5.382,0,0,1-4.324,4.142l-37.792,4.662c-7.642.941-12.307,2.96-14.275,13.831L721.836,187.5l48.22-5.956a2.444,2.444,0,0,1,2.948,2.7c-.006.185-.006.361-.011.543l-3.164,17.5a5.6,5.6,0,0,1-4.5,4.156l-48.22,5.959-3.744,19.551a24.986,24.986,0,0,0-.606,4.759c-.063,5.768,3.079,7.181,10.155,6.309l37.8-4.665a2.556,2.556,0,0,1,3.125,2.678v.532l-3.341,17.169c-.4,2.388-1.717,3.633-4.324,4.319-6.712,1.726-16.034,4.316-36.148,6.8-19.358,2.388-39.58-1.777-39.333-25.044a52.767,52.767,0,0,1,1.029-8.953l11.622-61.229c6.7-35.77,27.4-41.928,52.913-45.078,20.106-2.485,29.027-2.146,35.344-2.027,2.235.091,3.34.489,3.329,2.112-.006.364-.191.739-.2,1.1" transform="translate(-615.795 -85.015)" fill="#fff"/><path d="M770.177,126.849,744.951,260.722a5.577,5.577,0,0,1-4.327,4.318l-22.713,2.8a2.68,2.68,0,0,1-3.139-2.846c.009-.185.011-.364.011-.546l25.229-133.879a5.627,5.627,0,0,1,4.5-4.156l22.724-2.8a2.394,2.394,0,0,1,2.946,2.519c-.006.364-.006.543-.006.719" transform="translate(-552.976 -92.126)" fill="#fff"/><path d="M896.978,122.818l-24.25,127.988a3.758,3.758,0,0,1-3.565,2.962L844.585,256.8c-1.487.185-2.22-.989-2.2-2.6,0-.188.009-.546.009-.731l14.4-76.883v-.543c.006-.716-.361-.85-.731-.8-.563.068-.932.472-1.691,1.464L831.9,209.2a8.57,8.57,0,0,1-6.178,3.824l-14.894,1.845c-2.428.3-4.085-.4-5-2.445l-11.042-28.359c-.364-.853-.725-1.171-1.285-1.1-.375.043-.938.293-1.135,1.575l-14.388,76.883c-.4,2.036-2.1,3.866-3.767,4.071l-24.572,3.031c-1.308.165-2.789-.193-2.783-1.638.006-.182.014-.355.014-.54L771.1,138.173a9.029,9.029,0,0,1,7.892-7.1l16.2-2c3.909-.48,6.121,1.228,7.2,3.974l18.63,49.033c.543,1.367.9,2.226,1.657,2.132s1.308-1.063,2.439-2.635l38.343-56.075a12.758,12.758,0,0,1,9.177-5.993l18.809-2.323c3.537-.438,5.754,1.271,5.714,4.333,0,.367-.185.751-.19,1.294" transform="translate(-493.849 -104.027)" fill="#fff"/><path d="M896.964,125.278c4.264.552,5.379,1.134,4.782,4.81L884.387,223.37c-.4,2.03-1.345,3.767-4.324,4.137l-18.994,2.337c-2.041.262-3.52-.819-3.127-3.207l.807-5.325c-10.135,8.816-19.1,12.8-28.97,14.027-22.337,2.755-31.1-12.731-30.909-30.767a63.336,63.336,0,0,1,1.038-10.215s2.573-13.825,3.161-17.322c5.925-32.066,26.173-47.9,55.407-51.509a158.372,158.372,0,0,1,38.488-.247M854.305,150c-13.223,1.632-18.7,9.871-21.459,24.8l-3.562,19.346a33.2,33.2,0,0,0-.611,6.019c-.074,5.95,2.118,10.732,10.491,9.692,6.325-.782,13.621-4.566,19.8-8.748l9.66-51.8a99.542,99.542,0,0,0-14.32.691" transform="translate(-397.993 -90.95)" fill="#fff"/><path d="M937.626,157.2,926.188,218.59a6.1,6.1,0,0,1-4.7,4.361l-22.531,2.783a2.5,2.5,0,0,1-2.934-2.7c0-.182,0-.54.006-.722l11.434-61.391a47.979,47.979,0,0,0,1.015-8.046c.068-6.672-4.37-8.29-9.95-7.6-7.079.879-16.054,5.4-20.174,8.253l-13.6,72.644a5.837,5.837,0,0,1-4.515,4.341L837.715,233.3a2.684,2.684,0,0,1-3.139-2.854c0-.182.011-.364.011-.54L853.1,131.792a5.366,5.366,0,0,1,4.327-4.128l20.3-2.508a2.553,2.553,0,0,1,3.127,2.672c0,.179,0,.358,0,.54l-.79,4.421a57.488,57.488,0,0,1,29.146-12.964c16.009-1.982,29.888,4.952,29.658,26.232a61.684,61.684,0,0,1-1.24,11.144" transform="translate(-332.182 -99.644)" fill="#fff"/><path d="M950.2,191.835a11.511,11.511,0,0,1-.637,4.93,12.02,12.02,0,0,1-2.4,4.009,12.692,12.692,0,0,1-3.665,2.783,11.287,11.287,0,0,1-4.412,1.248,12.02,12.02,0,0,1-4.608-.472,9.558,9.558,0,0,1-3.466-1.928,8.977,8.977,0,0,1-2.237-2.985,10.279,10.279,0,0,1-.967-3.659,11.96,11.96,0,0,1,.62-5.06,11.826,11.826,0,0,1,2.391-4.077,12.34,12.34,0,0,1,3.693-2.806,11.577,11.577,0,0,1,4.429-1.231,12.188,12.188,0,0,1,4.549.443,9.789,9.789,0,0,1,3.431,1.891,9.653,9.653,0,0,1,2.274,3.025,11.058,11.058,0,0,1,1,3.889m-2.573.418a9.577,9.577,0,0,0-.762-3.184,7.429,7.429,0,0,0-1.728-2.425,6.875,6.875,0,0,0-2.641-1.5,9.449,9.449,0,0,0-3.522-.341,9.092,9.092,0,0,0-3.585,1.029,9.694,9.694,0,0,0-2.832,2.274,9.581,9.581,0,0,0-1.763,3.213,9.981,9.981,0,0,0-.441,3.878,9.12,9.12,0,0,0,.839,3.338,6.928,6.928,0,0,0,1.834,2.38,6.807,6.807,0,0,0,2.681,1.35,10,10,0,0,0,3.383.281,9.005,9.005,0,0,0,3.554-1.006,9.609,9.609,0,0,0,2.795-2.243,8.958,8.958,0,0,0,1.754-3.187,10.028,10.028,0,0,0,.435-3.861m-4.134,5.737c.045.264.083.475.094.623a.419.419,0,0,1-.125.37.842.842,0,0,1-.478.185c-.227.04-.543.071-.961.105a3.306,3.306,0,0,1-1.231-.048.7.7,0,0,1-.381-.571l-.3-1.672a3.745,3.745,0,0,0-.7-1.544,1.678,1.678,0,0,0-1.4-.412l-.836.065-.492,4.091a.556.556,0,0,1-.353.4,3.99,3.99,0,0,1-1.171.2,3.079,3.079,0,0,1-1.154-.034.283.283,0,0,1-.2-.347l1.285-10.411a1.758,1.758,0,0,1,.432-1.006,1.526,1.526,0,0,1,1.06-.452l3.011-.225a9.2,9.2,0,0,1,1.976.051,3.755,3.755,0,0,1,1.416.5,2.489,2.489,0,0,1,.861.887,3.11,3.11,0,0,1,.364,1.311,3.153,3.153,0,0,1-.171,1.365,3.655,3.655,0,0,1-.631,1.12,4.04,4.04,0,0,1-1.009.844,6.831,6.831,0,0,1-1.248.586,2.127,2.127,0,0,1,1.168.708,3.869,3.869,0,0,1,.751,1.6ZM941.06,190.6a1.609,1.609,0,0,0-.1-.435.809.809,0,0,0-.3-.35,1.52,1.52,0,0,0-.606-.213,4.05,4.05,0,0,0-.984-.028l-1.256.1-.4,3.227,1.2-.082a4.426,4.426,0,0,0,1.259-.262,2.017,2.017,0,0,0,.779-.48A1.391,1.391,0,0,0,941,191.4a2.2,2.2,0,0,0,.057-.8" transform="translate(-160.432 16.54)" fill="#a9a6a3"/><path d="M950.2,191.835a11.511,11.511,0,0,1-.637,4.93,12.02,12.02,0,0,1-2.4,4.009,12.692,12.692,0,0,1-3.665,2.783,11.287,11.287,0,0,1-4.412,1.248,12.02,12.02,0,0,1-4.608-.472,9.558,9.558,0,0,1-3.466-1.928,8.977,8.977,0,0,1-2.237-2.985,10.279,10.279,0,0,1-.967-3.659,11.96,11.96,0,0,1,.62-5.06,11.826,11.826,0,0,1,2.391-4.077,12.34,12.34,0,0,1,3.693-2.806,11.577,11.577,0,0,1,4.429-1.231,12.188,12.188,0,0,1,4.549.443,9.789,9.789,0,0,1,3.431,1.891,9.653,9.653,0,0,1,2.274,3.025,11.058,11.058,0,0,1,1,3.889m-2.573.418a9.577,9.577,0,0,0-.762-3.184,7.429,7.429,0,0,0-1.728-2.425,6.875,6.875,0,0,0-2.641-1.5,9.449,9.449,0,0,0-3.522-.341,9.092,9.092,0,0,0-3.585,1.029,9.694,9.694,0,0,0-2.832,2.274,9.581,9.581,0,0,0-1.763,3.213,9.981,9.981,0,0,0-.441,3.878,9.12,9.12,0,0,0,.839,3.338,6.928,6.928,0,0,0,1.834,2.38,6.807,6.807,0,0,0,2.681,1.35,10,10,0,0,0,3.383.281,9.005,9.005,0,0,0,3.554-1.006,9.609,9.609,0,0,0,2.795-2.243,8.958,8.958,0,0,0,1.754-3.187,10.028,10.028,0,0,0,.435-3.861m-4.134,5.737c.045.264.083.475.094.623a.419.419,0,0,1-.125.37.842.842,0,0,1-.478.185c-.227.04-.543.071-.961.105a3.306,3.306,0,0,1-1.231-.048.7.7,0,0,1-.381-.571l-.3-1.672a3.745,3.745,0,0,0-.7-1.544,1.678,1.678,0,0,0-1.4-.412l-.836.065-.492,4.091a.556.556,0,0,1-.353.4,3.99,3.99,0,0,1-1.171.2,3.079,3.079,0,0,1-1.154-.034.283.283,0,0,1-.2-.347l1.285-10.411a1.758,1.758,0,0,1,.432-1.006,1.526,1.526,0,0,1,1.06-.452l3.011-.225a9.2,9.2,0,0,1,1.976.051,3.755,3.755,0,0,1,1.416.5,2.489,2.489,0,0,1,.861.887,3.11,3.11,0,0,1,.364,1.311,3.153,3.153,0,0,1-.171,1.365,3.655,3.655,0,0,1-.631,1.12,4.04,4.04,0,0,1-1.009.844,6.831,6.831,0,0,1-1.248.586,2.127,2.127,0,0,1,1.168.708,3.869,3.869,0,0,1,.751,1.6ZM941.06,190.6a1.609,1.609,0,0,0-.1-.435.809.809,0,0,0-.3-.35,1.52,1.52,0,0,0-.606-.213,4.05,4.05,0,0,0-.984-.028l-1.256.1-.4,3.227,1.2-.082a4.426,4.426,0,0,0,1.259-.262,2.017,2.017,0,0,0,.779-.48A1.391,1.391,0,0,0,941,191.4a2.2,2.2,0,0,0,.057-.8" transform="translate(-160.432 16.54)" fill="#1a1818"/><path d="M950.2,191.835a11.511,11.511,0,0,1-.637,4.93,12.02,12.02,0,0,1-2.4,4.009,12.692,12.692,0,0,1-3.665,2.783,11.287,11.287,0,0,1-4.412,1.248,12.02,12.02,0,0,1-4.608-.472,9.558,9.558,0,0,1-3.466-1.928,8.977,8.977,0,0,1-2.237-2.985,10.279,10.279,0,0,1-.967-3.659,11.96,11.96,0,0,1,.62-5.06,11.826,11.826,0,0,1,2.391-4.077,12.34,12.34,0,0,1,3.693-2.806,11.577,11.577,0,0,1,4.429-1.231,12.188,12.188,0,0,1,4.549.443,9.789,9.789,0,0,1,3.431,1.891,9.653,9.653,0,0,1,2.274,3.025A11.058,11.058,0,0,1,950.2,191.835Zm-2.573.418a9.577,9.577,0,0,0-.762-3.184,7.429,7.429,0,0,0-1.728-2.425,6.875,6.875,0,0,0-2.641-1.5,9.449,9.449,0,0,0-3.522-.341,9.092,9.092,0,0,0-3.585,1.029,9.694,9.694,0,0,0-2.832,2.274,9.581,9.581,0,0,0-1.763,3.213,9.981,9.981,0,0,0-.441,3.878,9.12,9.12,0,0,0,.839,3.338,6.928,6.928,0,0,0,1.834,2.38,6.807,6.807,0,0,0,2.681,1.35,10,10,0,0,0,3.383.281,9.005,9.005,0,0,0,3.554-1.006,9.609,9.609,0,0,0,2.795-2.243,8.958,8.958,0,0,0,1.754-3.187A10.028,10.028,0,0,0,947.627,192.252Zm-4.134,5.737c.045.264.083.475.094.623a.419.419,0,0,1-.125.37.842.842,0,0,1-.478.185c-.227.04-.543.071-.961.105a3.306,3.306,0,0,1-1.231-.048.7.7,0,0,1-.381-.571l-.3-1.672a3.745,3.745,0,0,0-.7-1.544,1.678,1.678,0,0,0-1.4-.412l-.836.065-.492,4.091a.556.556,0,0,1-.353.4,3.99,3.99,0,0,1-1.171.2,3.079,3.079,0,0,1-1.154-.034.283.283,0,0,1-.2-.347l1.285-10.411a1.758,1.758,0,0,1,.432-1.006,1.526,1.526,0,0,1,1.06-.452l3.011-.225a9.2,9.2,0,0,1,1.976.051,3.755,3.755,0,0,1,1.416.5,2.489,2.489,0,0,1,.861.887,3.11,3.11,0,0,1,.364,1.311,3.153,3.153,0,0,1-.171,1.365,3.655,3.655,0,0,1-.631,1.12,4.04,4.04,0,0,1-1.009.844,6.831,6.831,0,0,1-1.248.586,2.127,2.127,0,0,1,1.168.708,3.869,3.869,0,0,1,.751,1.6ZM941.06,190.6a1.609,1.609,0,0,0-.1-.435.809.809,0,0,0-.3-.35,1.52,1.52,0,0,0-.606-.213,4.05,4.05,0,0,0-.984-.028l-1.256.1-.4,3.227,1.2-.082a4.426,4.426,0,0,0,1.259-.262,2.017,2.017,0,0,0,.779-.48A1.391,1.391,0,0,0,941,191.4,2.2,2.2,0,0,0,941.06,190.6Z" transform="translate(-160.432 16.54)" fill="none" stroke="#1a1818" stroke-miterlimit="22.926" stroke-width="0.001"/></g><path d="M949.2,191.275a11.546,11.546,0,0,1-.643,4.927,11.84,11.84,0,0,1-2.4,4.009A12.616,12.616,0,0,1,942.508,203a11.388,11.388,0,0,1-4.427,1.248,11.979,11.979,0,0,1-4.6-.475,9.522,9.522,0,0,1-3.466-1.925,9,9,0,0,1-2.24-2.994,10.025,10.025,0,0,1-.964-3.656,12.082,12.082,0,0,1,3-9.134,12.489,12.489,0,0,1,3.7-2.809,11.717,11.717,0,0,1,4.435-1.228,12.076,12.076,0,0,1,4.543.446,9.608,9.608,0,0,1,3.434,1.888,9.5,9.5,0,0,1,2.271,3.028,10.849,10.849,0,0,1,1.009,3.889m-2.578.415a9.579,9.579,0,0,0-.765-3.184,7.306,7.306,0,0,0-1.723-2.428,6.914,6.914,0,0,0-2.638-1.493,9.455,9.455,0,0,0-3.525-.335,8.961,8.961,0,0,0-3.588,1.026,9.637,9.637,0,0,0-2.832,2.266,9.5,9.5,0,0,0-1.757,3.218,9.966,9.966,0,0,0-.447,3.878,9.173,9.173,0,0,0,.839,3.335,6.83,6.83,0,0,0,4.514,3.736,10.145,10.145,0,0,0,3.378.279,8.935,8.935,0,0,0,3.562-1.006,9.6,9.6,0,0,0,2.792-2.24,8.877,8.877,0,0,0,1.754-3.187,10.072,10.072,0,0,0,.435-3.864m-4.137,5.734a6.309,6.309,0,0,1,.1.628.483.483,0,0,1-.128.372,1.009,1.009,0,0,1-.48.182c-.222.04-.546.068-.961.1a3.29,3.29,0,0,1-1.228-.048.7.7,0,0,1-.381-.574l-.307-1.666a3.733,3.733,0,0,0-.694-1.544,1.654,1.654,0,0,0-1.4-.412l-.827.065-.495,4.088a.571.571,0,0,1-.35.4,4.191,4.191,0,0,1-1.174.2,3.293,3.293,0,0,1-1.157-.028.3.3,0,0,1-.2-.355l1.285-10.411a1.81,1.81,0,0,1,.427-1,1.554,1.554,0,0,1,1.058-.452l3.025-.225a8.724,8.724,0,0,1,1.979.051,3.719,3.719,0,0,1,1.407.5,2.543,2.543,0,0,1,.867.89,3.108,3.108,0,0,1,.358,1.294,3.052,3.052,0,0,1-.171,1.37,3.751,3.751,0,0,1-.631,1.126,3.8,3.8,0,0,1-1.012.844,6.076,6.076,0,0,1-1.251.577,2.2,2.2,0,0,1,1.174.716,3.774,3.774,0,0,1,.748,1.606Zm-2.425-7.386a1.381,1.381,0,0,0-.108-.438.807.807,0,0,0-.293-.347,1.616,1.616,0,0,0-.606-.216,4.251,4.251,0,0,0-.981-.026l-1.259.1-.4,3.224,1.191-.082a4.229,4.229,0,0,0,1.26-.259,2.141,2.141,0,0,0,.788-.483,1.445,1.445,0,0,0,.352-.671,2.324,2.324,0,0,0,.06-.8" transform="translate(495.592 128.02)" fill="#fff"/></g></svg>
