<svg xmlns="http://www.w3.org/2000/svg" width="333.935" height="146.682" viewBox="0 0 333.935 146.682">
  <g id="Group_176" data-name="Group 176" transform="translate(-911.768 -188.291)">
    <rect id="Rectangle_134" data-name="Rectangle 134" width="166.975" height="23.326" rx="11.663" transform="translate(1078.728 291.37)" fill="#003868"/>
    <g id="Group_171" data-name="Group 171" transform="translate(1080.392 206.474)">
      <path id="Path_373" data-name="Path 373" d="M1082.644,218.234V206.775h2.87a4.142,4.142,0,0,1,2.76.862,2.888,2.888,0,0,1,1.02,2.33,2.869,2.869,0,0,1-1.936,2.822,5.055,5.055,0,0,1,1.075.984,19.8,19.8,0,0,1,1.476,2.174q.6.977.96,1.468l.607.821h-1.952l-.5-.755a1.709,1.709,0,0,0-.1-.14l-.32-.452-.508-.837-.548-.894a9.049,9.049,0,0,0-.931-1.124,3.507,3.507,0,0,0-.764-.6,2.567,2.567,0,0,0-1.144-.185h-.428v4.988Zm2.132-10.065h-.492v3.617h.623a4.619,4.619,0,0,0,1.711-.213,1.609,1.609,0,0,0,.722-.643,1.876,1.876,0,0,0,.258-.981,1.754,1.754,0,0,0-.287-.98,1.537,1.537,0,0,0-.808-.619A5.836,5.836,0,0,0,1084.776,208.17Z" transform="translate(-1081.658 -206.611)" fill="#003868"/>
      <path id="Path_374" data-name="Path 374" d="M1094.712,206.775h6.5v1.46h-4.856v3.494h4.691V213.2h-4.691v3.559h5.011v1.46h-6.652Z" transform="translate(-1081.748 -206.611)" fill="#003868"/>
      <path id="Path_375" data-name="Path 375" d="M1105.086,218.218V206.775h3.863a8.149,8.149,0,0,1,3.7.7,5.287,5.287,0,0,1,2.166,2.064,5.735,5.735,0,0,1,.8,2.97,5.613,5.613,0,0,1-1.706,4.043,5.546,5.546,0,0,1-1.944,1.239,5.72,5.72,0,0,1-1.189.34,15.883,15.883,0,0,1-2.067.086Zm3.691-9.982h-2.052v8.522h2.1a8.388,8.388,0,0,0,1.911-.168,4.508,4.508,0,0,0,1.136-.427,3.862,3.862,0,0,0,.833-.636,4.243,4.243,0,0,0,1.214-3.108,3.975,3.975,0,0,0-2.3-3.724,4.438,4.438,0,0,0-1.128-.369A11.419,11.419,0,0,0,1108.777,208.235Z" transform="translate(-1081.825 -206.611)" fill="#003868"/>
      <path id="Path_376" data-name="Path 376" d="M1126.272,218.218V206.775h3.863a8.157,8.157,0,0,1,3.7.7,5.291,5.291,0,0,1,2.165,2.064,5.735,5.735,0,0,1,.8,2.97,5.649,5.649,0,0,1-3.65,5.282,5.724,5.724,0,0,1-1.189.34,15.9,15.9,0,0,1-2.068.086Zm3.691-9.982h-2.051v8.522h2.1a8.392,8.392,0,0,0,1.911-.168,4.5,4.5,0,0,0,1.136-.427,3.838,3.838,0,0,0,.833-.636,4.239,4.239,0,0,0,1.214-3.108,3.933,3.933,0,0,0-1.246-3.011,3.976,3.976,0,0,0-1.055-.714,4.429,4.429,0,0,0-1.128-.369A11.4,11.4,0,0,0,1129.963,208.235Z" transform="translate(-1081.982 -206.611)" fill="#003868"/>
      <path id="Path_377" data-name="Path 377" d="M1140.845,206.775h6.5v1.46h-4.856v3.494h4.691V213.2h-4.691v3.559h5.01v1.46h-6.651Z" transform="translate(-1082.09 -206.611)" fill="#003868"/>
      <path id="Path_378" data-name="Path 378" d="M1157.8,206.775h6.5v1.46h-4.856v3.494h4.691V213.2h-4.691v3.559h5.012v1.46H1157.8Z" transform="translate(-1082.215 -206.611)" fill="#003868"/>
      <path id="Path_379" data-name="Path 379" d="M1177.271,206.775h1.534v11.459h-1.65v-8.916l-3.523,4.429h-.3l-3.564-4.429v8.916h-1.641V206.775h1.553l3.808,4.706Z" transform="translate(-1082.292 -206.611)" fill="#003868"/>
      <path id="Path_380" data-name="Path 380" d="M1183.283,206.775h1.641v11.459h-1.641Z" transform="translate(-1082.404 -206.611)" fill="#003868"/>
      <path id="Path_381" data-name="Path 381" d="M1192.228,213.432l-1.247-.758a5.655,5.655,0,0,1-1.67-1.409,2.671,2.671,0,0,1-.5-1.6,2.816,2.816,0,0,1,.939-2.2,3.508,3.508,0,0,1,2.441-.846,4.622,4.622,0,0,1,2.633.806v1.862a3.8,3.8,0,0,0-2.666-1.191,2.2,2.2,0,0,0-1.321.371,1.129,1.129,0,0,0-.516.952,1.47,1.47,0,0,0,.38.965,4.821,4.821,0,0,0,1.224.943l1.254.741a3.671,3.671,0,0,1,2.1,3.188,2.922,2.922,0,0,1-.923,2.239,3.377,3.377,0,0,1-2.4.862,5.039,5.039,0,0,1-3.092-1.044v-2.083a3.859,3.859,0,0,0,3.076,1.683,1.933,1.933,0,0,0,1.283-.429,1.345,1.345,0,0,0,.512-1.075Q1193.736,214.37,1192.228,213.432Z" transform="translate(-1082.445 -206.61)" fill="#003868"/>
      <path id="Path_382" data-name="Path 382" d="M1204.659,206.61a6.165,6.165,0,0,1,4.423,1.681,5.578,5.578,0,0,1,1.766,4.217,5.487,5.487,0,0,1-1.783,4.195,6.337,6.337,0,0,1-4.5,1.662,5.977,5.977,0,0,1-4.316-1.662,5.54,5.54,0,0,1-1.725-4.163,5.658,5.658,0,0,1,1.738-4.248A6.061,6.061,0,0,1,1204.659,206.61Zm.067,1.558a4.448,4.448,0,0,0-3.234,1.23,4.193,4.193,0,0,0-1.266,3.142,4.117,4.117,0,0,0,1.269,3.085,4.716,4.716,0,0,0,6.379-.025,4.2,4.2,0,0,0,1.284-3.126,4.094,4.094,0,0,0-1.284-3.063A4.351,4.351,0,0,0,1204.726,208.168Z" transform="translate(-1082.517 -206.61)" fill="#003868"/>
      <path id="Path_383" data-name="Path 383" d="M1214.918,218.234V206.775h2.871a4.141,4.141,0,0,1,2.76.862,2.888,2.888,0,0,1,1.021,2.33,2.869,2.869,0,0,1-1.936,2.822,5.085,5.085,0,0,1,1.075.984,20,20,0,0,1,1.476,2.174q.6.977.96,1.468l.606.821H1221.8l-.5-.755c-.016-.028-.05-.073-.1-.14l-.32-.452-.508-.837-.549-.894a8.89,8.89,0,0,0-.931-1.124,3.5,3.5,0,0,0-.763-.6,2.574,2.574,0,0,0-1.146-.185h-.427v4.988Zm2.133-10.065h-.492v3.617h.623a4.61,4.61,0,0,0,1.71-.213,1.6,1.6,0,0,0,.722-.643,1.869,1.869,0,0,0,.259-.981,1.746,1.746,0,0,0-.288-.98,1.529,1.529,0,0,0-.808-.619A5.824,5.824,0,0,0,1217.051,208.17Z" transform="translate(-1082.639 -206.611)" fill="#003868"/>
      <path id="Path_384" data-name="Path 384" d="M1230.636,206.709h1.152l5.139,11.525h-1.679l-1.527-3.4h-4.889l-1.431,3.4h-1.686Zm2.41,6.668-1.849-4.15-1.714,4.15Z" transform="translate(-1082.719 -206.611)" fill="#003868"/>
      <path id="Path_385" data-name="Path 385" d="M1243,213.432l-1.247-.758a5.653,5.653,0,0,1-1.67-1.409,2.664,2.664,0,0,1-.5-1.6,2.816,2.816,0,0,1,.939-2.2,3.508,3.508,0,0,1,2.441-.846,4.622,4.622,0,0,1,2.633.806v1.862a3.8,3.8,0,0,0-2.667-1.191,2.2,2.2,0,0,0-1.32.371,1.13,1.13,0,0,0-.517.952,1.472,1.472,0,0,0,.381.965,4.823,4.823,0,0,0,1.224.943l1.254.741a3.671,3.671,0,0,1,2.1,3.188,2.922,2.922,0,0,1-.923,2.239,3.377,3.377,0,0,1-2.4.862,5.037,5.037,0,0,1-3.092-1.044v-2.083a3.859,3.859,0,0,0,3.075,1.683,1.934,1.934,0,0,0,1.284-.429,1.345,1.345,0,0,0,.512-1.075Q1244.513,214.37,1243,213.432Z" transform="translate(-1082.822 -206.61)" fill="#003868"/>
      <path id="Path_386" data-name="Path 386" d="M1111.217,251.1h-7.666V236.371l-6.915,8.528h-.606l-6.933-8.528V251.1h-7.446V225.677h6.951l7.814,9.539,7.85-9.539h6.951Z" transform="translate(-1081.651 -206.751)" fill="#003868"/>
      <path id="Path_387" data-name="Path 387" d="M1125.572,251.1h-7.666V225.677h7.666Z" transform="translate(-1081.92 -206.751)" fill="#003868"/>
      <path id="Path_388" data-name="Path 388" d="M1159.626,251.1H1152.8l-13.188-14.159V251.1h-7.593V225.677h6.8l13.151,14.087V225.677h7.649Z" transform="translate(-1082.024 -206.751)" fill="#003868"/>
      <path id="Path_389" data-name="Path 389" d="M1191.988,239.709a11.753,11.753,0,0,1-1.22,5.566,9.769,9.769,0,0,1-3.228,3.641,13.877,13.877,0,0,1-4.329,1.927,18.885,18.885,0,0,1-4.631.587,18.4,18.4,0,0,1-6.282-1.1,11.162,11.162,0,0,1-5.108-3.741,10.885,10.885,0,0,1-2.055-6.879V225.677h7.649v12.051a10.327,10.327,0,0,0,.725,4.155,5.022,5.022,0,0,0,2.018,2.4,6.413,6.413,0,0,0,6.043.01,4.963,4.963,0,0,0,2.027-2.384,10.261,10.261,0,0,0,.725-4.146V225.677h7.667Z" transform="translate(-1082.27 -206.751)" fill="#003868"/>
      <path id="Path_390" data-name="Path 390" d="M1219.887,231.859h-9.317V251.1h-7.648v-19.24H1193.6v-6.182h26.284Z" transform="translate(-1082.481 -206.751)" fill="#003868"/>
      <path id="Path_391" data-name="Path 391" d="M1247.731,238.368a13.387,13.387,0,0,1-1.642,6.548,11.862,11.862,0,0,1-4.887,4.751,16.383,16.383,0,0,1-7.905,1.761,16.072,16.072,0,0,1-7.979-1.834,11.931,11.931,0,0,1-4.852-4.824,13.762,13.762,0,0,1-.009-12.811,11.82,11.82,0,0,1,4.852-4.806,16.189,16.189,0,0,1,7.988-1.825,17.628,17.628,0,0,1,6.281,1.046,12.567,12.567,0,0,1,4.539,2.834,11.932,11.932,0,0,1,2.7,4.163A13.761,13.761,0,0,1,1247.731,238.368Zm-7.814,0a7.72,7.72,0,0,0-.422-2.613,5.564,5.564,0,0,0-1.275-2.055,5.9,5.9,0,0,0-2.082-1.357,7.678,7.678,0,0,0-2.842-.486,6.528,6.528,0,1,0,0,13.041,7.23,7.23,0,0,0,3.594-.835,5.543,5.543,0,0,0,2.256-2.311A7.2,7.2,0,0,0,1239.917,238.368Z" transform="translate(-1082.668 -206.749)" fill="#003868"/>
      <path id="Path_392" data-name="Path 392" d="M1110.04,273.449a12.647,12.647,0,0,1-1.486,6.558,14.039,14.039,0,0,1-3.5,4.007q-2.857,2.244-8,2.243h-14.343V259.682h11.045a30.229,30.229,0,0,1,4.266.258,18.916,18.916,0,0,1,3.193.729,12.77,12.77,0,0,1,2.416,1.055,12.427,12.427,0,0,1,1.783,1.256,12.224,12.224,0,0,1,2.387,2.627,12.891,12.891,0,0,1,1.631,3.509A14.917,14.917,0,0,1,1110.04,273.449Zm-8.149-.345a8.884,8.884,0,0,0-1.237-5.052,6.067,6.067,0,0,0-2.972-2.426,10.547,10.547,0,0,0-3.539-.613h-3.412v15.742h3.412a9.763,9.763,0,0,0,5.445-1.5Q1101.891,277.764,1101.891,273.1Z" transform="translate(-1081.659 -207.003)" fill="#003868"/>
      <path id="Path_393" data-name="Path 393" d="M1133.959,286.258h-20.037V259.682h19.712v5.33h-11.7v4.871h11.16v5.35h-11.16v5.675h12.022Z" transform="translate(-1081.89 -207.003)" fill="#003868"/>
      <path id="Path_394" data-name="Path 394" d="M1178.588,273.449a12.648,12.648,0,0,1-1.486,6.558,14.041,14.041,0,0,1-3.5,4.007q-2.857,2.244-8,2.243h-14.343V259.682h11.045a30.228,30.228,0,0,1,4.266.258,18.914,18.914,0,0,1,3.193.729,12.765,12.765,0,0,1,2.416,1.055,12.373,12.373,0,0,1,1.783,1.256,12.247,12.247,0,0,1,2.388,2.627,12.915,12.915,0,0,1,1.63,3.509A14.917,14.917,0,0,1,1178.588,273.449Zm-8.149-.345a8.885,8.885,0,0,0-1.237-5.052,6.068,6.068,0,0,0-2.972-2.426,10.548,10.548,0,0,0-3.539-.613h-3.412v15.742h3.412a9.769,9.769,0,0,0,5.446-1.5Q1170.438,277.764,1170.439,273.1Z" transform="translate(-1082.167 -207.003)" fill="#003868"/>
      <path id="Path_395" data-name="Path 395" d="M1190.564,286.258h-8.015V259.682h8.015Z" transform="translate(-1082.399 -207.003)" fill="#003868"/>
      <path id="Path_396" data-name="Path 396" d="M1224.385,272.948a14,14,0,0,1-1.716,6.845,12.407,12.407,0,0,1-5.111,4.967,17.129,17.129,0,0,1-8.264,1.84,16.792,16.792,0,0,1-8.341-1.918,12.461,12.461,0,0,1-5.072-5.042,14.392,14.392,0,0,1-.009-13.394,12.348,12.348,0,0,1,5.072-5.023,16.927,16.927,0,0,1,8.35-1.909,18.456,18.456,0,0,1,6.568,1.094,13.14,13.14,0,0,1,4.745,2.963,12.467,12.467,0,0,1,2.819,4.353A14.375,14.375,0,0,1,1224.385,272.948Zm-8.168,0a8.092,8.092,0,0,0-.442-2.733,5.838,5.838,0,0,0-1.333-2.148,6.194,6.194,0,0,0-2.176-1.418,8.05,8.05,0,0,0-2.973-.508,6.825,6.825,0,1,0,0,13.633,7.556,7.556,0,0,0,3.759-.872,5.809,5.809,0,0,0,2.358-2.416A7.534,7.534,0,0,0,1216.217,272.948Z" transform="translate(-1082.485 -207.001)" fill="#003868"/>
      <path id="Path_397" data-name="Path 397" d="M1246.346,278.528a7.334,7.334,0,0,1-1.276,4.315,8.064,8.064,0,0,1-3.557,2.79,13.3,13.3,0,0,1-5.234.968q-.825,0-2.024-.105a22.875,22.875,0,0,1-3.182-.585,24.885,24.885,0,0,1-4.132-1.419v-6.519a28.952,28.952,0,0,0,3.959,2.071,10.573,10.573,0,0,0,4.171.825q2.052,0,2.655-.681a1.992,1.992,0,0,0,.6-1.275,2.172,2.172,0,0,0-1.036-1.812,14.738,14.738,0,0,0-3.01-1.525,23.75,23.75,0,0,1-3.834-2,9.066,9.066,0,0,1-2.694-2.713,6.983,6.983,0,0,1-1.045-3.854,7.053,7.053,0,0,1,4.276-6.653,12.214,12.214,0,0,1,5.292-1.036,18.518,18.518,0,0,1,4.113.432,17.825,17.825,0,0,1,3.116.969,12.505,12.505,0,0,1,1.687.843v6.232a21.893,21.893,0,0,0-3.634-2.089,10.132,10.132,0,0,0-4.286-.92,3.309,3.309,0,0,0-2.167.575,1.8,1.8,0,0,0-.671,1.418,1.744,1.744,0,0,0,.671,1.362,11.734,11.734,0,0,0,2.4,1.4,47.866,47.866,0,0,1,4.908,2.589,9.683,9.683,0,0,1,2.886,2.656A6.414,6.414,0,0,1,1246.346,278.528Z" transform="translate(-1082.726 -207.001)" fill="#003868"/>
    </g>
    <g id="Group_174" data-name="Group 174" transform="translate(911.768 188.291)">
      <g id="Group_172" data-name="Group 172" transform="translate(0 18.523)">
        <path id="Path_398" data-name="Path 398" d="M919.585,206.952h123.264a7.934,7.934,0,0,1,7.818,8v92a7.935,7.935,0,0,1-7.818,8H919.585a7.934,7.934,0,0,1-7.817-8v-92a7.933,7.933,0,0,1,7.817-8" transform="translate(-911.768 -206.952)" fill="#003868" fill-rule="evenodd"/>
        <path id="Path_399" data-name="Path 399" d="M929.3,235.167V289.3h16.432V263.955l11.9,14.405,11.572-14.973V289.3H1014.4c35.637-6.148,27.918-54.137-2.938-54.137H969.79l-12.08,18.641-12.565-18.641Zm73.946,13.246c23.052-.953,19.7,29.756,0,26.491Z" transform="translate(-911.898 -207.161)" fill="#ffb900" fill-rule="evenodd"/>
      </g>
      <g id="Group_173" data-name="Group 173" transform="translate(23.78)">
        <path id="Path_400" data-name="Path 400" d="M979.756,192.844l-1.279,1.367-.295.928-2.085.247-.522,6.141,1.4.724-.544.493,2.678.374.168,10.636,1.053.012-.226,17.112-9.794,5.062-3.608,3.2-3.87,3.148-9.1,7.342-5.774,3.861-10.614,6.789c-2.588,1.016-2.376,8.308,2.956,6.956L953.41,259.1l15.878-10.374.643-2.392,9.788-6.16.7,14.051,1.095,22.231,1.347,2.379.516,42.508.269,11.868,1.74,1.068c1.838.752,6.779,1.159,6.548-.1l-.369-15.106.014-19.743-.855-.9-.356-23.908-1.05-1.118L989.3,262.5l-1.872-2.746L987.3,237.16l3.051-1.03,21.586-15.661,16.6-11.756,2.558-2.321.393-1.12-1.97-3.821-1.74-.3-10.136,6.766-7.808,5.406-2.493,1.874-3.477,1.9-4.691,3.039L987.4,228.462l-.007-12.262L987,191.755l-.36-.88-4.852,1.03Z" transform="translate(-935.726 -188.31)" fill="#00356b" fill-rule="evenodd"/>
        <path id="Path_401" data-name="Path 401" d="M981.008,190.262l-1.278,1.365-.295.929-2.085.246-.522,6.141,1.4.725-.543.493,2.677.373.169,10.637,1.053.011-.227,17.113-9.793,5.063-3.608,3.2-3.871,3.148-9.1,7.341-5.774,3.862L938.591,257.7c-2.588,1.018-2.376,8.308,2.957,6.956l13.114-8.134,15.877-10.374.643-2.394,9.789-6.158.7,14.049,1.1,22.232,1.347,2.38.515,42.506.269,11.87,1.741,1.066c1.837.754,6.778,1.159,6.548-.1l-.369-15.106.014-19.742-.855-.9-.356-23.91-1.051-1.116-.018-10.912-1.872-2.747-.122-22.59,3.052-1.03,21.585-15.662,16.6-11.757,2.559-2.319.392-1.122-1.97-3.82-1.741-.3-10.136,6.766-7.808,5.4-2.492,1.874-3.478,1.9-4.691,3.041-11.778,8.333-.006-12.262-.385-24.446-.361-.88-4.851,1.03Z" transform="translate(-935.735 -188.291)" fill="#fff" fill-rule="evenodd"/>
      </g>
    </g>
    <g id="Group_175" data-name="Group 175" transform="translate(1086.676 297.008)">
      <path id="Path_402" data-name="Path 402" d="M1102,308.7h-2.782v-4.2a2.274,2.274,0,0,0-.275-1.248.967.967,0,0,0-.87-.414,1.329,1.329,0,0,0-.95.351,5.76,5.76,0,0,0-.742.885V308.7H1093.6v-4.2a2.435,2.435,0,0,0-.255-1.229.96.96,0,0,0-.9-.433,1.3,1.3,0,0,0-.567.124,1.6,1.6,0,0,0-.422.278,4.031,4.031,0,0,0-.394.457c-.155.2-.252.327-.294.378V308.7h-2.782v-7.867h2.782v1.129a4.217,4.217,0,0,1,1.275-.966,3.515,3.515,0,0,1,1.5-.3,3.955,3.955,0,0,1,.765.072,2.822,2.822,0,0,1,.715.252,2.255,2.255,0,0,1,.637.486,2.4,2.4,0,0,1,.457.72,5.133,5.133,0,0,1,1.395-1.144,3.472,3.472,0,0,1,1.666-.386,3.048,3.048,0,0,1,1.58.378,2.271,2.271,0,0,1,.943,1.094A4.413,4.413,0,0,1,1102,303.9Z" transform="translate(-1087.982 -297.841)" fill="#fff"/>
      <path id="Path_403" data-name="Path 403" d="M1107.818,308.678h-2.79v-7.867h2.79Zm-.224-9.684a1.11,1.11,0,0,1-.348.827,1.17,1.17,0,0,1-1.839-.235,1.158,1.158,0,0,1-.155-.592,1.14,1.14,0,0,1,.34-.827,1.114,1.114,0,0,1,.827-.347,1.187,1.187,0,0,1,1.174,1.174Z" transform="translate(-1088.109 -297.82)" fill="#fff"/>
      <path id="Path_404" data-name="Path 404" d="M1119.287,308.7h-2.782v-4.242a2.808,2.808,0,0,0-.212-1.133.907.907,0,0,0-.932-.483,1.334,1.334,0,0,0-.6.128,1.757,1.757,0,0,0-.464.329,3.45,3.45,0,0,0-.344.386q-.138.186-.286.394V308.7h-2.782v-7.867h2.782v1.129a4.01,4.01,0,0,1,1.317-.986,3.73,3.73,0,0,1,1.473-.282q2.829,0,2.829,3.385Z" transform="translate(-1088.152 -297.841)" fill="#fff"/>
      <path id="Path_405" data-name="Path 405" d="M1130.431,308.7h-2.782V307.58a4.2,4.2,0,0,1-1.236.947,3.529,3.529,0,0,1-1.553.313q-1.782,0-2.3-1.039a5.139,5.139,0,0,1-.524-2.345v-4.622h2.782v4.25a2.767,2.767,0,0,0,.212,1.125.9.9,0,0,0,.926.483,1.326,1.326,0,0,0,.969-.348,5.919,5.919,0,0,0,.729-.888v-4.622h2.782Z" transform="translate(-1088.234 -297.842)" fill="#fff"/>
      <path id="Path_406" data-name="Path 406" d="M1139.609,308.227a6.579,6.579,0,0,1-1.194.4,5.949,5.949,0,0,1-1.456.193q-3.008,0-3.006-2.936v-3.138h-1.26v-.487l3.732-3.8h.318v2.357h2.658v1.933h-2.658v2.519a3.789,3.789,0,0,0,.054.711.728.728,0,0,0,.3.453,1.306,1.306,0,0,0,.762.182,4.116,4.116,0,0,0,1.746-.557Z" transform="translate(-1088.313 -297.825)" fill="#fff"/>
      <path id="Path_407" data-name="Path 407" d="M1150.692,304.758a4.239,4.239,0,0,1-.51,2.094,3.6,3.6,0,0,1-1.526,1.453,6.02,6.02,0,0,1-4.953,0,3.578,3.578,0,0,1-1.523-1.453,4.268,4.268,0,0,1-.506-2.094,4.44,4.44,0,0,1,.282-1.615,3.593,3.593,0,0,1,.858-1.286,3.866,3.866,0,0,1,1.418-.862,5.758,5.758,0,0,1,1.948-.3,5.847,5.847,0,0,1,1.966.3,3.83,3.83,0,0,1,1.415.855,3.613,3.613,0,0,1,.846,1.282A4.445,4.445,0,0,1,1150.692,304.758Zm-2.929,0a2.352,2.352,0,0,0-.406-1.464,1.569,1.569,0,0,0-2.349,0,2.846,2.846,0,0,0,0,2.933,1.545,1.545,0,0,0,2.345,0A2.39,2.39,0,0,0,1147.762,304.758Z" transform="translate(-1088.38 -297.841)" fill="#fff"/>
      <path id="Path_408" data-name="Path 408" d="M1161.652,308.679h-2.79v-.711a4.556,4.556,0,0,1-.931.61,3.14,3.14,0,0,1-1.356.239,3.655,3.655,0,0,1-1.685-.425,3.362,3.362,0,0,1-1.36-1.326A4.389,4.389,0,0,1,1153,304.8a5.079,5.079,0,0,1,.4-2.014,3.47,3.47,0,0,1,1.261-1.526,3.625,3.625,0,0,1,2.1-.588,3.831,3.831,0,0,1,1.253.17,3.467,3.467,0,0,1,.85.433v-3.307h2.79Zm-2.79-2.5v-3.007q-.487-.271-.76-.387a1.674,1.674,0,0,0-.646-.115,1.341,1.341,0,0,0-1.094.556,2.4,2.4,0,0,0-.436,1.515,2.128,2.128,0,0,0,.46,1.52,1.448,1.448,0,0,0,1.07.474,1.777,1.777,0,0,0,.812-.159A3.233,3.233,0,0,0,1158.862,306.176Z" transform="translate(-1088.464 -297.821)" fill="#fff"/>
      <path id="Path_409" data-name="Path 409" d="M1172.674,305.438h-5.542a1.944,1.944,0,0,0,.8,1.175,2.4,2.4,0,0,0,1.438.456,7.461,7.461,0,0,0,3.107-.788V308a8.4,8.4,0,0,1-1.481.577,7.945,7.945,0,0,1-2.214.258,5.227,5.227,0,0,1-2.474-.541,3.615,3.615,0,0,1-1.527-1.468,4.315,4.315,0,0,1-.505-2.1,4.222,4.222,0,0,1,.505-2.076,3.533,3.533,0,0,1,1.527-1.437,5.389,5.389,0,0,1,2.474-.521,4.37,4.37,0,0,1,1.851.413,3.392,3.392,0,0,1,1.468,1.353,4.573,4.573,0,0,1,.576,2.423Zm-2.613-1.375a1.841,1.841,0,0,0-.374-1.21,1.323,1.323,0,0,0-1.078-.452,1.468,1.468,0,0,0-1.125.46,1.7,1.7,0,0,0-.428,1.2Z" transform="translate(-1088.548 -297.841)" fill="#fff"/>
      <path id="Path_410" data-name="Path 410" d="M1183.552,308.679h-2.79v-.711a4.556,4.556,0,0,1-.931.61,3.144,3.144,0,0,1-1.356.239,3.655,3.655,0,0,1-1.685-.425,3.364,3.364,0,0,1-1.36-1.326,4.391,4.391,0,0,1-.533-2.267,5.079,5.079,0,0,1,.4-2.014,3.471,3.471,0,0,1,1.261-1.526,3.625,3.625,0,0,1,2.1-.588,3.831,3.831,0,0,1,1.253.17,3.47,3.47,0,0,1,.85.433v-3.307h2.79Zm-2.79-2.5v-3.007q-.487-.271-.76-.387a1.673,1.673,0,0,0-.646-.115,1.341,1.341,0,0,0-1.094.556,2.4,2.4,0,0,0-.437,1.515,2.128,2.128,0,0,0,.46,1.52,1.449,1.449,0,0,0,1.07.474,1.777,1.777,0,0,0,.812-.159A3.234,3.234,0,0,0,1180.762,306.176Z" transform="translate(-1088.626 -297.821)" fill="#fff"/>
      <path id="Path_411" data-name="Path 411" d="M1189.438,308.678h-2.789v-7.867h2.789Zm-.224-9.684a1.111,1.111,0,0,1-.347.827,1.139,1.139,0,0,1-.827.34,1.151,1.151,0,0,1-.591-.155,1.137,1.137,0,0,1-.422-.421,1.157,1.157,0,0,1-.155-.592,1.14,1.14,0,0,1,.341-.827,1.116,1.116,0,0,1,.827-.347,1.186,1.186,0,0,1,1.174,1.174Z" transform="translate(-1088.713 -297.82)" fill="#fff"/>
      <path id="Path_412" data-name="Path 412" d="M1201.191,304.758a4.238,4.238,0,0,1-.51,2.094,3.606,3.606,0,0,1-1.526,1.453,6.02,6.02,0,0,1-4.953,0,3.586,3.586,0,0,1-1.524-1.453,4.279,4.279,0,0,1-.505-2.094,4.417,4.417,0,0,1,.282-1.615,3.579,3.579,0,0,1,.857-1.286,3.858,3.858,0,0,1,1.418-.862,5.75,5.75,0,0,1,1.948-.3,5.851,5.851,0,0,1,1.966.3,3.83,3.83,0,0,1,1.415.855,3.627,3.627,0,0,1,.846,1.282A4.445,4.445,0,0,1,1201.191,304.758Zm-2.929,0a2.352,2.352,0,0,0-.406-1.464,1.569,1.569,0,0,0-2.349,0,2.846,2.846,0,0,0,0,2.933,1.545,1.545,0,0,0,2.345,0A2.39,2.39,0,0,0,1198.261,304.758Z" transform="translate(-1088.754 -297.841)" fill="#fff"/>
      <path id="Path_413" data-name="Path 413" d="M1209.981,306.4a2.2,2.2,0,0,1-.792,1.758,3.545,3.545,0,0,1-2.353.676,6.838,6.838,0,0,1-1.553-.159,12.643,12.643,0,0,1-1.484-.452V306.25a10.284,10.284,0,0,0,1.221.61,3.016,3.016,0,0,0,1.136.208c.695,0,1.043-.19,1.043-.572a.47.47,0,0,0-.151-.343,2.11,2.11,0,0,0-.526-.34q-.374-.189-1-.452a4.007,4.007,0,0,1-1.313-.912,1.961,1.961,0,0,1-.541-1.4,2,2,0,0,1,.359-1.129,2.581,2.581,0,0,1,1.086-.884,4.055,4.055,0,0,1,1.754-.344c.165,0,.375.011.629.035a6.443,6.443,0,0,1,.967.182,5.12,5.12,0,0,1,1.109.417v1.925c-.165-.1-.3-.181-.413-.247a4.193,4.193,0,0,0-1.1-.445,3.065,3.065,0,0,0-.769-.1.9.9,0,0,0-.657.186.544.544,0,0,0-.178.37.482.482,0,0,0,.186.359,3.072,3.072,0,0,0,.827.414,7.531,7.531,0,0,1,1.484.73,2.348,2.348,0,0,1,.793.824A2.249,2.249,0,0,1,1209.981,306.4Z" transform="translate(-1088.839 -297.841)" fill="#fff"/>
      <path id="Path_414" data-name="Path 414" d="M1215.666,307.213a1.618,1.618,0,0,1-.474,1.178,1.579,1.579,0,0,1-1.171.483,1.626,1.626,0,0,1-1.183-.486,1.648,1.648,0,0,1,0-2.353,1.662,1.662,0,0,1,2.006-.259,1.607,1.607,0,0,1,.606.6A1.659,1.659,0,0,1,1215.666,307.213Z" transform="translate(-1088.904 -297.877)" fill="#fff"/>
      <path id="Path_415" data-name="Path 415" d="M1223.52,299.961a4.755,4.755,0,0,0-1.028-.147.875.875,0,0,0-.7.293,1.253,1.253,0,0,0-.25.835v.279h1.406v1.885h-1.406v5.572h-2.79v-5.572h-1.283v-1.885h1.283v-.139a3.892,3.892,0,0,1,.321-1.565,2.729,2.729,0,0,1,1.07-1.217,3.629,3.629,0,0,1,1.979-.479,6.8,6.8,0,0,1,1.4.147Z" transform="translate(-1088.942 -297.82)" fill="#fff"/>
      <path id="Path_416" data-name="Path 416" d="M1239.276,308.7h-2.782v-4.2a2.277,2.277,0,0,0-.275-1.248.966.966,0,0,0-.869-.414,1.332,1.332,0,0,0-.951.351,5.759,5.759,0,0,0-.742.885V308.7h-2.782v-4.2a2.445,2.445,0,0,0-.255-1.229.96.96,0,0,0-.9-.433,1.3,1.3,0,0,0-.568.124,1.613,1.613,0,0,0-.422.278,4.119,4.119,0,0,0-.394.457c-.155.2-.252.327-.294.378V308.7h-2.782v-7.867h2.782v1.129a4.226,4.226,0,0,1,1.275-.966,3.514,3.514,0,0,1,1.5-.3,3.955,3.955,0,0,1,.765.072,2.819,2.819,0,0,1,.715.252,2.261,2.261,0,0,1,.638.486,2.4,2.4,0,0,1,.456.72,5.145,5.145,0,0,1,1.395-1.144,3.475,3.475,0,0,1,1.666-.386,3.046,3.046,0,0,1,1.58.378,2.266,2.266,0,0,1,.943,1.094,4.393,4.393,0,0,1,.306,1.735Z" transform="translate(-1088.999 -297.841)" fill="#fff"/>
    </g>
  </g>
</svg>
