<svg xmlns="http://www.w3.org/2000/svg" width="350" height="78.75" viewBox="0 0 384.093 86.31"><g transform="translate(0.5)"><rect width="194.398" height="16.91" rx="4.821" transform="translate(146.125 55.904)" fill="#fff"/><g transform="translate(101.365 11.358)"><path d="M32.706,521.253a6.748,6.748,0,0,1-1.139.447,7.436,7.436,0,0,1-1.176.24,10.328,10.328,0,0,1-1.229.072,6.6,6.6,0,0,1-2.1-.312,4.578,4.578,0,0,1-1.612-.917,3.878,3.878,0,0,1-1.024-1.419,4.568,4.568,0,0,1-.34-1.782,4.453,4.453,0,0,1,.4-1.951,3.785,3.785,0,0,1,1.123-1.391,4.908,4.908,0,0,1,1.645-.817,7.01,7.01,0,0,1,1.946-.265,11,11,0,0,1,3.463.654V516.1a9.682,9.682,0,0,0-1.318-.663,4.06,4.06,0,0,0-1.53-.263,3.574,3.574,0,0,0-1.462.3,2.66,2.66,0,0,0-1.1.853,2.19,2.19,0,0,0-.051,2.49,2.519,2.519,0,0,0,1.006.865,3.215,3.215,0,0,0,1.453.321,4.854,4.854,0,0,0,1.236-.153,5.77,5.77,0,0,0,.982-.339,9.136,9.136,0,0,0,.82-.442Z" transform="translate(-24.087 -510.716)" fill="#fff"/><path d="M39.569,517.582a4.388,4.388,0,0,1-.581,2.22,4.1,4.1,0,0,1-1.725,1.612,5.976,5.976,0,0,1-2.79.6,5.867,5.867,0,0,1-2.817-.623,4.151,4.151,0,0,1-1.714-1.636,4.519,4.519,0,0,1,0-4.346,4.126,4.126,0,0,1,1.714-1.629,5.908,5.908,0,0,1,2.821-.619,6.505,6.505,0,0,1,2.218.354,4.494,4.494,0,0,1,1.6.963,4.033,4.033,0,0,1,.949,1.412A4.472,4.472,0,0,1,39.569,517.582Zm-2.759,0a2.5,2.5,0,0,0-.15-.886,1.877,1.877,0,0,0-.449-.7,2.115,2.115,0,0,0-.734-.46,2.857,2.857,0,0,0-1-.165,2.336,2.336,0,0,0-1.711.61,2.361,2.361,0,0,0,0,3.2,2.33,2.33,0,0,0,1.707.614,2.635,2.635,0,0,0,1.269-.284,1.9,1.9,0,0,0,.8-.784A2.367,2.367,0,0,0,36.81,517.582Z" transform="translate(-19.714 -510.716)" fill="#fff"/><path d="M44.326,521.849H41.419l-.707-1.531a6.3,6.3,0,0,0-.7-1.228,1.487,1.487,0,0,0-.6-.5,2.254,2.254,0,0,0-.761-.109h-.3v3.366H35.637v-8.622h4.6a3.461,3.461,0,0,1,1.826.435,2.667,2.667,0,0,1,1.028,1.058,2.638,2.638,0,0,1,.312,1.182,2.155,2.155,0,0,1-.261,1.1,2.006,2.006,0,0,1-.553.656,5.519,5.519,0,0,1-.654.393,2.554,2.554,0,0,1,.714.575,7.016,7.016,0,0,1,.767,1.347Zm-3.677-5.9a.879.879,0,0,0-.409-.833,2.768,2.768,0,0,0-1.326-.237h-.571v2.078h.582a3.044,3.044,0,0,0,1.358-.209A.84.84,0,0,0,40.649,515.951Z" transform="translate(-14.55 -510.665)" fill="#fff"/><path d="M48.84,515.939a2.634,2.634,0,0,1-.172.937,2.47,2.47,0,0,1-.553.853,2.762,2.762,0,0,1-1.033.64,4.341,4.341,0,0,1-1.532.245H43.778v3.236H41.07v-8.622h4.48a4.258,4.258,0,0,1,1.532.249,2.761,2.761,0,0,1,1.033.645,2.5,2.5,0,0,1,.553.865A2.735,2.735,0,0,1,48.84,515.939Zm-2.759.012a.9.9,0,0,0-.378-.842,2.834,2.834,0,0,0-1.357-.228h-.57v2.078h.582a5.134,5.134,0,0,0,1.035-.081.853.853,0,0,0,.524-.3A1.031,1.031,0,0,0,46.082,515.951Z" transform="translate(-10.063 -510.665)" fill="#fff"/><path d="M56.016,517.582a4.386,4.386,0,0,1-.579,2.22,4.114,4.114,0,0,1-1.727,1.612,5.971,5.971,0,0,1-2.79.6,5.872,5.872,0,0,1-2.817-.623,4.146,4.146,0,0,1-1.713-1.636,4.506,4.506,0,0,1,0-4.346,4.11,4.11,0,0,1,1.713-1.629,5.913,5.913,0,0,1,2.821-.619,6.506,6.506,0,0,1,2.218.354,4.494,4.494,0,0,1,1.6.963,4.033,4.033,0,0,1,.949,1.412A4.437,4.437,0,0,1,56.016,517.582Zm-2.759,0a2.5,2.5,0,0,0-.15-.886,1.832,1.832,0,0,0-.449-.7,2.115,2.115,0,0,0-.734-.46,2.85,2.85,0,0,0-1-.165,2.331,2.331,0,0,0-1.709.61,2.361,2.361,0,0,0,0,3.2,2.325,2.325,0,0,0,1.705.614,2.63,2.63,0,0,0,1.269-.284,1.9,1.9,0,0,0,.8-.784A2.347,2.347,0,0,0,53.257,517.582Z" transform="translate(-6.133 -510.716)" fill="#fff"/><path d="M60.848,521.849H57.939l-.707-1.531a6.221,6.221,0,0,0-.7-1.228,1.5,1.5,0,0,0-.6-.5,2.269,2.269,0,0,0-.761-.109h-.3v3.366H52.157v-8.622h4.6a3.461,3.461,0,0,1,1.826.435,2.67,2.67,0,0,1,1.34,2.24,2.155,2.155,0,0,1-.263,1.1,2,2,0,0,1-.551.656,5.7,5.7,0,0,1-.655.393,2.562,2.562,0,0,1,.716.575,7.221,7.221,0,0,1,.767,1.347Zm-3.679-5.9a.881.881,0,0,0-.407-.833,2.781,2.781,0,0,0-1.327-.237h-.57v2.078h.582a3.04,3.04,0,0,0,1.357-.209A.837.837,0,0,0,57.169,515.951Z" transform="translate(-0.908 -510.665)" fill="#fff"/><path d="M67.927,521.849H65.155l-.732-1.749h-3.9l-.743,1.749H57.009l3.971-8.622h2.991ZM63.8,518.6l-1.313-3.147L61.159,518.6Z" transform="translate(3.098 -510.665)" fill="#fff"/><path d="M71.766,521.253a6.63,6.63,0,0,1-1.139.447,7.457,7.457,0,0,1-1.174.24,10.35,10.35,0,0,1-1.229.072,6.609,6.609,0,0,1-2.1-.312,4.578,4.578,0,0,1-1.612-.917,3.873,3.873,0,0,1-1.022-1.419,4.569,4.569,0,0,1-.341-1.782,4.479,4.479,0,0,1,.4-1.951,3.822,3.822,0,0,1,1.123-1.391,4.934,4.934,0,0,1,1.647-.817,7,7,0,0,1,1.944-.265,11,11,0,0,1,3.465.654V516.1a9.9,9.9,0,0,0-1.318-.663,4.07,4.07,0,0,0-1.532-.263,3.58,3.58,0,0,0-1.462.3,2.654,2.654,0,0,0-1.094.853,2.09,2.09,0,0,0-.416,1.294,2.119,2.119,0,0,0,.363,1.2,2.531,2.531,0,0,0,1.006.865A3.217,3.217,0,0,0,68.73,520a4.865,4.865,0,0,0,1.236-.153,5.827,5.827,0,0,0,.982-.339,9.111,9.111,0,0,0,.818-.442Z" transform="translate(8.167 -510.716)" fill="#fff"/><path d="M71.578,521.849H68.872v-8.622h2.706Z" transform="translate(12.894 -510.665)" fill="#fff"/><path d="M81.463,518.633a4.385,4.385,0,0,1-.579,2.22,4.107,4.107,0,0,1-1.725,1.612,5.978,5.978,0,0,1-2.792.6,5.873,5.873,0,0,1-2.817-.623,4.145,4.145,0,0,1-1.713-1.636,4.506,4.506,0,0,1,0-4.346,4.12,4.12,0,0,1,1.713-1.629,5.913,5.913,0,0,1,2.821-.619,6.5,6.5,0,0,1,2.218.354,4.462,4.462,0,0,1,1.6.963,4.036,4.036,0,0,1,.951,1.412A4.47,4.47,0,0,1,81.463,518.633Zm-2.757,0a2.542,2.542,0,0,0-.15-.886,1.858,1.858,0,0,0-.451-.7,2.114,2.114,0,0,0-.734-.46,2.847,2.847,0,0,0-1-.165,2.331,2.331,0,0,0-1.709.61,2.361,2.361,0,0,0,0,3.2,2.325,2.325,0,0,0,1.705.614,2.644,2.644,0,0,0,1.271-.284,1.894,1.894,0,0,0,.794-.784A2.348,2.348,0,0,0,78.706,518.633Zm.166-6.867-2.388,1.971H75.241l1.114-1.971Z" transform="translate(14.88 -511.766)" fill="#fff"/><path d="M87.416,521.849h-2.41l-4.654-4.8v4.8H77.67v-8.622h2.4L84.714,518v-4.778h2.7Z" transform="translate(20.159 -510.665)" fill="#fff"/><path d="M94.7,521.253a6.631,6.631,0,0,1-1.139.447,7.437,7.437,0,0,1-1.176.24,10.328,10.328,0,0,1-1.229.072,6.605,6.605,0,0,1-2.1-.312,4.578,4.578,0,0,1-1.612-.917,3.873,3.873,0,0,1-1.022-1.419,4.569,4.569,0,0,1-.341-1.782,4.453,4.453,0,0,1,.4-1.951,3.785,3.785,0,0,1,1.123-1.391,4.925,4.925,0,0,1,1.645-.817,7.01,7.01,0,0,1,1.946-.265,11,11,0,0,1,3.463.654V516.1a9.77,9.77,0,0,0-1.316-.663,4.077,4.077,0,0,0-1.532-.263,3.58,3.58,0,0,0-1.462.3,2.672,2.672,0,0,0-1.1.853,2.19,2.19,0,0,0-.051,2.49,2.519,2.519,0,0,0,1.006.865,3.217,3.217,0,0,0,1.455.321,4.85,4.85,0,0,0,1.234-.153,5.77,5.77,0,0,0,.982-.339,9.131,9.131,0,0,0,.82-.442Z" transform="translate(27.103 -510.716)" fill="#fff"/><path d="M98.6,521.849H91.833v-8.622H98.49v1.729H94.539v1.58h3.77v1.735h-3.77v1.841H98.6Z" transform="translate(31.854 -510.665)" fill="#fff"/><path d="M106.314,521.849h-2.408l-4.656-4.8v4.8H96.568v-8.622h2.4L103.614,518v-4.778h2.7Z" transform="translate(35.764 -510.665)" fill="#fff"/><path d="M112.088,515.323H108.8v6.526h-2.7v-6.526h-3.288v-2.1h9.28Z" transform="translate(40.917 -510.665)" fill="#fff"/><path d="M117.483,521.849h-2.908l-.707-1.531a6.12,6.12,0,0,0-.7-1.228,1.476,1.476,0,0,0-.6-.5,2.254,2.254,0,0,0-.761-.109h-.3v3.366h-2.706v-8.622h4.6a3.452,3.452,0,0,1,1.826.435,2.667,2.667,0,0,1,1.342,2.24,2.155,2.155,0,0,1-.263,1.1,1.984,1.984,0,0,1-.553.656,5.517,5.517,0,0,1-.654.393,2.589,2.589,0,0,1,.716.575,7.223,7.223,0,0,1,.767,1.347Zm-3.679-5.9a.879.879,0,0,0-.409-.833,2.768,2.768,0,0,0-1.326-.237H111.5v2.078h.584a3.04,3.04,0,0,0,1.357-.209A.837.837,0,0,0,113.8,515.951Z" transform="translate(45.858 -510.665)" fill="#fff"/><path d="M124.128,517.582a4.386,4.386,0,0,1-.579,2.22,4.109,4.109,0,0,1-1.725,1.612,5.979,5.979,0,0,1-2.792.6,5.872,5.872,0,0,1-2.817-.623,4.157,4.157,0,0,1-1.713-1.636,4.506,4.506,0,0,1,0-4.346,4.121,4.121,0,0,1,1.713-1.629,5.913,5.913,0,0,1,2.821-.619,6.5,6.5,0,0,1,2.218.354,4.462,4.462,0,0,1,1.6.963,4.014,4.014,0,0,1,.951,1.412A4.471,4.471,0,0,1,124.128,517.582Zm-2.757,0a2.541,2.541,0,0,0-.15-.886,1.877,1.877,0,0,0-.449-.7,2.141,2.141,0,0,0-.736-.46,2.85,2.85,0,0,0-1-.165,2.331,2.331,0,0,0-1.709.61,2.361,2.361,0,0,0,0,3.2,2.325,2.325,0,0,0,1.705.614,2.643,2.643,0,0,0,1.271-.284,1.894,1.894,0,0,0,.794-.784A2.348,2.348,0,0,0,121.371,517.582Z" transform="translate(50.11 -510.716)" fill="#fff"/><path d="M130.972,521.253a6.631,6.631,0,0,1-1.139.447,7.456,7.456,0,0,1-1.174.24,10.351,10.351,0,0,1-1.229.072,6.609,6.609,0,0,1-2.1-.312,4.57,4.57,0,0,1-1.61-.917,3.878,3.878,0,0,1-1.024-1.419,4.569,4.569,0,0,1-.341-1.782,4.48,4.48,0,0,1,.4-1.951,3.822,3.822,0,0,1,1.123-1.391,4.934,4.934,0,0,1,1.647-.817,7,7,0,0,1,1.944-.265,11,11,0,0,1,3.465.654V516.1a9.9,9.9,0,0,0-1.318-.663,4.07,4.07,0,0,0-1.532-.263,3.58,3.58,0,0,0-1.462.3,2.654,2.654,0,0,0-1.094.853,2.09,2.09,0,0,0-.416,1.294,2.119,2.119,0,0,0,.363,1.2,2.531,2.531,0,0,0,1.006.865,3.222,3.222,0,0,0,1.455.321,4.865,4.865,0,0,0,1.236-.153,5.828,5.828,0,0,0,.982-.339,9.11,9.11,0,0,0,.818-.442Z" transform="translate(57.056 -510.716)" fill="#fff"/><path d="M138.445,521.849h-2.773l-.73-1.749h-3.9l-.743,1.749h-2.773l3.971-8.622h2.992Zm-4.126-3.248L133,515.455l-1.327,3.147Z" transform="translate(61.327 -510.665)" fill="#fff"/><path d="M142.885,521.849h-2.908l-.7-1.531a6.306,6.306,0,0,0-.7-1.228,1.5,1.5,0,0,0-.6-.5,2.262,2.262,0,0,0-.761-.109h-.3v3.366h-2.708v-8.622h4.6a3.461,3.461,0,0,1,1.826.435,2.67,2.67,0,0,1,1.34,2.24,2.173,2.173,0,0,1-.261,1.1,2.027,2.027,0,0,1-.553.656,5.7,5.7,0,0,1-.655.393,2.563,2.563,0,0,1,.716.575,7.122,7.122,0,0,1,.767,1.347Zm-3.679-5.9a.881.881,0,0,0-.407-.833,2.781,2.781,0,0,0-1.327-.237h-.57v2.078h.582a3.04,3.04,0,0,0,1.356-.209A.837.837,0,0,0,139.206,515.951Z" transform="translate(66.834 -510.665)" fill="#fff"/><path d="M142.377,521.849h-2.706v-8.622h2.706Z" transform="translate(71.356 -510.665)" fill="#fff"/><path d="M148.868,519.393a2.31,2.31,0,0,1-.429,1.4,2.709,2.709,0,0,1-1.2.905,4.675,4.675,0,0,1-1.767.316c-.188,0-.414-.012-.685-.035a8.026,8.026,0,0,1-1.075-.189,8.674,8.674,0,0,1-1.395-.461v-2.115a9.9,9.9,0,0,0,1.338.674,3.715,3.715,0,0,0,1.408.267,1.266,1.266,0,0,0,.9-.221.634.634,0,0,0,.2-.414.7.7,0,0,0-.351-.588,5.078,5.078,0,0,0-1.015-.495,8.062,8.062,0,0,1-1.3-.651,2.966,2.966,0,0,1-.909-.88,2.19,2.19,0,0,1-.354-1.249,2.317,2.317,0,0,1,.358-1.261,2.439,2.439,0,0,1,1.086-.9,4.272,4.272,0,0,1,1.789-.337,6.5,6.5,0,0,1,1.388.14,6.214,6.214,0,0,1,1.053.314,4.293,4.293,0,0,1,.568.273v2.022a7.506,7.506,0,0,0-1.227-.679,3.556,3.556,0,0,0-1.448-.3,1.161,1.161,0,0,0-.73.186.577.577,0,0,0-.226.461.556.556,0,0,0,.226.442,4.025,4.025,0,0,0,.809.454,16.323,16.323,0,0,1,1.658.84,3.2,3.2,0,0,1,.975.861A2.021,2.021,0,0,1,148.868,519.393Z" transform="translate(73.475 -510.716)" fill="#fff"/><path d="M157.171,521.849h-2.708v-5l-2.441,2.894h-.214l-2.447-2.894v5h-2.631v-8.622h2.454l2.761,3.234,2.77-3.234h2.456Z" transform="translate(77.186 -510.665)" fill="#fff"/><path d="M164.064,522.951H161.29l-.73-1.749h-3.9l-.743,1.749h-2.773l3.971-8.622h2.992Zm-4.126-3.248-1.315-3.147L157.3,519.7Zm1.167-7.937-2.39,1.971h-1.243l1.114-1.971Z" transform="translate(82.481 -511.766)" fill="#fff"/><path d="M168.412,515.323h-3.29v6.526h-2.7v-6.526h-3.29v-2.1h9.28Z" transform="translate(87.426 -510.665)" fill="#fff"/><path d="M167.83,521.849h-2.706v-8.622h2.706Z" transform="translate(92.374 -510.665)" fill="#fff"/><path d="M176.184,521.253a6.628,6.628,0,0,1-1.139.447,7.437,7.437,0,0,1-1.176.24,10.3,10.3,0,0,1-1.227.072,6.609,6.609,0,0,1-2.1-.312,4.578,4.578,0,0,1-1.612-.917,3.873,3.873,0,0,1-1.022-1.419,4.569,4.569,0,0,1-.341-1.782,4.479,4.479,0,0,1,.4-1.951,3.822,3.822,0,0,1,1.123-1.391,4.934,4.934,0,0,1,1.647-.817,7,7,0,0,1,1.944-.265,11,11,0,0,1,3.465.654V516.1a9.9,9.9,0,0,0-1.318-.663,4.07,4.07,0,0,0-1.532-.263,3.58,3.58,0,0,0-1.462.3,2.654,2.654,0,0,0-1.094.853,2.187,2.187,0,0,0-.053,2.49,2.532,2.532,0,0,0,1.006.865,3.217,3.217,0,0,0,1.455.321,4.865,4.865,0,0,0,1.236-.153,5.827,5.827,0,0,0,.982-.339,9.114,9.114,0,0,0,.818-.442Z" transform="translate(94.389 -510.716)" fill="#fff"/><path d="M183.083,517.582a4.386,4.386,0,0,1-.579,2.22,4.109,4.109,0,0,1-1.725,1.612,5.979,5.979,0,0,1-2.792.6,5.872,5.872,0,0,1-2.817-.623,4.157,4.157,0,0,1-1.713-1.636,4.506,4.506,0,0,1,0-4.346,4.115,4.115,0,0,1,1.714-1.629,5.9,5.9,0,0,1,2.819-.619,6.49,6.49,0,0,1,2.218.354,4.462,4.462,0,0,1,1.6.963,4.014,4.014,0,0,1,.951,1.412A4.471,4.471,0,0,1,183.083,517.582Zm-2.757,0a2.541,2.541,0,0,0-.15-.886,1.877,1.877,0,0,0-.449-.7,2.141,2.141,0,0,0-.736-.46,2.85,2.85,0,0,0-1-.165,2.334,2.334,0,0,0-1.709.61,2.361,2.361,0,0,0,0,3.2,2.325,2.325,0,0,0,1.705.614,2.643,2.643,0,0,0,1.271-.284,1.894,1.894,0,0,0,.794-.784A2.348,2.348,0,0,0,180.326,517.582Z" transform="translate(98.792 -510.716)" fill="#fff"/><path d="M49.182,541.641H42.765V529.8l-5.786,6.856h-.508l-5.8-6.856v11.841H24.438V521.2h5.819l6.538,7.666,6.571-7.666h5.817Z" transform="translate(-23.797 -504.651)" fill="#fff"/><path d="M47.349,541.641H40.933V521.2h6.416Z" transform="translate(-10.176 -504.651)" fill="#fff"/><path d="M70.456,541.641H64.747L53.71,530.258v11.383H47.355V521.2h5.7l11,11.323V521.2h6.4Z" transform="translate(-4.874 -504.651)" fill="#fff"/><path d="M84.89,532.483a9.161,9.161,0,0,1-1.019,4.476,7.979,7.979,0,0,1-2.7,2.925,11.819,11.819,0,0,1-3.622,1.549,16.4,16.4,0,0,1-3.876.472,15.969,15.969,0,0,1-5.256-.884,9.324,9.324,0,0,1-4.276-3.008,8.514,8.514,0,0,1-1.718-5.53V521.2h6.4v9.687a7.992,7.992,0,0,0,.606,3.339,4.072,4.072,0,0,0,1.689,1.933,5.554,5.554,0,0,0,5.056.007,4.047,4.047,0,0,0,1.7-1.917,8,8,0,0,0,.606-3.332V521.2H84.89Z" transform="translate(7.567 -504.651)" fill="#fff"/><path d="M97.368,526.173h-7.8v15.468h-6.4V526.173h-7.8V521.2H97.368Z" transform="translate(18.262 -504.651)" fill="#fff"/><path d="M111.018,531.527a10.438,10.438,0,0,1-1.373,5.265,9.748,9.748,0,0,1-4.093,3.818,14.172,14.172,0,0,1-6.615,1.415,13.909,13.909,0,0,1-6.677-1.473,9.789,9.789,0,0,1-4.059-3.878,10.669,10.669,0,0,1-.007-10.3,9.685,9.685,0,0,1,4.059-3.864,14.016,14.016,0,0,1,6.684-1.466,15.322,15.322,0,0,1,5.256.84,10.6,10.6,0,0,1,3.8,2.279,9.594,9.594,0,0,1,2.258,3.346A10.729,10.729,0,0,1,111.018,531.527Zm-6.538,0a6,6,0,0,0-.354-2.1,4.452,4.452,0,0,0-1.068-1.65,4.959,4.959,0,0,0-1.742-1.091,6.644,6.644,0,0,0-2.379-.391,5.54,5.54,0,0,0-4.051,1.445,5.608,5.608,0,0,0,.007,7.586,5.527,5.527,0,0,0,4.044,1.452,6.255,6.255,0,0,0,3.009-.67,4.541,4.541,0,0,0,1.888-1.859A5.61,5.61,0,0,0,104.48,531.527Z" transform="translate(27.758 -504.771)" fill="#fff"/><path d="M129.268,531.791a9.436,9.436,0,0,1-1.189,5.042,10.986,10.986,0,0,1-2.8,3.083,10.441,10.441,0,0,1-6.4,1.724H107.394V521.2h8.842a24.923,24.923,0,0,1,3.414.2,15.729,15.729,0,0,1,2.558.561,10.287,10.287,0,0,1,1.932.81,10.1,10.1,0,0,1,1.43.965,9.456,9.456,0,0,1,3.215,4.72A11.06,11.06,0,0,1,129.268,531.791Zm-6.523-.265a6.624,6.624,0,0,0-.99-3.885,4.822,4.822,0,0,0-2.381-1.866,8.716,8.716,0,0,0-2.832-.472H113.81v12.105h2.733a8.054,8.054,0,0,0,4.36-1.151Q122.746,535.108,122.745,531.526Z" transform="translate(44.703 -504.651)" fill="#fff"/><path d="M137.015,541.641H120.976V521.2h15.778v4.1H127.39v3.745h8.935v4.115H127.39v4.364h9.625Z" transform="translate(55.919 -504.651)" fill="#fff"/><path d="M159.1,531.791a9.436,9.436,0,0,1-1.189,5.042,10.986,10.986,0,0,1-2.8,3.083,10.437,10.437,0,0,1-6.4,1.724H137.226V521.2h8.842a24.923,24.923,0,0,1,3.414.2,15.729,15.729,0,0,1,2.558.561,10.288,10.288,0,0,1,1.932.81,10.109,10.109,0,0,1,1.43.965,9.456,9.456,0,0,1,3.215,4.72A11.061,11.061,0,0,1,159.1,531.791Zm-6.523-.265a6.624,6.624,0,0,0-.99-3.885,4.822,4.822,0,0,0-2.381-1.866,8.716,8.716,0,0,0-2.832-.472h-2.733v12.105h2.733a8.054,8.054,0,0,0,4.36-1.151Q152.578,535.108,152.577,531.526Z" transform="translate(69.337 -504.651)" fill="#fff"/><path d="M157.257,541.641h-6.416V521.2h6.416Z" transform="translate(80.58 -504.651)" fill="#fff"/><path d="M180.066,531.527a10.438,10.438,0,0,1-1.373,5.265,9.754,9.754,0,0,1-4.092,3.818,14.171,14.171,0,0,1-6.615,1.415,13.909,13.909,0,0,1-6.677-1.473,9.806,9.806,0,0,1-4.06-3.878,10.681,10.681,0,0,1-.007-10.3,9.7,9.7,0,0,1,4.06-3.864,14.016,14.016,0,0,1,6.684-1.466,15.336,15.336,0,0,1,5.256.84,10.6,10.6,0,0,1,3.8,2.279,9.566,9.566,0,0,1,2.257,3.346A10.693,10.693,0,0,1,180.066,531.527Zm-6.538,0a6,6,0,0,0-.352-2.1,4.451,4.451,0,0,0-1.068-1.65,4.959,4.959,0,0,0-1.742-1.091,6.651,6.651,0,0,0-2.379-.391,5.547,5.547,0,0,0-4.053,1.445,5.613,5.613,0,0,0,.007,7.586,5.532,5.532,0,0,0,4.046,1.452,6.256,6.256,0,0,0,3.009-.67,4.551,4.551,0,0,0,1.888-1.859A5.61,5.61,0,0,0,173.528,531.527Z" transform="translate(84.775 -504.771)" fill="#fff"/><path d="M185.779,535.819a5.487,5.487,0,0,1-1.021,3.317,6.412,6.412,0,0,1-2.846,2.147,11.039,11.039,0,0,1-4.192.744c-.44,0-.979-.026-1.619-.081a18.964,18.964,0,0,1-2.547-.449,20.75,20.75,0,0,1-3.308-1.091v-5.014a23.735,23.735,0,0,0,3.17,1.592,8.773,8.773,0,0,0,3.339.635,3,3,0,0,0,2.125-.524,1.509,1.509,0,0,0,.482-.981,1.655,1.655,0,0,0-.827-1.394,12.1,12.1,0,0,0-2.41-1.172,19.383,19.383,0,0,1-3.071-1.542,7.116,7.116,0,0,1-2.156-2.086,5.22,5.22,0,0,1-.838-2.964,5.473,5.473,0,0,1,.845-2.985,5.818,5.818,0,0,1,2.578-2.131,10.121,10.121,0,0,1,4.238-.8,15.389,15.389,0,0,1,3.294.331,14.7,14.7,0,0,1,2.494.745,10.062,10.062,0,0,1,1.349.647v4.793a17.649,17.649,0,0,0-2.908-1.608,8.4,8.4,0,0,0-3.431-.707,2.726,2.726,0,0,0-1.734.442,1.363,1.363,0,0,0-.537,1.091,1.321,1.321,0,0,0,.537,1.047A9.555,9.555,0,0,0,178.7,528.9a39.027,39.027,0,0,1,3.929,1.991,7.663,7.663,0,0,1,2.311,2.042A4.787,4.787,0,0,1,185.779,535.819Z" transform="translate(96.449 -504.771)" fill="#fff"/><path d="M65.141,540.737l-2.757,6.705H60.827l-1.556-3.655-1.55,3.655H56.165l-2.824-6.705h2.5l1.276,3.385,1.364-3.385h1.57l1.378,3.385,1.234-3.385Z" transform="translate(0.069 -489.925)" fill="#00356b"/><path d="M72.163,540.737l-2.757,6.705H67.85l-1.557-3.655-1.548,3.655H63.187l-2.824-6.705h2.5l1.278,3.385,1.364-3.385h1.57l1.378,3.385,1.234-3.385Z" transform="translate(5.868 -489.925)" fill="#00356b"/><path d="M79.185,540.737l-2.757,6.705H74.871l-1.556-3.655-1.55,3.655H70.209l-2.824-6.705h2.5l1.276,3.385,1.364-3.385H74.1l1.378,3.385,1.234-3.385Z" transform="translate(11.666 -489.925)" fill="#00356b"/><path d="M77.25,544.428a1.354,1.354,0,0,1-.422,1.005,1.43,1.43,0,0,1-1.039.41,1.467,1.467,0,0,1-1.048-.414,1.366,1.366,0,0,1,0-2,1.519,1.519,0,0,1,1.778-.221,1.373,1.373,0,0,1,.537.514A1.344,1.344,0,0,1,77.25,544.428Z" transform="translate(17.379 -488.209)" fill="#00356b"/><path d="M89.508,547.494H87.039v-3.576a1.871,1.871,0,0,0-.245-1.063.863.863,0,0,0-.769-.354,1.208,1.208,0,0,0-.844.3,4.907,4.907,0,0,0-.661.754v3.939H82.055v-3.576a2,2,0,0,0-.226-1.047.869.869,0,0,0-.8-.37,1.2,1.2,0,0,0-.5.105,1.472,1.472,0,0,0-.372.238,3.717,3.717,0,0,0-.351.388c-.137.172-.225.279-.259.323v3.939h-2.47v-6.705h2.47v.961a3.758,3.758,0,0,1,1.13-.823A3.231,3.231,0,0,1,82,540.669a3.568,3.568,0,0,1,.681.063,2.642,2.642,0,0,1,.634.214,2.043,2.043,0,0,1,.566.416,2.012,2.012,0,0,1,.4.612A4.5,4.5,0,0,1,85.52,541a3.2,3.2,0,0,1,1.479-.33,2.785,2.785,0,0,1,1.4.324,1.937,1.937,0,0,1,.836.931,3.618,3.618,0,0,1,.272,1.479Z" transform="translate(19.663 -489.976)" fill="#00356b"/><path d="M87.682,548.538H85.206v-6.705h2.476Zm-.2-8.254a.928.928,0,0,1-.309.7,1.023,1.023,0,0,1-.732.289,1.082,1.082,0,0,1-.526-.13,1,1,0,0,1-.372-.359.967.967,0,0,1-.139-.505.95.95,0,0,1,.3-.7,1.056,1.056,0,0,1,1.468,0A.937.937,0,0,1,87.483,540.284Z" transform="translate(26.382 -491.02)" fill="#00356b"/><path d="M95.4,547.494H92.933v-3.615a2.294,2.294,0,0,0-.19-.966.811.811,0,0,0-.825-.412,1.239,1.239,0,0,0-.531.109,1.643,1.643,0,0,0-.413.281,3.025,3.025,0,0,0-.3.33c-.082.105-.166.218-.252.335v3.939h-2.47v-6.705h2.47v.961a3.57,3.57,0,0,1,1.167-.838,3.4,3.4,0,0,1,1.307-.242q2.509,0,2.509,2.885Z" transform="translate(28.645 -489.976)" fill="#00356b"/><path d="M100.692,547.442H98.223v-.954a3.744,3.744,0,0,1-1.1.807,3.255,3.255,0,0,1-1.378.265q-1.58,0-2.045-.884a4.234,4.234,0,0,1-.464-2v-3.939h2.468v3.624a2.281,2.281,0,0,0,.188.958.81.81,0,0,0,.822.41,1.208,1.208,0,0,0,.86-.295,5.176,5.176,0,0,0,.646-.758v-3.939h2.468Z" transform="translate(33.015 -489.925)" fill="#00356b"/><path d="M104.432,547.916a5.938,5.938,0,0,1-1.059.344,5.494,5.494,0,0,1-1.293.163q-2.667,0-2.667-2.5v-2.675H98.3v-.416l3.312-3.239h.283V541.6h2.357v1.647h-2.357v2.147a3.052,3.052,0,0,0,.046.607.618.618,0,0,0,.27.384,1.2,1.2,0,0,0,.677.156,3.764,3.764,0,0,0,1.548-.475Z" transform="translate(37.191 -490.788)" fill="#00356b"/><path d="M110.546,544.135a3.514,3.514,0,0,1-.453,1.786,3.157,3.157,0,0,1-1.357,1.238,5.562,5.562,0,0,1-4.395,0,3.137,3.137,0,0,1-1.349-1.238,3.53,3.53,0,0,1-.449-1.786,3.654,3.654,0,0,1,.25-1.377,3.056,3.056,0,0,1,.761-1.1,3.469,3.469,0,0,1,1.258-.733,5.286,5.286,0,0,1,1.727-.258,5.361,5.361,0,0,1,1.745.261,3.422,3.422,0,0,1,1.254.728,3.04,3.04,0,0,1,.75,1.093A3.64,3.64,0,0,1,110.546,544.135Zm-2.6,0a1.955,1.955,0,0,0-.36-1.249,1.431,1.431,0,0,0-2.085,0,2.341,2.341,0,0,0,0,2.5,1.408,1.408,0,0,0,2.081,0A1.982,1.982,0,0,0,107.946,544.135Z" transform="translate(40.699 -489.976)" fill="#00356b"/><path d="M115.6,548.484h-2.476v-.607a3.9,3.9,0,0,1-.827.521,2.885,2.885,0,0,1-1.2.2,3.326,3.326,0,0,1-1.493-.361,2.93,2.93,0,0,1-1.207-1.13,3.622,3.622,0,0,1-.473-1.933,4.177,4.177,0,0,1,.356-1.717,2.982,2.982,0,0,1,1.117-1.3,3.327,3.327,0,0,1,1.866-.5,3.516,3.516,0,0,1,1.11.146,3.1,3.1,0,0,1,.754.368v-2.818H115.6Zm-2.476-2.135v-2.562c-.288-.153-.513-.263-.676-.328a1.5,1.5,0,0,0-.571-.1,1.2,1.2,0,0,0-.969.475,1.974,1.974,0,0,0-.389,1.291,1.772,1.772,0,0,0,.407,1.294,1.312,1.312,0,0,0,.951.405,1.649,1.649,0,0,0,.719-.135A2.848,2.848,0,0,0,113.125,546.35Z" transform="translate(45.139 -490.966)" fill="#00356b"/><path d="M120.728,544.713h-4.915a1.659,1.659,0,0,0,.707,1,2.18,2.18,0,0,0,1.274.389,6.861,6.861,0,0,0,2.757-.672V546.9a7.784,7.784,0,0,1-1.313.491,7.3,7.3,0,0,1-1.965.219,4.8,4.8,0,0,1-2.195-.459,3.159,3.159,0,0,1-1.355-1.252,3.559,3.559,0,0,1-.449-1.791,3.474,3.474,0,0,1,.449-1.768,3.077,3.077,0,0,1,1.355-1.226,4.942,4.942,0,0,1,2.195-.445,3.994,3.994,0,0,1,1.641.353,2.963,2.963,0,0,1,1.3,1.152,3.794,3.794,0,0,1,.509,2.066Zm-2.317-1.172a1.531,1.531,0,0,0-.332-1.031,1.2,1.2,0,0,0-.957-.384,1.326,1.326,0,0,0-1,.391,1.4,1.4,0,0,0-.382,1.024Z" transform="translate(49.56 -489.976)" fill="#00356b"/><path d="M125.993,548.484h-2.474v-.607a3.949,3.949,0,0,1-.827.521,2.884,2.884,0,0,1-1.2.2,3.334,3.334,0,0,1-1.5-.361,2.952,2.952,0,0,1-1.207-1.13,3.622,3.622,0,0,1-.473-1.933,4.179,4.179,0,0,1,.358-1.717,2.982,2.982,0,0,1,1.117-1.3,3.317,3.317,0,0,1,1.864-.5,3.528,3.528,0,0,1,1.112.146,3.13,3.13,0,0,1,.754.368v-2.818h2.474Zm-2.474-2.135v-2.562c-.288-.153-.513-.263-.676-.328a1.508,1.508,0,0,0-.573-.1,1.2,1.2,0,0,0-.969.475,1.984,1.984,0,0,0-.389,1.291,1.764,1.764,0,0,0,.409,1.294,1.305,1.305,0,0,0,.949.405,1.663,1.663,0,0,0,.721-.135A2.909,2.909,0,0,0,123.519,546.35Z" transform="translate(53.721 -490.966)" fill="#00356b"/><path d="M126.375,548.538H123.9v-6.705h2.478Zm-.2-8.254a.926.926,0,0,1-.307.7,1.03,1.03,0,0,1-.734.289,1.087,1.087,0,0,1-.526-.13,1.011,1.011,0,0,1-.372-.359.966.966,0,0,1-.137-.505.943.943,0,0,1,.3-.7,1,1,0,0,1,.734-.3,1.023,1.023,0,0,1,.734.3A.936.936,0,0,1,126.174,540.284Z" transform="translate(58.331 -491.02)" fill="#00356b"/><path d="M134.478,544.135a3.514,3.514,0,0,1-.453,1.786,3.162,3.162,0,0,1-1.355,1.238,5.562,5.562,0,0,1-4.395,0,3.138,3.138,0,0,1-1.349-1.238,3.532,3.532,0,0,1-.451-1.786,3.654,3.654,0,0,1,.25-1.377,3.1,3.1,0,0,1,.761-1.1,3.476,3.476,0,0,1,1.26-.733,5.286,5.286,0,0,1,1.727-.258,5.369,5.369,0,0,1,1.745.261,3.437,3.437,0,0,1,1.254.728,3.063,3.063,0,0,1,.75,1.093A3.675,3.675,0,0,1,134.478,544.135Zm-2.6,0a1.945,1.945,0,0,0-.36-1.249,1.429,1.429,0,0,0-2.083,0,2.331,2.331,0,0,0,0,2.5,1.406,1.406,0,0,0,2.08,0A1.971,1.971,0,0,0,131.878,544.135Z" transform="translate(60.46 -489.976)" fill="#00356b"/><path d="M137.539,545.538a1.845,1.845,0,0,1-.7,1.5,3.237,3.237,0,0,1-2.089.575,6.373,6.373,0,0,1-1.377-.133,11.706,11.706,0,0,1-1.316-.386v-1.686a9.448,9.448,0,0,0,1.083.521,2.794,2.794,0,0,0,1.008.177q.926,0,.926-.488a.394.394,0,0,0-.133-.293,1.932,1.932,0,0,0-.467-.291q-.331-.16-.887-.384a3.558,3.558,0,0,1-1.165-.777,1.634,1.634,0,0,1-.482-1.193,1.672,1.672,0,0,1,.319-.961,2.291,2.291,0,0,1,.966-.756,3.747,3.747,0,0,1,1.556-.293q.219,0,.559.032a6.043,6.043,0,0,1,.856.152,4.772,4.772,0,0,1,.986.358v1.64c-.148-.084-.27-.154-.369-.212a3.932,3.932,0,0,0-.393-.189,4.1,4.1,0,0,0-.581-.19,2.867,2.867,0,0,0-.683-.082.82.82,0,0,0-.582.16.451.451,0,0,0-.157.316.411.411,0,0,0,.164.307,2.828,2.828,0,0,0,.734.351,6.954,6.954,0,0,1,1.316.623,2.071,2.071,0,0,1,.7.7A1.861,1.861,0,0,1,137.539,545.538Z" transform="translate(64.969 -489.976)" fill="#00356b"/><path d="M138.985,544.428a1.359,1.359,0,0,1-.42,1.005,1.438,1.438,0,0,1-1.041.41,1.47,1.47,0,0,1-1.048-.414,1.366,1.366,0,0,1,0-2,1.522,1.522,0,0,1,1.78-.221,1.386,1.386,0,0,1,.537.514A1.359,1.359,0,0,1,138.985,544.428Z" transform="translate(68.356 -488.209)" fill="#00356b"/><path d="M143.793,541.108a4.361,4.361,0,0,0-.913-.126.794.794,0,0,0-.621.251,1.037,1.037,0,0,0-.223.712v.237h1.249v1.609h-1.249v4.748h-2.474V543.79h-1.137v-1.609h1.137v-.117a3.2,3.2,0,0,1,.285-1.335,2.349,2.349,0,0,1,.949-1.036,3.309,3.309,0,0,1,1.755-.409,6.349,6.349,0,0,1,1.241.125Z" transform="translate(70.327 -491.02)" fill="#00356b"/><path d="M154.534,547.494h-2.467v-3.576a1.871,1.871,0,0,0-.245-1.063.868.868,0,0,0-.77-.354,1.208,1.208,0,0,0-.843.3,5,5,0,0,0-.659.754v3.939h-2.468v-3.576a2,2,0,0,0-.226-1.047.866.866,0,0,0-.8-.37,1.2,1.2,0,0,0-.506.105,1.471,1.471,0,0,0-.372.238,3.536,3.536,0,0,0-.349.388c-.137.172-.225.279-.261.323v3.939H142.1v-6.705h2.468v.961a3.758,3.758,0,0,1,1.13-.823,3.234,3.234,0,0,1,1.331-.258,3.535,3.535,0,0,1,.679.063,2.682,2.682,0,0,1,.635.214,2.055,2.055,0,0,1,.969,1.028,4.475,4.475,0,0,1,1.238-.975,3.189,3.189,0,0,1,1.477-.33,2.787,2.787,0,0,1,1.4.324,1.946,1.946,0,0,1,.836.931,3.65,3.65,0,0,1,.27,1.479Z" transform="translate(73.359 -489.976)" fill="#00356b"/></g><g transform="translate(0 0)"><g transform="translate(0 10.899)"><path d="M-26.644,511.5h75.5a4.761,4.761,0,0,1,4.787,4.707v54.134a4.762,4.762,0,0,1-4.787,4.708h-75.5a4.764,4.764,0,0,1-4.789-4.708V516.212a4.763,4.763,0,0,1,4.789-4.707" transform="translate(31.433 -511.504)" fill="#00447d" stroke="#fff" stroke-miterlimit="10" stroke-width="1" fill-rule="evenodd"/><path d="M-25.594,520.9v31.856h10.065V537.84l7.29,8.477,7.088-8.812v15.25H26.531c21.829-3.618,17.1-31.856-1.8-31.856H-.793l-7.4,10.969-7.7-10.969ZM19.7,528.693c14.12-.56,12.066,17.509,0,15.589Z" transform="translate(36.255 -504.421)" fill="#ffbc00" fill-rule="evenodd"/></g><g transform="translate(14.568)"><path d="M3.516,507.309l-.785.8-.181.547-1.276.146-.32,3.613.854.426-.332.289,1.64.221.1,6.258.644.007-.139,10.069-6,2.978-2.209,1.885-2.372,1.852-5.574,4.32L-15.965,543l-6.5,4c-1.585.6-1.455,4.888,1.811,4.094l8.031-4.788,9.726-6.1.394-1.409,6-3.624.427,8.268.67,13.081.825,1.4.316,25.013.164,6.984,1.066.628c1.125.444,4.152.682,4.011-.058l-.226-8.889.009-11.616-.524-.529-.219-14.068-.643-.658L9.358,548.3l-1.147-1.617-.075-13.293,1.87-.607,13.22-9.215,10.168-6.918,1.568-1.366.239-.659-1.207-2.248-1.064-.179-6.209,3.981-4.782,3.182-1.528,1.1-2.131,1.117-2.872,1.789-7.215,4.9,0-7.216-.236-14.384-.221-.517-2.972.607Z" transform="translate(23.454 -504.642)" fill="#00356b" fill-rule="evenodd"/><path d="M3.933,506.449l-.783.8-.181.546-1.278.146-.32,3.615.854.424-.332.291,1.64.219.1,6.26.644.005-.139,10.071-6,2.978-2.211,1.885-2.372,1.852-5.574,4.32-3.536,2.273-6.5,3.994c-1.585.6-1.457,4.888,1.811,4.092l8.031-4.786,9.726-6.1.394-1.409,6-3.624.427,8.266.67,13.082.825,1.4.316,25.011.164,6.984,1.066.628c1.126.444,4.152.682,4.011-.058l-.226-8.889.009-11.616-.524-.53-.217-14.07-.644-.656-.011-6.421-1.147-1.615-.075-13.293,1.87-.607,13.22-9.217,10.168-6.918,1.568-1.365.241-.659-1.209-2.248-1.064-.179-6.209,3.981-4.783,3.18-1.526,1.1L18.7,520.716,15.824,522.5l-7.214,4.9,0-7.214-.236-14.385-.221-.517-2.972.605Z" transform="translate(23.798 -505.29)" fill="#fff" fill-rule="evenodd"/></g></g></g></svg>
