<svg xmlns="http://www.w3.org/2000/svg" xmlns:xlink="http://www.w3.org/1999/xlink" width="2000" height="100" viewBox="0 0 2000 100">
  <defs>
    <clipPath id="clip-path">
      <rect width="2000" height="100" fill="none"/>
    </clipPath>
  </defs>
  <g id="Repeat_Grid_1" data-name="Repeat Grid 1" clip-path="url(#clip-path)">
    <g id="Group_199" data-name="Group 199">
      <path id="Path_484" data-name="Path 484" d="M221.44,52.737c-.9-3.641-2.059-7.242-2.6-10.935a5.173,5.173,0,0,1,3.219-5.911c1.13-.521,1.423-2.755,2.215-4.142a27.712,27.712,0,0,1,1.938-2.647c.772.909,2.27,1.88,2.2,2.718-.5,5.97-1.167,11.941-2.178,17.843-.206,1.2-2.1,2.115-3.217,3.161Z" fill="#00447d"/>
      <path id="Path_485" data-name="Path 485" d="M1490.6,0c.932,1.165,2.721,2.471,3.128,4.118.71,2.876-1.558,2.654-3.533,2.4-.518-.068-1.1.413-1.63.367-1.576-.135-4.163.066-4.521-.711-1.18-2.553.511-4.259,2.957-5.15C1487.8.731,1488.632.553,1490.6,0Z" fill="#00447d"/>
      <path id="Path_486" data-name="Path 486" d="M1996.3,27.616a6.986,6.986,0,0,1-3.735.652c-3.246-.837-6.537-2.892-8.616,1.82-.13.3-1.331.2-2.025.152-7.991-.517-16.08-.458-23.943-1.761-8.153-1.351-16-1.081-24.177-.238-7.452.767-15.149-.874-22.742-1.4-1.106-.076-2.518-.25-3.3.306-2.788,1.983-5.248,2.64-8.015-.1-.51-.505-2.148.155-3.269.238a49.291,49.291,0,0,1-7.552.448,94.119,94.119,0,0,1-11.978-1.758,82.219,82.219,0,0,1-8.725-2.91c-2.1,5.321-6.778,5.554-12.591,3.339a7.753,7.753,0,0,0-6.121.376c-3.922,2.564-7.08,2.717-9.156-.3-4.227.633-7.618,1.564-11.01,1.568-9.94.012-19.88,2.662-29.82,2.432-1.007-.023-2.011-.177-3.014-.288-2.489-.275-3.658-1.717-3.137-4.126.49-2.267,1.332-4.457,2.02-6.681l-.995-.749c-1.03,1.319-2.536,2.489-3,3.984-1.618,5.182-3.34,5.876-8.6,4.1-2.555-.864-6.384-1.7-8.161-.455-6.385,4.485-13.1,5.9-20.667,5.1-1.719-.181-3.579.926-5.368,1.461-.95.284-2.031,1.082-2.809.846-6.409-1.946-12.8-3.405-19.468-1.251-.231.075-.566-.1-.829-.208a31.226,31.226,0,0,0-16.562-2.192c-6.249.75-12.687-.213-19.026.018a9.712,9.712,0,0,0-5.792,2.543c-1.475,1.394-2.854,2.327-4.37,2.385v-.844c-1.033-.214-2.068-.409-3.1-.569.892-4.689.3-5.266-4.472-5.483-2.146-.1-4.27-.711-6.414-.79a32.3,32.3,0,0,0-4.97.552,12.486,12.486,0,0,1-5.752,1.283,65.1,65.1,0,0,1-7.285.017c-3.855-.313-7.686-.914-11.536-1.294-.47-.047-1.054.447-1.491.806-2.613,2.142-5.1,1.989-7.9.136a10.993,10.993,0,0,0-5.271-1.719c-1.547-.078-3.1-.147-4.642-.218a12.209,12.209,0,0,1-1.281-1.921,4.811,4.811,0,0,0-5.21-2.816c-2,.163-4.206.016-5.939.825a62.9,62.9,0,0,1-8.4,3.2c-.875-.019-1.75-.044-2.625-.06a99.762,99.762,0,0,0-12.818.566c-14.471,1.606-28.743-6.31-43.289-4.029-4.89.767-10.07-.525-15.112-.458-5.1.068-10.2,1.122-15.272.907-2.244-.095-4.494-.3-6.735-.462a44.39,44.39,0,0,0-.554-4.715c-.24-1.317-1.735-3.254-2.846-3.392-2.612-.324-5.8-.548-7.922.652-4.863,2.743-9.956,3.382-15.311,3.933-5.372.552-10.631,2.135-15.994,2.864a59.57,59.57,0,0,1-9.9.11c-3.578-.117-6.943.229-9.814,1.988q-3.365,0-6.73.019c-.083-.792-.163-1.569-.247-2.368-5.3.882-10.221,2.346-15.164,2.41-3.491.045-6.982.06-10.473.065s-6.982-.02-10.473-.065c-4.943-.064-9.868-1.528-15.164-2.41-.083.8-.164,1.576-.247,2.368-5.192-.024-10.383-.035-15.575,0-5.65.04-11.3,1.411-16.938,1.29-5.541-.119-11.037-.964-16.451.891a1.619,1.619,0,0,1-1.259-.087c-8.005-5.528-16.841-3.464-25.584-3.093-5.067.215-10.176-.839-15.272-.907-5.041-.067-10.221,1.225-15.111.458-14.546-2.281-28.819,2.635-43.29,1.029a99.755,99.755,0,0,0-12.818-.566q-5.055.095-10.11.26c-.3-.136-.608-.256-.911-.4-1.733-.809-3.941-.662-5.939-.825a4.761,4.761,0,0,0-4.42,1.64q-3.357.146-6.713.315a10.992,10.992,0,0,0-5.271,1.719c-2.8,1.853-5.288,2.006-7.9-.136-.438-.359-1.022-.853-1.491-.806-3.851.38-7.682.981-11.536,1.294a65.1,65.1,0,0,1-7.285-.017,12.488,12.488,0,0,1-5.753-1.283,32.3,32.3,0,0,0-4.97-.552c-2.144.079-4.268.693-6.414.79-4.877.222-5.394.809-4.411,5.8-2.945,2.06-5.11,1-7.535-1.293a9.706,9.706,0,0,0-5.791-2.543c-6.34-.231-12.777.732-19.027-.018a31.226,31.226,0,0,0-16.562,2.192c-.263.112-.6.283-.829.208-6.663-2.154-13.058-.695-19.468,1.251-.778.236-1.859-.562-2.809-.846-1.789-.535-3.648-1.642-5.367-1.461-7.567.8-14.283-.618-20.668-5.1-1.777-1.249-5.606-.409-8.161.455-5.254,1.778-6.976,1.084-8.595-4.1-.467-1.5-1.973-2.665-3-3.984l-.995.749c.688,2.224,1.531,4.414,2.021,6.681.521,2.409-.649,3.851-3.138,4.126-1,.111-2.007.265-3.013.288-9.94.23-19.881.58-29.821.568-3.392,0-6.783-.935-11.009-1.568-2.077,3.02-5.234,2.867-9.157.3a7.752,7.752,0,0,0-6.121-.376c-5.812,2.215-10.493,1.982-12.591-3.339a82.07,82.07,0,0,1-8.725,2.91,94.121,94.121,0,0,1-11.978,1.758,49.3,49.3,0,0,1-7.552-.448c-1.121-.083-2.759-.743-3.269-.238-2.767,2.737-5.227,2.08-8.014.1-.783-.556-2.2-.382-3.3-.306-7.593.525-15.29,2.166-22.742,1.4-8.178-.843-16.024-1.113-24.177.238-7.863,1.3-15.952,1.244-23.943,1.761-.694.045-1.9.143-2.025-.152-2.079-4.712-5.369-2.657-8.615-1.82a6.988,6.988,0,0,1-3.736-.652c-4.723-1.715-5.911-1.1-7.349,3.911a38.4,38.4,0,0,1-1.7,3.794l-3.8-10.234c-1.277,1.482-2.018,2.718-3.094,3.482a6.21,6.21,0,0,1-3.587,1.3c-3.461-.212-6.92-1.282-10.343-1.137-6.725.284-13.424,1.162-19.41,1.726l-3.841-8.137c-2.7,4.009,2.264,7.787-1.456,9.726a16.89,16.89,0,0,0-13.22.653c-9.618,4.642-14.061,4.05-21.387-3.584-1.946,10.049-11.049,10.281-17.781,11.2-12.206,1.667-24.719.88-36.775,4.481a78.783,78.783,0,0,1-14.1,2.8c-2.542.272-5.286-.546-7.825-1.271-2.76-.788-4.547.155-5.717,2.478-1.135,2.254-2.534,2.143-4.9,1.827a179.385,179.385,0,0,0-18.151-1.112,4.862,4.862,0,0,0-2.924,1.6c-4.44,4.341-4.433,4.367-8.5-.343a8.886,8.886,0,0,0-1.587-1.006l-2.78,6.872c-3.054-2.632-5.589-2.928-8.554-.228-1.167,1.062-4.021,1.215-5.576.547-.918-.394-.873-3.2-1.111-4.938a14.03,14.03,0,0,1,.147-2.741L587.3,48.9c-.488,2.189-.975,4.379-1.429,6.413a69.685,69.685,0,0,1-6.809,2.126c-.989.212-2.154-.4-3.239-.642.651-.934,1.115-2.147,2-2.736a27.158,27.158,0,0,1,4.474-2c-1.63-.5-3.239-1.093-4.895-1.482a37.906,37.906,0,0,0-4.7-.735c-6.466-.678-6.756-.386-6.159,6.8-4.271-8.018-11.937-4.889-17.933-6.673-2.573-.766-5.55-.172-8.586-.2.392,1.9.689,3.345.949,4.608-5.034-1.493-9.781-3.089-14.627-4.274-3.611-.883-7.417-1.915-11.011-1.573-2.21.21-4.308,2.761-6.114,4.6-.228.232,1.632,2.517,2.538,3.869-4.431,3.013-8.568,3.341-13.107.241,2.008.017,3.872.407,5.478-.071a5.32,5.32,0,0,0,3.2-2.852c.262-.779-1.151-3-2.049-3.15-5.793-.956-12.065-3.148-17.385-1.8-6.674,1.692-12.688,2.347-19.257.536-1.414-.39-3.792.82-5.018,2.019-2.832,2.771-2.3,4.4,1.391,5.883.9.361,1.791.729,2.039.83l-2.512,8.113-25.918-5.469c-.357,1.209-.834,2.821-1.39,4.7-4.161-.351-8.286-1.034-12.391-.931-2.88.072-5.708,1.386-8.609,1.8-1.23.176-3.562-.265-3.727-.875-1.2-4.438-4.67-4.041-7.7-3.582a9.7,9.7,0,0,1-9.281-3.043c-1.484-1.492-4.495-1.464-6.817-2.122l-.86,1.564,4.216,1.809-11.081,3.829.022,1.287,8.381,1.872-2.291,4.11c-3.378-.807-5.948-5.867-9.066-1.963L367.912,66.98q0,.336,0,.672L363.3,64.06c-.76-2.079-1.271-4.543-2.49-6.583-2.487-4.162-5.607-3.311-9.557-1.453-4.141,1.948-8.928,2.505-13.409,3.754-1.873.522-3.685,1.26-5.783,1.99-.835-3.3-3.679-4.358-7.239-4.378-4.414-.024-8.854.109-13.229-.343-1.646-.17-3.142-1.791-5.063-2.969-.288,4.7-3.82,4.039-7.233,3.9-5.891-.237-11.79-.433-17.68-.332-1.043.018-2.06,1.563-2.11,1.6-5.334-.316-9.9-.565-14.468-.866a31.382,31.382,0,0,1-5.139-.558c-3.7-.873-7.1-.683-10.285,1.668-2.6,1.913-5.239,2.983-6.772-1.5a64.349,64.349,0,0,1-5.434,3.712c-2.409,1.316-4.688,3.04-7.772.685-1.146-.875-3.582,0-5.428-.036-2.063-.04-4.124-.208-6.844-.355l2.152-3.7-.918-1c-3.576,2.91-7.058,5.947-10.772,8.668a14.625,14.625,0,0,1-5.524,2.388,70.921,70.921,0,0,1-7.788.7c-7.838.743-15.672,1.532-23.511,2.26-1.287.12-2.6-.024-3.891.034-4.991.219-4.99.231-7.446-4.574-9.941,8.179-20.576,2.463-31.491,1.814.6-1.766,1.075-3.149,1.944-5.7-1.844.568-3.357.557-3.883,1.272-3.8,5.162-4.516,5.234-9.408-.02l-2.518,2.318c-2.97-.089-8.389-11.7-8.772-18.868-2.074,3.186-4.27,5.9-5.723,8.974-1.482,3.132-3.122,4.325-6.322,1.925-.8,1.185-1.23,2.532-2.093,2.921a4.276,4.276,0,0,1-3.5-.089c-2.295-1.452-4.329-3.317-7.1-4.914.531,3.831-.881,4.658-4,4.626a39.183,39.183,0,0,1-23.312-8.038c-2.327-1.707-4.361-3.894-6.856-5.264-1.674-.919-3.914-.93-5.921-1.074-1.51-.107-3.1.53-4.567.291-3.29-.536-4.473.581-3.4,3.736,2.909,8.523-.854,14.122-8.087,18.447-2.207-2.708-3.925-6.385-8.881-5.679a15.77,15.77,0,0,0,.655,2.877A7.38,7.38,0,0,1,14.828,75.1c-3.406,3.506-3.61,7.328-1.488,11.5a2.025,2.025,0,0,1,.329.793,20.886,20.886,0,0,1-.187,4.769c-.083.359-2.391.808-2.86.361C9.288,91.255,7.8,89.669,7.428,87.973c-.6-2.716-.365-5.619-.482-8.444l-1.355-.184a21.493,21.493,0,0,0-1.1,4.112c-.218,3.109.332,6.3-3.037,8.423-.677.427-.5,2.644-.286,3.965C1.525,98.026,1.216,99.376,0,100H2000V26.763A10.725,10.725,0,0,0,1996.3,27.616Z" fill="#00447d"/>
    </g>
  </g>
</svg>
