<svg xmlns="http://www.w3.org/2000/svg" width="1998.091" height="80.048" viewBox="0 0 1998.091 80.048"><g transform="translate(-0.955 0.048)"><path d="M1716.9,7.6c2.4.7,5.8,1.2,5-3.4-.5-3.3-3.4-4.9-6.6-4-3,.9-6.6,2.2-5.8,6.2C1710.4,11.3,1713.7,8.5,1716.9,7.6Z" fill="#fff" fill-rule="evenodd"/><path d="M1379,11.3a2.372,2.372,0,0,0,2-2.7V8.5c-.2-2.4-1.5-2.9-3.5-2.6-1.5.2-3.2.7-2.6,2.6C1375.3,10.1,1376.8,11,1379,11.3Z" fill="#fff" fill-rule="evenodd"/><path d="M1651.1,27.8Z" fill="#fff" fill-rule="evenodd"/><path d="M1651.1,27.8Z" fill="#fff" fill-rule="evenodd"/><path d="M1995.346,76.3a4.742,4.742,0,0,0-.3-3.3c-.2-.3-.4-.5-.6-.8-1-1-1.8-.9-2.5-.4a73.294,73.294,0,0,1-8.4-16.5c-1-2.9-2.2-5.8-6.2-6.6a5.9,5.9,0,0,1-3.5-2.2c-3.6-4.6-4.8-3.3-6,.4-1.1,3.3-2.8,7.4-7.3,6.9a22.6,22.6,0,0,0-2.6-.1l2.2-4c-1.3-.8-2.3-1.7-3.6-2.5l6.9-6.9c-3.1.2-4.8,1.8-6.6,3.2.2-.2-.2-.3-.3-.5l1.1-4.2.1-.7.1-.1c-2-1.5-4.8-1.5-7.5-2.2-3.1-.7-6.3-.5-9.6-.4l-11.6-2.4.1,1.1c-.2-.4-.5-.7-.1-1.1-1.7-1.6-2.9-.1-4.4.2-3.7-3.1-7.8-2.3-11.9-.6-11.1-2-22.7-.6-34-1.3-10.3-.6-14-1.3-18.6-7.9a14.606,14.606,0,0,0-3.6-.3,6.6,6.6,0,0,0-1.4-.1,25.829,25.829,0,0,0-10.9,2.1c-1.5,1.4-3.7,1.7-5.6,2.5a24.582,24.582,0,0,1-2.8.2c-.9-.2-2.2-.8-2.8-.6-14.6,4.3-30.3,1.8-45.2,1.8-19.2.1-38.6-.2-57.9-.4-2-1.1.7-3.3-1.8-4.2-1.3-2.4,1.8-5.2-1.1-7.6a19.674,19.674,0,0,0-15.9,1.7c-7.3,2.9-16.1.2-23.5,3.4-2.4,1-6,.4-8.9.7-9.1,1.2-20.4-3.1-26.9,5.2a2.2,2.2,0,0,1-1.4.1c.1.2.1.4.2.6a1.381,1.381,0,0,1,.3.4l-.2.1a.6.6,0,0,0-.1-.4,1.422,1.422,0,0,1-.2-.6,6.534,6.534,0,0,1-1.4,0c0-2.4,2.2-6.8-3.5-5.7a129.784,129.784,0,0,1-26.4,2.5c-18.7.1-37.3.2-55.8-1.3-.5.4-.9.8-1.4,1.2h0l.1.7c.1.1.2.2.2.3h-.2v-.3a.483.483,0,0,1-.1-.7c-4.4.2-8.9.5-13.3.6a5.7,5.7,0,0,1-1.3-.1c-5.6-2.6-10.5,1.1-16,.7l-1.7-.9a7.838,7.838,0,0,1-1.5-1c-10.8-3.2-21.5-1.2-32.4-.6-2.1-1.4-4.3-1.6-7.1-1.5-9.4.4-19,1.4-28.2,0-2.6-1.6-5.1-.7-7.6-.3a75.6,75.6,0,0,1-17.8,1.5c-9.7-.2-19.2-.1-29,.4-1.2-1.2-2.9-.9-4.6-.9-9.4-.1-18.7,1.7-28.2.7a17.357,17.357,0,0,0-10.7,2c-3.4,2-5.3.6-7.8-.4-2.2-2-4-.4-5.9.3a7.444,7.444,0,0,1-1.5,0,8.258,8.258,0,0,0-8.7.4l.1.9c0,.1.1.1.1.2h-.1v-.2c-.2-.3-.4-.6-.1-.9h0c-2.9-.2-5.9-.4-8.9-.7-2.2-1.8-3.8.6-5.8.4-.5-1.3,0-3.7-3-2.5-3.6,1.4-7.1,1.5-11.1,1.3-3.8-.1-6.2,2-2.9,5.2-3.6,1.2-6.8,1.4-9.2-1.7a4.889,4.889,0,0,0-4.6-2.1l-1.5.1c-8.8-.9-17.5.4-26.4.1-3-1.3-6-1.3-8.6.6a7.569,7.569,0,0,0-1.5.1c-2.8-.7-4.3,1.9-7.3,1.2-7-1.7-11.9-1.4-20.9,1.2a2.824,2.824,0,0,1-1.8-.2c-6.8-3.4-14.3-1.6-21.5-2-6.4-2.7-11.8-8.1-20.9-3.8-2.1.9-8.4,1.2-8.7-3.7,0-3.4-3.2-3.1-7.3-3.5,4.2,3.1,5.7,5.9,4.3,9.3-8,1.7-16.6-.1-24.8,1.1l-1.5.1c-7.4-.1-14.8-.1-22-.1-2.8-2.2-5.5-3.8-7.3.4-2-.1-4.6.2-5.8-.4-3.6-2.6-6.8-2.8-11.4-1.3-3.8,1.3-9.1,1.5-11.7-2-1.8-2.3-2.3-3.8-4.3-.3-.6,1.3-2.1,1.2-3.7,1.4-6.8.6-13.7,1.3-20.6,2.1-3.8.6-8.2-3.9-11.6.5-4,1.3-6.2-3-10-2-9.2,2.7-18.9.7-28.3,1.6-.9-.5-2.2-1.8-2.7-1.6-7.7,1.9-16.3-1.2-23.8,1.8-2-.6-4.4-1.5-6.3-.6-7.1,3.9-15.7-1-23,2-2.2-1.4-2.3-5.7-7.7-2.6-.5.4-5.1.9-6.5.1-5.3-2.5-7.5-.8-9.2,2.6,0,.9.8,2.1-.8,2.6s-1.7-.7-1.9-1.4c-2.3-1.6-.7-10.9-7.9-2.1-.3.3-1.7.3-2.6.4-1.6-2-3.8-2.1-6.4-1.9-9.8.5-19.6,2-29.9,1.7.7-2.9.7-5.4-4.6-6-2.4,2.7,5.2,6.4-1.6,8.3-.3-1-.6-3.1-1.4-2.5-3.5,2.3-7.6.3-11.5,1.9-10.8,5-20.6,3.2-25.7-4-.7,4.1-1.7,8.2-9.4,8-.5,0-.9.8-1.3,1.1-4.3-.5-7.2,3.1-11.6,1.6-1.5.1-2.9.2-4.3.2-3.3,2.5-6.9.1-10.2,0-11.5-.3-21.8,4.5-33.4,3.8-.8.1-1.8,1.1-2.7,1.7-3,.2-5.9.3-8.9.4l-2.9.2c-4.4-2.9-7.7-2.3-10.1,1.5a4.895,4.895,0,0,1-1.3,1.2c-1.4-.3-3.1-.6-4.5-1-2.7-2.1-4.8.6-7.3.4-1.8-.9-4.2-.8-5.7-.8-4.2-.1-9.6-1.7-11.8,2.7-1.4.4-2.8.9-4.3,1.4-.9-.7-1.8-1.2-2.6-1.9-1-.9-1.1-2.5-3.5-1.9-1.7.4-1.1,1.7-1.4,2.7a25.577,25.577,0,0,1-1.1,2.4l-1.4.1c-2.6-2.2-4.7-3.2-7.9-.3-1.4,1.1-5.2,1.5-7.4,1-1.8-.5-1-2.9-1-4.5.2-1,1.3-2.4-.9-2.6-2.6-.4-2.3,1.2-2.3,2.5,0,1.4-.1,4.1-1,3.8-4.5-2-6.7,1.8-10.2,1.5-1.6-2-.6-2.8,2.2-3.4,1.9-.2,5.4.6,5.1-1.6-.3-2.3-3.7-1.4-6.1-1.5a30.063,30.063,0,0,0-4.2-.5c-5-.6-11.8-2.8-7.8,6.5-3.4-3.1-4.5-6.2-6.8-5.6-6,1.4-11.3-2.1-17-.9-2.3-.2-5.1-.9-7-.4-4,1.3,3.3,3.1-.2,4.9-3.7-2.3-7.8-4.5-13.2-3.5-2,0-3.4-3.3-6-.7-3.5.3-5.8-2.2-9.5-2.1-3.7.2-5.4,2-7.3,3.9-.6.8-1,1.6,0,2.5,2.2,1.7,4.4.8,6.9.2a2.247,2.247,0,0,1,1.8.2c-7.2.6-14.4,5.5-21.9.7,2,.2,4.3.5,6.5.7,2.6.1,5.1-.4,5.3-2.6.3-2.3-2.1-3.3-4.6-3.4-8.5-.3-17-4.2-25.2.6-1.8,1-3.9-.4-5.7-.2-5.1.8-10.2-3.3-15.4-.4l.1,1.1c-2.1.3-2.8,1.2-2.6,2.7.5,3.3,5,2.1,7.9,4-6.5.9-2.7,4.5-4.1,7.5-6.7-6-16.3-2.6-23.8-5.4-.9,0-1.9.1-3,.1-1.7-1.7-3.5-3-4.2.3-.3,1.4.4,3.6-2.6,2.8-6.1-1.6-12-1.3-18.1-1.1-3.3.1-4.7,3.6-8.4,1.7,0-3.8-3.2-4.1-7.5-3.9-3.9,0-8.2,1.6-11.6-2.5-.9-1.1-7.6-3.7-11,.4,1.9-.1,3.9-.6,5.3,1.7-5.3-1.2-8.3,1.9-12.9,2.3,3.6,2.9,7.4,2.3,11.2,2.2-1,1.3-2.1,2.6-3.1,4-3.8-1.5-7-5.7-11.1-1.1-4.9-3.5-6.2-3.8-11.1-2l-1.1-.6c.6-3.5-2-2.7-4.7-1.9a18.319,18.319,0,0,1-.2-2.1,3,3,0,0,0-.5-4.4,7.084,7.084,0,0,1-1.4.1c-4.3-5.8-8.8-2.1-13.2-.4-2.8-1.7-3.3.1-4.3,1.3-4.9,2-11.7-1.4-15.7,3.7-.1-5.6-5.7-4.5-9-4.9-4.8-.7-10.1-1.7-15-.1-3.8.7-2.2-3.4-5.8-3.3-.3,2.9-.5,4.4-6.8,4-6.2-.5-13.3-1.3-19.7-.1-4.7-2.9-3.7,1.5-5.5,2.3a3.36,3.36,0,0,0-1.6-1,21.79,21.79,0,0,0-12.7-1.3c-5.2,1.1-10.3-2.3-15.6-.5-1.9.8-3.7,1.6-5.6,2.5-2,.8-3.6.8-4.4-1a1.7,1.7,0,0,0-2-1.3,1.456,1.456,0,0,0-.9.6c-2.2,2.9-7,2.7-9.9,4.7-3.3-3.6-7.9-1.3-11.9-1.6-1.7-.1-4,.2-4.8-.5-1.9-1.5,3.2-1.3,2-3.1-.5-.1-1.6-.7-1.8-.5-3.8,3-9.8,4-12.5,7.7-1.6,2.2-3.9,1.7-6.1,1.6-1.5-.3-2.7-1.5-4.7-.7-8.9,3.1-18.8,2.9-28.4,3.5-3.9-1.9-7.9-.1-11.8-.5-2.7-.8-2.6-3.1-3.5-4.4-11.5,7.7-24.4,2-36.5,2.1-1-1.8,4.6-3.6.2-5-3.8-1.2-2.7,1.8-4,3-1.9,1.8-4.5,1.7-7,0-1.2-.8-2.6-4.2-4.7-.4-.5.9-1.8.6-2.3-.2-3.6-4.3-9.4-7.9-8.2-13.7.2-1,.9-2.1-2.1-2.4.4,4.3-5.2,6.5-6.6,10.1-.5,1.2-1.5,1.5-2.9.7-4.4-2.5-4.4.7-5.8,2.2l-2.9.1c-1.3-3.9-5.9-4.2-10.4-5.1.2,1.5,4.1,3.9-1.6,3.6a49.1,49.1,0,0,1-12.9-.9,4.675,4.675,0,0,0-2.2-2.4l-.9-.3c-1.4-.2-2,.4-2.2,1.2a70.979,70.979,0,0,1-16.6-8.1c-2.5-1.7-5.2-3.3-8.9-1.6a5.134,5.134,0,0,1-4.2.3c-5.7-1.5-5.8.2-4.5,3.9,1.1,3.3,2.2,7.6-1.6,9.9-2.4,1.5-4.4,3.5-7.5,5.1-.8-2.7-3.5-3.8-5.7-5-3.3-1.1-6.2-.6-4.2,2,2.5,3.5.9,6.1-1.5,7.9-6.1,4.4-2.1,8.3.3,12.4-.2,1.5-1,2.7-3.4,2.9-1.9-1.4-5.9-2.1-4.7-4.6,1.5-3-.9-5.4-1.2-8.1-4.1,1.6-2.1,4.4-2.6,6.9-.3,1.1.7,2.7-1.7,3.5-3,.8-2.7,2.5-2.1,4.1h1997.7A43.063,43.063,0,0,1,1995.346,76.3Z" fill="#fff" fill-rule="evenodd"/></g></svg>
