<svg id="Group_200" data-name="Group 200" xmlns="http://www.w3.org/2000/svg" width="2000" height="80" viewBox="0 0 2000 80">
  <path id="Path_490" data-name="Path 490" d="M1620.257,68.922c-4.493.788-7.911,3.76-11.762,5.691l17,3.355C1622.222,75.6,1621.657,72.151,1620.257,68.922Z" fill="#fff" fill-rule="evenodd"/>
  <path id="Path_491" data-name="Path 491" d="M134.513,39.632c-3.8-2.467-11.333-2.167-14.116,1.426-1.65,2.114-1.651,2.01-3.971.572-4.958-3.081-7.347-1.482-8.011,4.18l27.54.5C136.867,43.791,137.258,41.483,134.513,39.632Z" fill="#fff" fill-rule="evenodd"/>
  <path id="Path_492" data-name="Path 492" d="M70.141,40.827c1.573.191,2.438,2.484,3.924,4.141A31.066,31.066,0,0,0,76.1,39.813L64.648,36.706C65.408,39,66.683,40.555,70.141,40.827Z" fill="#fff" fill-rule="evenodd"/>
  <path id="Path_493" data-name="Path 493" d="M1369.034,72.372h0c-1.46.437-2.919.978-3.634,2.452,2.189-.759,3.743-2.139,5.623-2.476l-1.989.024Z" fill="#fff" fill-rule="evenodd"/>
  <path id="Path_494" data-name="Path 494" d="M1371.127,72.242l1.779-.021A5.072,5.072,0,0,0,1371.127,72.242Z" fill="#fff" fill-rule="evenodd"/>
  <path id="Path_495" data-name="Path 495" d="M1480.91,77.618a20.624,20.624,0,0,0,2.724.177Z" fill="#fff" fill-rule="evenodd"/>
  <path id="Path_496" data-name="Path 496" d="M929.216,63.545l3.25.38C931.418,63.833,930.264,63.637,929.216,63.545Z" fill="#fff" fill-rule="evenodd"/>
  <path id="Path_497" data-name="Path 497" d="M1428.966,76.256l-1.255.12A4.356,4.356,0,0,0,1428.966,76.256Z" fill="#fff" fill-rule="evenodd"/>
  <path id="Path_498" data-name="Path 498" d="M1380.051,74.333l-.946-.3C1379.421,74.236,1379.738,74.442,1380.051,74.333Z" fill="#fff" fill-rule="evenodd"/>
  <path id="Path_499" data-name="Path 499" d="M1373.22,72.217h0l-.209,0Z" fill="#fff" fill-rule="evenodd"/>
  <path id="Path_500" data-name="Path 500" d="M1535.152,78.534h0Z" fill="#fff" fill-rule="evenodd"/>
  <path id="Path_501" data-name="Path 501" d="M1591.253,77.334c6.064-.7,5.572-6.768,11.741-7.47.625-.217.419,0,.1-.63-.534-.831.2-.944.3-1.469l4.981-3.724,1.04-.536,3.879.476c-.1.211-.414.319-.621.531-2.254,4.11-6.735,5.84-10.261,8.6l19.075-6.93c13.79-11.16,31.183-10.008,48.882-9.489a85.406,85.406,0,0,1,18.608-2.318q16.8-.518,33.284-.716a7,7,0,0,0,7.755.639c4.788-2.256,10.029-1.8,15.379-.918.914-2.314,4.72.78,6.053-1.539,1.884-.023,3.872-.151,5.964-.281,8.788-.525,17.367-1.047,26.155-1.572,3.33-1.611,7.006-.713,10.67-.652,1.8,1.444,4.092.683,6.187.762a297.014,297.014,0,0,0,39.753-2.468c1.7,2.178,3.786,1.42,6.5.968,16.622-1.98,33.489-1.032,50.256.231,6.182.449,12.068,2.367,17.147-1.882.62-.635,2.82-.557,3.662-.149,5.053,2.243,9.85.719,14.76-.178l4.5-.263c10.253-.647,20.516-.352,30.337-2.041a51.189,51.189,0,0,1,20.732.273c3.571.9,6.915.44,10.473.292l1.462-1.5V0H0V43.754l.137.012C2.545,43.737,4.5,41.305,4.189,41.2c-.212-.207.1-.524-.009-.733L33.364,29.65c-.816,1.79-5.1,2.47-3.509,4.23l10.684.4,17.842,3.658C56.823,39,55.792,40.268,53.6,40.713c-1.67.439-1.548,1.9-1.117,2.945l5.227-.692C58.32,41.6,59.77,40.22,58.8,38.033l5.563,1.189a4.915,4.915,0,0,1-.97-2.292c-.112-.626-.851-1.141-1.382-1.763l16.13.643A10.579,10.579,0,0,0,76.8,37.5a9.59,9.59,0,0,0-.913,2.419l1.575.4c-.3,1.051-.6,2-.8,3.046l3.848-2.14,6.407,1.7c.937-.43.3-1.155.712-1.684l.211.1-.109-.313c.515-.739,1.764-1.382,1.119-2.736a7,7,0,0,0-1.805-2.072l62.111,2.287a3.116,3.116,0,0,0-1.764,1.278l4.186-.156c.1-.524-.639-.83-1.27-1.136l15.082.551c3.148.59,4.114,2.568,4.871,4.548l1.99.08c.861,1.979,1.931,3.851,5.6,3.911a9.041,9.041,0,0,0,7.183-3.332l2.933.069a16.258,16.258,0,0,1-4.041,3.5l16.725-2.191a6.284,6.284,0,0,1,1.981-.652l54.156,2.487a17.3,17.3,0,0,1,.588-3.357h.105a11.983,11.983,0,0,1-.693,3.358l7.333.331c1.473.61,3.048,1.01,4.52,1.515l39.582.675.846.722,5.548-.067a6.4,6.4,0,0,0,3.151.8c4.913-.583,9.513-1.162,14.342-.069,1.363.193,2.619.178,3.447-.669l.311-.213-8.9-.207,57.67-1.324a7.133,7.133,0,0,0,1.271,1.241c.748,1.247,4.194.473,3.691,2.154L431.9,53l1.048.092-.315-.1,38.325.585c-.107-.208-.005-.419-.006-.524l22.31.883c-.01-.838-.537-1.145-.651-1.877l9.844.2c.84.2,1.89.5,2.73.7l16.092-2.6c-.855-1.455-.234-1.986-.034-2.826l6.39.342c-3.333,1.4-4.983,3.515-2.951,7.05l24.372-1.76,1.052.406-.53-.517,1.15-.119c1.274,1.451,2.858,2.583,4,1.627l-3.161-1.741,2.092-.13a4.164,4.164,0,0,1-2.844-1.432,13.372,13.372,0,0,0-2.858-2.583l4.608.154c1.065,1.453,3.171,2.475,5.069,3.6l7.846-.513c.206-.317.624-.322.936-.535l3.468,1.11a3.72,3.72,0,0,0-1.139,1.061c-.3,1.26.966,1.977,2.642,2.062,1.465-.123,2.712-.871,2.387-1.809l-.211-.1,10.088,3.124a6.545,6.545,0,0,1-1.6-2.18L588.1,52.69c.42.1.835-.22,1.254-.225-.625.322-1.567.333-1.98.757l25.647-.205a2.375,2.375,0,0,0-1.758,1.8l3.975-.257c1.067,1.662,1.2,3.65,5.175,3.707a6.236,6.236,0,0,1-1.2-4.069l13.284-1c3.36.8,7.775,2.314,9.938-.643l.207-.212L657.7,51.222a5.552,5.552,0,0,0,3.452-.251l2.824-.244c0,.21-.207.212-.2.422.142,3.139-2.351,4.739-5.369,6.241l38.124,1.32c.306-.736-.011-.942.086-1.571l8.057-.412a12.628,12.628,0,0,0-2.807,1.709l17.982-2.1.732-.114,4.913-.582c-.939.22-1.03,1.373-1.124,2.212l5.983,1.289a5.63,5.63,0,0,0-4.126-3.51l16.832-1.983,6.224,3.9-.416.215.838.094.529.413.939-.221,5.87.557c.422.309,1.049.2,1.474.715.747,1.143,1.69,1.236,2.091-.234l.1-.106,37.52,3.316c-.435-1.356-1.08-2.709-1.511-3.751v-.1l16.9,3.879c.313-.109.624-.322.937-.43l9.913-2.737.1-.106c-.1.315-.413.424-.409.738l21.674.261c.942-.011.939-.325,1.565-.437l.343,2.4.113.626a6.292,6.292,0,0,0,1.981-.652l13.824.357c.32.52.116.941,1.168,1.347,3.262,1.426,4.815-.058,6.685-1.232l2.723.072c-.11-.418-.53-.518-.951-.722L884.6,62.2l-.207.212,36.1-1.587c-1.342,1.586-6.992,1.864-3.723,3.814l11.82-.876.209,0h-.1l5.334-.378c-3.8-2.467-9.219-.517-13.223-2.668l22.811-1.008a9.9,9.9,0,0,0,1.813,2.805c1.061,1.139,1.7,1.864.454,2.926l8.757-3.142a15.487,15.487,0,0,1-1.317,3.681l25.868.734a11.994,11.994,0,0,0,5.412-2.682l5.741-1.431a4.661,4.661,0,0,0,.148,3.558L1003.577,66a3.769,3.769,0,0,0,.746,1.038l4.178-.783-.108-.313,14.131-.17.318.31,5.346.564c-.421-.2-.532-.727-.85-1.037l11.724-.141c1.164,1.032,1.086,3.232,4,2.15,1.354-.645.926-1.372.6-2.206l8.479-.1c1.783.292,3.259,1.112,5.563,1.189,3.244-.144,4.81-.477,5.847-1.327l4.082-.049c-.1.21,0,.314-.1.524l14.3-3.313a22.768,22.768,0,0,0,3.682,1.526,3.378,3.378,0,0,1,.6-2.415l6.16-1.436a2.482,2.482,0,0,0,3.056,1.639l.105,0c5.222-1.005,3.789,1.734,4.02,3.511l12.056,1.321c-.2.421-.095.838-.4,1.47l18.949-.019v-.105l6.181.345c3.065,2.371,6.208,2.542,10.372.607l8.591.525a7.412,7.412,0,0,0-3.265-1.636h17.275c.417-.11.621-.531.933-.744.214.416.219.835.951.721l.416-.214,5.9,2.86.422.2c.418,0,.522-.111.836-.114l19.377.708a20.583,20.583,0,0,0,4.4.156c1.547-1.9,1.317-3.575-2.041-4.267.523-.007.832-.429,1.354-.54l29.776,3.514a10.045,10.045,0,0,0,6.414,2.331c1.992.185,2.507-.449,2.707-1.289l14.363,1.711c1.68.4,3.891,1.419,4.92-.059l.623-.427,7.025.858a4.168,4.168,0,0,0,4.4.051l.205-.421a11.48,11.48,0,0,1,9.1-.424c3.688,1.945,7.331.226,11,.5l20.634.8c-3.178-3.1,1.134-1.48,2.173-2.12l19.571-.551a5.932,5.932,0,0,0-.7,2.312l6.074.136.521-.215,5.86-.176-.318-.31.211.1.212.207.314,0,4,1.732a1.927,1.927,0,0,0-.86-1.874l2.3-.028c.005.419-.2,1.049.327,1.043,2.3-.133,3.132-.666,3.44-1.193l13.082-.368c.731-.218,1.145-.537,1.876-.755l2.207.706h.1l.42.1,5.463,1.61c-.528-.413-1.062-1.244-1.592-1.761l.21,0,.524.1.108.208,17.206,3.038c.409-.843,1.25-.539,1.981-.652L1430.473,71l-.1.211c-.293,1.678.577,4.39-1.512,4.834l9.731-.537c.505-1.471,1.536-2.845,1.309-4.308,1.377,1.345,2.546,2.8,2.567,4.576l6.775-2.49,8.1,2.939,11.314.6a5.134,5.134,0,0,0,1.258.089l-.525-.1,11.419.6c-4.3-.681-6.639-3.584-10.534-5.317l12.8,2.568-.624.321,28.709,1.957,1.786.5a1.5,1.5,0,0,1,1.148-.328l1.152.091c1.472.506,2.95,1.535,3.982.266l11.421.8c.42.1.528.308.947.408l3.035-.142.419,0h0L1565.7,76.7l8.8.522.633.411,1.061,1.139.008.628c3.762-.569,7.33.121,11,.6l2.282-1.7C1590.11,77.976,1590.522,77.447,1591.253,77.334Z" fill="#fff" fill-rule="evenodd"/>
</svg>
