<svg xmlns="http://www.w3.org/2000/svg" width="350" height="61.84" viewBox="0 0 442.594 78.206"><g transform="translate(-741.141 -705.724)"><g transform="translate(741.141 705.724)"><path d="M745.85,780.051a3.83,3.83,0,0,1-3.775-3.874V726.253a3.83,3.83,0,0,1,3.775-3.874h32.242l-.015-.933H745.85a4.764,4.764,0,0,0-4.709,4.808v49.924a4.764,4.764,0,0,0,4.709,4.808h34.481l-.011-.933Z" transform="translate(-741.141 -711.859)" fill="#fff" fill-rule="evenodd"/><path d="M819.082,715.31h-6.394l-.08.227-.779.707h7.253a3.83,3.83,0,0,1,3.775,3.874v49.924a3.83,3.83,0,0,1-3.775,3.874H791.83l.006-9.334-.463-.487-.056-3.743h12.257c19.338-3.336,15.149-29.378-1.594-29.378H791.465l-.966.7-.976.329-.006-1.161,1.656-.559,11.714-8.5,9.008-6.38,1.389-1.258.213-.608-1.069-2.073-.944-.165-5.5,3.672-.489.338H789.5l-.143-9.108-.2-.478-2.632.559-1.1.511-.694.741-.16.5-1.132.134-.284,3.333.758.393-.3.268,1.453.2.091,5.772.571.005-.123,9.287L780.3,730.18l-.893.793h-.037l-.049.077-.979.869-2.1,1.708L771.3,737.61l-.573.384-4.732-7.021h-8.6v29.378h8.917V746.709l-2.977,1.846c-2.757.7-2.99-2.857-1.791-3.672-.117,1.261.59,2.757,2.466,2.281l7.117-4.414,8.251-5.391-.31,1.152-8.616,5.629-4.078,2.53,6.4,7.742,6.279-8.125v14.064H786.5l-.067-5.5-.731-1.291-.594-12.063-.378-7.625-4.95,3.115.313-1.164,5.311-3.341.378,7.623.594,12.064.73,1.292.281,23.066.146,6.441.944.579c1,.409,3.678.629,3.553-.054l-.2-8.2v-.446h27.252a4.764,4.764,0,0,0,4.708-4.808V720.117A4.764,4.764,0,0,0,819.082,715.31Zm-21.561,22.851c12.509-.517,10.691,16.147,0,14.376Zm6.623-21.918-2.4,1.66-1.353,1.017-1.887,1.03-2.546,1.651-6.391,4.521,0-6.654-.051-3.225Z" transform="translate(-747.484 -705.724)" fill="#fff" fill-rule="evenodd"/></g><g transform="translate(824.345 724.982)"><path d="M896.685,742.474H889.92v13.969h-5.553V742.474H877.6v-4.488h19.083Z" transform="translate(-877.602 -737.573)" fill="#fff"/><path d="M916.886,756.443h-5.567V737.986h5.567Z" transform="translate(-890.761 -737.573)" fill="#fff"/><path d="M937.8,756.443H923.888V737.986h13.69v3.7h-8.123v3.383h7.75v3.715h-7.75v3.942h8.35Z" transform="translate(-895.666 -737.573)" fill="#fff"/><path d="M969.917,756.443h-4.954l-9.575-10.28v10.28h-5.513V737.986h4.941l9.548,10.228V737.986h5.553Z" transform="translate(-905.808 -737.573)" fill="#fff"/><path d="M1006.37,747.547a8.783,8.783,0,0,1-1.032,4.555,9.756,9.756,0,0,1-2.43,2.783,8.789,8.789,0,0,1-5.553,1.558h-9.961V737.986h7.67a20.948,20.948,0,0,1,2.963.18,13.139,13.139,0,0,1,2.217.506,8.835,8.835,0,0,1,1.678.732,8.6,8.6,0,0,1,1.238.873,8.483,8.483,0,0,1,1.658,1.824,8.938,8.938,0,0,1,1.132,2.437A10.331,10.331,0,0,1,1006.37,747.547Zm-5.66-.239a6.167,6.167,0,0,0-.859-3.509,4.207,4.207,0,0,0-2.065-1.685,7.313,7.313,0,0,0-2.457-.426h-2.37v10.933h2.37a6.783,6.783,0,0,0,3.782-1.039Q1000.71,750.544,1000.709,747.308Z" transform="translate(-920.45 -737.573)" fill="#fff"/><path d="M1038.147,756.443h-5.7l-1.5-3.742h-8.017l-1.532,3.742h-5.7l8.163-18.457h6.152Zm-8.483-6.951-2.7-6.738-2.73,6.738Z" transform="translate(-931.496 -737.573)" fill="#fff"/><path d="M1067.908,737.746h2.49v18.6h-2.677V741.875L1062,749.066h-.493l-5.786-7.191v14.475h-2.663v-18.6h2.521l6.182,7.641Z" transform="translate(-946.078 -737.48)" fill="#fff"/><path d="M1087.085,737.746h2.663v18.6h-2.663Z" transform="translate(-959.357 -737.48)" fill="#fff"/><path d="M1112.609,737.746h2.53v18.6h-2.291l-12.438-14.328v14.328h-2.5v-18.6h2.157l12.545,14.449Z" transform="translate(-963.58 -737.48)" fill="#fff"/><path d="M1143.964,737.746h2.677v10.561a12.552,12.552,0,0,1-.313,3.236,7.014,7.014,0,0,1-.772,1.818,5.808,5.808,0,0,1-1.126,1.3,8.543,8.543,0,0,1-5.78,1.9,8.631,8.631,0,0,1-5.833-1.891,6.039,6.039,0,0,1-1.125-1.312,6.8,6.8,0,0,1-.76-1.777,13.181,13.181,0,0,1-.3-3.3V737.746h2.677v10.561a7.835,7.835,0,0,0,.6,3.649,4.267,4.267,0,0,0,1.824,1.645,6.333,6.333,0,0,0,2.89.619,5.845,5.845,0,0,0,3.862-1.238,3.845,3.845,0,0,0,1.132-1.571,9.687,9.687,0,0,0,.346-3.1Z" transform="translate(-976.353 -737.48)" fill="#fff"/><path d="M1159.577,737.7h15.541v2.371h-6.485v16.26h-2.677v-16.26h-6.378Z" transform="translate(-987.648 -737.462)" fill="#fff"/><path d="M1191.935,737.309a10.006,10.006,0,0,1,7.18,2.73,9.057,9.057,0,0,1,2.868,6.845,8.912,8.912,0,0,1-2.895,6.811,10.291,10.291,0,0,1-7.3,2.7,9.7,9.7,0,0,1-7.006-2.7,8.99,8.99,0,0,1-2.8-6.758,9.193,9.193,0,0,1,2.821-6.9A9.844,9.844,0,0,1,1191.935,737.309Zm.107,2.53a7.218,7.218,0,0,0-5.249,2,6.8,6.8,0,0,0-2.056,5.1,6.679,6.679,0,0,0,2.063,5.007,7.655,7.655,0,0,0,10.357-.04,6.811,6.811,0,0,0,2.082-5.073,6.654,6.654,0,0,0-2.082-4.974A7.071,7.071,0,0,0,1192.042,739.839Z" transform="translate(-996.392 -737.309)" fill="#fff"/><path d="M1217.25,756.323V737.746h6.272a13.236,13.236,0,0,1,6.006,1.138,8.6,8.6,0,0,1,3.516,3.349,9.317,9.317,0,0,1,1.3,4.821,9.174,9.174,0,0,1-5.926,8.576,9.453,9.453,0,0,1-1.931.553,25.991,25.991,0,0,1-3.356.139Zm5.992-16.206h-3.329v13.836h3.409a13.616,13.616,0,0,0,3.1-.273,7.312,7.312,0,0,0,1.844-.692,6.319,6.319,0,0,0,1.352-1.032,6.891,6.891,0,0,0,1.971-5.047,6.385,6.385,0,0,0-2.024-4.888,6.453,6.453,0,0,0-1.711-1.159,7.156,7.156,0,0,0-1.831-.6A18.643,18.643,0,0,0,1223.242,740.117Z" transform="translate(-1010.156 -737.48)" fill="#fff"/><path d="M1248.293,737.746h10.547v2.371h-7.884v5.673h7.617v2.384h-7.617v5.779h8.137v2.37h-10.8Z" transform="translate(-1022.272 -737.48)" fill="#fff"/><path d="M1269.136,756.323V737.746h6.272a13.237,13.237,0,0,1,6.006,1.138,8.6,8.6,0,0,1,3.516,3.349,9.314,9.314,0,0,1,1.3,4.821,9.116,9.116,0,0,1-2.77,6.565,9,9,0,0,1-3.156,2.011,9.439,9.439,0,0,1-1.931.553,25.989,25.989,0,0,1-3.356.139Zm5.992-16.206H1271.8v13.836h3.409a13.616,13.616,0,0,0,3.1-.273,7.3,7.3,0,0,0,1.844-.692,6.319,6.319,0,0,0,1.352-1.032,6.892,6.892,0,0,0,1.971-5.047,6.385,6.385,0,0,0-2.024-4.888,6.453,6.453,0,0,0-1.711-1.159,7.156,7.156,0,0,0-1.831-.6A18.646,18.646,0,0,0,1275.128,740.117Z" transform="translate(-1030.406 -737.48)" fill="#fff"/><path d="M1300.446,737.746h2.663v18.6h-2.663Z" transform="translate(-1042.625 -737.48)" fill="#fff"/><path d="M1318.709,737.309a10.005,10.005,0,0,1,7.179,2.73,9.057,9.057,0,0,1,2.868,6.845,8.91,8.91,0,0,1-2.894,6.811,10.292,10.292,0,0,1-7.3,2.7,9.7,9.7,0,0,1-7.006-2.7,8.99,8.99,0,0,1-2.8-6.758,9.193,9.193,0,0,1,2.821-6.9A9.843,9.843,0,0,1,1318.709,737.309Zm.106,2.53a7.22,7.22,0,0,0-5.249,2,6.807,6.807,0,0,0-2.056,5.1,6.681,6.681,0,0,0,2.063,5.007,7.655,7.655,0,0,0,10.358-.04,6.811,6.811,0,0,0,2.082-5.073,6.654,6.654,0,0,0-2.082-4.974A7.071,7.071,0,0,0,1318.816,739.839Z" transform="translate(-1045.868 -737.309)" fill="#fff"/><path d="M1348.214,748.4l-2.024-1.229a9.2,9.2,0,0,1-2.71-2.288,4.338,4.338,0,0,1-.806-2.591,4.575,4.575,0,0,1,1.525-3.568,5.7,5.7,0,0,1,3.961-1.372,7.494,7.494,0,0,1,4.275,1.308v3.022a6.163,6.163,0,0,0-4.328-1.934,3.576,3.576,0,0,0-2.144.6,1.831,1.831,0,0,0-.839,1.544,2.383,2.383,0,0,0,.618,1.566A7.788,7.788,0,0,0,1347.73,745l2.034,1.2q3.4,2.033,3.4,5.175a4.746,4.746,0,0,1-1.5,3.636,5.481,5.481,0,0,1-3.9,1.4,8.185,8.185,0,0,1-5.02-1.694v-3.383a6.267,6.267,0,0,0,4.994,2.733,3.136,3.136,0,0,0,2.085-.7,2.184,2.184,0,0,0,.832-1.745Q1350.664,749.925,1348.214,748.4Z" transform="translate(-1059.106 -737.326)" fill="#fff"/><path d="M1362.213,763.386a1.6,1.6,0,0,1,1.158.466,1.535,1.535,0,0,1,.48,1.146,1.486,1.486,0,0,1-.473,1.118,1.62,1.62,0,0,1-1.165.453,1.581,1.581,0,0,1-1.145-.453A1.5,1.5,0,0,1,1360.6,765a1.592,1.592,0,0,1,1.611-1.612Z" transform="translate(-1066.102 -747.486)" fill="#fff"/><path d="M1384.164,751.882v2.93a13.9,13.9,0,0,1-6.765,1.6,10.42,10.42,0,0,1-5.286-1.252,9.211,9.211,0,0,1-3.436-3.449,9.361,9.361,0,0,1-1.265-4.754,9.078,9.078,0,0,1,2.9-6.831,9.943,9.943,0,0,1,7.145-2.77,16.772,16.772,0,0,1,6.511,1.531v2.863a12.818,12.818,0,0,0-6.378-1.864,7.373,7.373,0,0,0-5.307,2.018,7.121,7.121,0,0,0-.034,10.087,7.407,7.407,0,0,0,5.313,1.971A12.052,12.052,0,0,0,1384.164,751.882Z" transform="translate(-1068.76 -737.326)" fill="#fff"/><path d="M1405.908,737.309a10.006,10.006,0,0,1,7.18,2.73,9.058,9.058,0,0,1,2.868,6.845,8.91,8.91,0,0,1-2.894,6.811,10.291,10.291,0,0,1-7.3,2.7,9.7,9.7,0,0,1-7.007-2.7,8.99,8.99,0,0,1-2.8-6.758,9.193,9.193,0,0,1,2.821-6.9A9.844,9.844,0,0,1,1405.908,737.309Zm.107,2.53a7.221,7.221,0,0,0-5.249,2,6.806,6.806,0,0,0-2.055,5.1,6.681,6.681,0,0,0,2.062,5.007,7.655,7.655,0,0,0,10.357-.04,6.808,6.808,0,0,0,2.082-5.073,6.652,6.652,0,0,0-2.082-4.974A7.07,7.07,0,0,0,1406.015,739.839Z" transform="translate(-1079.899 -737.309)" fill="#fff"/><path d="M1445.939,737.746h2.491v18.6h-2.677V741.875l-5.719,7.191h-.493l-5.786-7.191v14.475h-2.663v-18.6h2.522l6.181,7.641Z" transform="translate(-1093.612 -737.48)" fill="#fff"/></g><g transform="translate(823.758 749.965)"><path d="M1170.045,797.739a1.188,1.188,0,0,0-.018,1.643,1.136,1.136,0,0,0,.833.318,2.016,2.016,0,0,0,1.418-.626v-2.405l-1.075.414A3.645,3.645,0,0,0,1170.045,797.739Z" transform="translate(-991.014 -785.458)" fill="#fff"/><path d="M1217.46,792.291a2.534,2.534,0,0,0-1.894.757,2.648,2.648,0,0,0-.74,1.93,2.53,2.53,0,0,0,.757,1.9,2.68,2.68,0,0,0,1.948.735,2.635,2.635,0,0,0,1.933-.744,2.756,2.756,0,0,0-.031-3.819A2.725,2.725,0,0,0,1217.46,792.291Z" transform="translate(-1008.623 -783.75)" fill="#fff"/><path d="M1109.13,792.291a2.534,2.534,0,0,0-1.894.757,2.649,2.649,0,0,0-.74,1.93,2.53,2.53,0,0,0,.757,1.9,2.681,2.681,0,0,0,1.948.735,2.635,2.635,0,0,0,1.934-.744,2.755,2.755,0,0,0-.031-3.819A2.725,2.725,0,0,0,1109.13,792.291Z" transform="translate(-966.345 -783.75)" fill="#fff"/><path d="M1361.493,792.728a3.033,3.033,0,0,0-.709,2.115,2.77,2.77,0,0,0,.616,1.929,1.907,1.907,0,0,0,.784.546,5.3,5.3,0,0,0,1.489.141h1.242v-5.136a3.327,3.327,0,0,0-1.515-.379A2.444,2.444,0,0,0,1361.493,792.728Z" transform="translate(-1065.586 -783.615)" fill="#fff"/><path d="M1267.533,789.181l.674-.477a1.88,1.88,0,0,0,.939-1.537,1.177,1.177,0,0,0-.391-.9,1.54,1.54,0,0,0-1.952-.027,1.073,1.073,0,0,0-.379.838,2.3,2.3,0,0,0,.3,1.054A3.889,3.889,0,0,0,1267.533,789.181Z" transform="translate(-1028.76 -781.257)" fill="#fff"/><path d="M1265.343,795.234q-1.375.925-1.375,1.877a1.116,1.116,0,0,0,.449.89,1.649,1.649,0,0,0,1.084.37,2.742,2.742,0,0,0,1.115-.282,4.123,4.123,0,0,0,1.106-.732l.4-.361-2-2.308Z" transform="translate(-1027.801 -784.685)" fill="#fff"/><path d="M1333.279,792.117a2.831,2.831,0,0,0-1.824.793V797.3a5.819,5.819,0,0,0,1.683.246,2.219,2.219,0,0,0,1.74-.758,2.814,2.814,0,0,0,.674-1.946,2.978,2.978,0,0,0-.63-1.966A2.037,2.037,0,0,0,1333.279,792.117Z" transform="translate(-1054.139 -783.682)" fill="#fff"/><path d="M1041.3,792.728a3.033,3.033,0,0,0-.709,2.115,2.767,2.767,0,0,0,.617,1.929,1.91,1.91,0,0,0,.784.546,5.3,5.3,0,0,0,1.489.141h1.243v-5.136a3.326,3.326,0,0,0-1.515-.379A2.446,2.446,0,0,0,1041.3,792.728Z" transform="translate(-940.625 -783.615)" fill="#fff"/><path d="M1061.984,791.973a1.975,1.975,0,0,0-1.414.519,2.576,2.576,0,0,0-.718,1.48h4.079a2.242,2.242,0,0,0-.573-1.48A1.841,1.841,0,0,0,1061.984,791.973Z" transform="translate(-948.141 -783.626)" fill="#fff"/><path d="M1227.418,778.283H885.836a9.2,9.2,0,0,0,0,18.4h341.582a9.2,9.2,0,0,0,0-18.4ZM1085.564,781h1.788l-1.991,2.643h-.987Zm-184.572,1.762h-4.8V786.2h4.8v1.568h-4.8V793.5h-1.762V781.194h6.564ZM912,793.5h-1.6v-1.039a3.746,3.746,0,0,1-1.168.869,3.03,3.03,0,0,1-1.308.311,2.723,2.723,0,0,1-1.414-.384,2.482,2.482,0,0,1-.978-1.04,5.2,5.2,0,0,1-.33-2.18V785.4h1.6v4.619a3.179,3.179,0,0,0,.365,1.782,1.478,1.478,0,0,0,1.282.506,2.346,2.346,0,0,0,1.947-1.119V785.4H912Zm11.743-3.911h-5.7a2.648,2.648,0,0,0,.78,1.85,2.57,2.57,0,0,0,1.855.687,4.826,4.826,0,0,0,2.925-.987v1.568a5.364,5.364,0,0,1-1.467.7,6.14,6.14,0,0,1-1.7.211,3.827,3.827,0,0,1-2.167-.555,4.032,4.032,0,0,1-1.326-1.493,4.566,4.566,0,0,1-.5-2.171,4.311,4.311,0,0,1,1.049-3.009,3.5,3.5,0,0,1,2.722-1.159,3.208,3.208,0,0,1,2.573,1.127,4.506,4.506,0,0,1,.96,3.022Zm11.1,3.911h-1.6v-4.617a3.158,3.158,0,0,0-.379-1.775,1.45,1.45,0,0,0-1.269-.533,2.309,2.309,0,0,0-1.929,1.136V793.5h-1.639V785.4h1.639v1.03a3.223,3.223,0,0,1,2.44-1.189,2.69,2.69,0,0,1,1.41.391,2.559,2.559,0,0,1,.991,1.076,5.147,5.147,0,0,1,.339,2.163Zm9.673-.379a4.047,4.047,0,0,1-2.018.52,2.673,2.673,0,0,1-1.833-.644,1.829,1.829,0,0,1-.379-.436,2.309,2.309,0,0,1-.251-.634,7.106,7.106,0,0,1-.1-1.493v-3.594h-1.41v-.159l3.013-2.96V785.4H944.1v1.445h-2.564v3.966q0,1.39,1.154,1.39a3.575,3.575,0,0,0,1.824-.573Zm10.641-3.533h-5.7a2.645,2.645,0,0,0,.779,1.85,2.572,2.572,0,0,0,1.855.687,4.824,4.824,0,0,0,2.925-.987v1.568a5.358,5.358,0,0,1-1.466.7,6.14,6.14,0,0,1-1.7.211,3.824,3.824,0,0,1-2.168-.555,4.033,4.033,0,0,1-1.326-1.493,4.56,4.56,0,0,1-.5-2.171A4.313,4.313,0,0,1,948.9,786.4a3.5,3.5,0,0,1,2.723-1.159,3.208,3.208,0,0,1,2.573,1.127,4.505,4.505,0,0,1,.96,3.022ZM963.788,793a3.061,3.061,0,0,1-2,.639,4.9,4.9,0,0,1-1.286-.154,8.614,8.614,0,0,1-1.418-.568v-1.727a7.3,7.3,0,0,0,1.388.771,3.244,3.244,0,0,0,1.193.3,1.5,1.5,0,0,0,.864-.247.709.709,0,0,0,.361-.59.8.8,0,0,0-.234-.586,5.448,5.448,0,0,0-1.009-.674,7.141,7.141,0,0,1-2.031-1.476,2.116,2.116,0,0,1-.48-1.335,1.874,1.874,0,0,1,.727-1.524,2.872,2.872,0,0,1,1.872-.59,5.156,5.156,0,0,1,2.441.669v1.586a4.883,4.883,0,0,0-2.335-.863,1.3,1.3,0,0,0-.753.2.611.611,0,0,0-.287.525.755.755,0,0,0,.26.538,4.443,4.443,0,0,0,.912.616l.573.326q2.027,1.146,2.027,2.537A2.019,2.019,0,0,1,963.788,793Zm18.562.5h-3.427a3.751,3.751,0,0,1-2.868-1.136,4.266,4.266,0,0,1-1.071-3.048,4.042,4.042,0,0,1,1.124-2.943,3.829,3.829,0,0,1,2.868-1.154,5.211,5.211,0,0,1,1.762.343v-4.37h1.612Zm11.664-3.911h-5.7a2.648,2.648,0,0,0,.78,1.85,2.57,2.57,0,0,0,1.855.687,4.825,4.825,0,0,0,2.925-.987v1.568a5.355,5.355,0,0,1-1.467.7,6.139,6.139,0,0,1-1.7.211,3.827,3.827,0,0,1-2.167-.555,4.033,4.033,0,0,1-1.326-1.493,4.569,4.569,0,0,1-.5-2.171,4.311,4.311,0,0,1,1.049-3.009,3.5,3.5,0,0,1,2.722-1.159,3.207,3.207,0,0,1,2.573,1.127,4.506,4.506,0,0,1,.96,3.022Zm17.375-6.828h-4.8V786.2h4.8v1.568h-4.8V793.5h-1.762V781.194h6.564Zm11.179,9.721a4.406,4.406,0,0,1-3.127,1.159,4.229,4.229,0,0,1-3.049-1.176,4.154,4.154,0,0,1,.013-5.9,4.313,4.313,0,0,1,3.106-1.185,4.226,4.226,0,0,1,3.074,1.194,4.014,4.014,0,0,1,1.225,3A3.811,3.811,0,0,1,1022.568,792.484Zm10.783-4.92a2.376,2.376,0,0,0-1.551-.793,1.662,1.662,0,0,0-1.344.74,2.8,2.8,0,0,0-.568,1.754V793.5h-1.612V785.4h1.612v1.859l.088-.141q1.163-1.878,2.326-1.877a2.87,2.87,0,0,1,1.894.916ZM1049.6,793.5H1048v-4.8a2.505,2.505,0,0,0-.414-1.551,1.413,1.413,0,0,0-1.19-.537,2.462,2.462,0,0,0-1.859,1V793.5h-1.612v-4.511a3.544,3.544,0,0,0-.361-1.881,1.412,1.412,0,0,0-1.26-.533,1.879,1.879,0,0,0-.92.229,4.031,4.031,0,0,0-.956.81V793.5h-1.6V785.4h1.6v1.066a3.489,3.489,0,0,1,2.4-1.224,2.633,2.633,0,0,1,2.388,1.463,3.617,3.617,0,0,1,2.687-1.48,2.478,2.478,0,0,1,1.943.863,3.892,3.892,0,0,1,.762,2.634Zm11.064-.467a5.237,5.237,0,0,1-.876.48,1.9,1.9,0,0,1-.692.128q-1.031,0-1.216-.811a3.489,3.489,0,0,1-2.176.793,1.92,1.92,0,0,1-1.41-.559,1.9,1.9,0,0,1-.564-1.405,1.977,1.977,0,0,1,.551-1.369,3.723,3.723,0,0,1,1.563-.956l2.053-.7V788.2a1.293,1.293,0,0,0-1.463-1.462,3.522,3.522,0,0,0-2.555,1.356v-1.753a3.328,3.328,0,0,1,2.687-1.1,3.1,3.1,0,0,1,2.106.687,2.162,2.162,0,0,1,.476.585,2.125,2.125,0,0,1,.269.732,10.88,10.88,0,0,1,.057,1.388v3.445c0,.276.093.414.282.414a1.946,1.946,0,0,0,.907-.432Zm10.078.159a6.745,6.745,0,0,1-2.361.449,3.892,3.892,0,0,1-4.168-4.15,4.319,4.319,0,0,1,1.1-3.083,3.794,3.794,0,0,1,2.9-1.172,4.859,4.859,0,0,1,1.124.119,7.348,7.348,0,0,1,1.229.445v1.709a4.262,4.262,0,0,0-2.255-.774,2.3,2.3,0,0,0-1.78.762,2.77,2.77,0,0,0-.7,1.943,2.62,2.62,0,0,0,.754,1.972,2.789,2.789,0,0,0,2.03.732,5.3,5.3,0,0,0,2.123-.537Zm6.043.308h-1.6V785.4h1.6Zm-.132-9.9a.926.926,0,0,1-.679.282.89.89,0,0,1-.652-.287.916.916,0,0,1,0-1.322.889.889,0,0,1,.652-.286.939.939,0,0,1,.679.273.9.9,0,0,1,.282.669A.915.915,0,0,1,1076.657,783.6Zm11.963,8.885a4.405,4.405,0,0,1-3.127,1.159,4.229,4.229,0,0,1-3.049-1.176,4.154,4.154,0,0,1,.013-5.9,4.314,4.314,0,0,1,3.106-1.185,4.227,4.227,0,0,1,3.074,1.194,4.015,4.015,0,0,1,1.225,3A3.81,3.81,0,0,1,1088.62,792.484Zm12.386,1.018h-1.6v-4.617a3.155,3.155,0,0,0-.379-1.775,1.449,1.449,0,0,0-1.269-.533,2.31,2.31,0,0,0-1.929,1.136V793.5h-1.639V785.4h1.639v1.03a3.223,3.223,0,0,1,2.44-1.189,2.69,2.69,0,0,1,1.41.391,2.558,2.558,0,0,1,.991,1.076,5.137,5.137,0,0,1,.339,2.163Zm18.471,0-1.433-1.68a7.6,7.6,0,0,1-.635.539l-.018.018a5.746,5.746,0,0,1-1.547.893,4.64,4.64,0,0,1-1.733.372,3.059,3.059,0,0,1-2.169-.833,2.675,2.675,0,0,1-.891-2.031,2.874,2.874,0,0,1,.436-1.559,5.458,5.458,0,0,1,1.423-1.419l.026-.026a8.712,8.712,0,0,1,1-.66,4.312,4.312,0,0,1-1.392-2.855,2.645,2.645,0,0,1,.855-2.044,3.156,3.156,0,0,1,2.22-.784,3.191,3.191,0,0,1,2.2.768,2.506,2.506,0,0,1,.863,1.958q0,1.614-2.158,3.14l-.124.1,1.734,1.976a8.317,8.317,0,0,0,1.323-1.984h1.762a11.162,11.162,0,0,1-2,3.229l2.5,2.885Zm17.373-.784a3.623,3.623,0,0,1-2.577.926,5.411,5.411,0,0,1-3.321-1.121v-2.238a4.145,4.145,0,0,0,3.3,1.808,2.077,2.077,0,0,0,1.379-.46,1.446,1.446,0,0,0,.551-1.155q0-1.123-1.621-2.132l-1.339-.814a6.085,6.085,0,0,1-1.793-1.514,2.865,2.865,0,0,1-.533-1.713,3.026,3.026,0,0,1,1.008-2.361,3.771,3.771,0,0,1,2.621-.907,4.954,4.954,0,0,1,2.828.865v2a4.076,4.076,0,0,0-2.863-1.279,2.372,2.372,0,0,0-1.418.4,1.212,1.212,0,0,0-.555,1.023,1.575,1.575,0,0,0,.409,1.035,5.143,5.143,0,0,0,1.315,1.014l1.346.8a3.944,3.944,0,0,1,2.252,3.424A3.138,3.138,0,0,1,1136.851,792.718Zm11.571.317a5.257,5.257,0,0,1-.877.48,1.9,1.9,0,0,1-.691.128q-1.031,0-1.216-.811a3.491,3.491,0,0,1-2.176.793,1.919,1.919,0,0,1-1.41-.559,1.9,1.9,0,0,1-.564-1.405,1.977,1.977,0,0,1,.551-1.369,3.723,3.723,0,0,1,1.564-.956l2.052-.7V788.2a1.292,1.292,0,0,0-1.462-1.462,3.521,3.521,0,0,0-2.555,1.356v-1.753a3.327,3.327,0,0,1,2.687-1.1,3.1,3.1,0,0,1,2.105.687,2.162,2.162,0,0,1,.476.585,2.115,2.115,0,0,1,.269.732,10.794,10.794,0,0,1,.057,1.388v3.445q0,.414.282.414a1.95,1.95,0,0,0,.908-.432Zm10.082-.551a4.238,4.238,0,0,1-3.123,1.159,8.735,8.735,0,0,1-1.652-.168,5.483,5.483,0,0,1-1.379-.422V781.194h1.6v4.784a3.7,3.7,0,0,1,2.22-.757,3.142,3.142,0,0,1,2.52,1.163,4.479,4.479,0,0,1,.978,2.987A4.191,4.191,0,0,1,1158.5,792.484Zm7.157,1.018h-1.6V785.4h1.6Zm-.132-9.9a.927.927,0,0,1-.679.282.891.891,0,0,1-.652-.287.916.916,0,0,1,0-1.322.89.89,0,0,1,.652-.286.941.941,0,0,1,.679.273.9.9,0,0,1,.282.669A.915.915,0,0,1,1165.529,783.6Zm12.051,9.9h-3.427a3.753,3.753,0,0,1-2.868-1.136,4.265,4.265,0,0,1-1.07-3.048,4.044,4.044,0,0,1,1.123-2.943,3.829,3.829,0,0,1,2.868-1.154,5.208,5.208,0,0,1,1.761.343v-4.37h1.613Zm11.522,0h-1.6v-1.039a3.754,3.754,0,0,1-1.168.869,3.034,3.034,0,0,1-1.308.311,2.727,2.727,0,0,1-1.414-.384,2.485,2.485,0,0,1-.977-1.04,5.2,5.2,0,0,1-.331-2.18V785.4h1.6v4.619a3.178,3.178,0,0,0,.366,1.782,1.476,1.476,0,0,0,1.282.506,2.347,2.347,0,0,0,1.948-1.119V785.4h1.6Zm10.017-5.938a2.376,2.376,0,0,0-1.551-.793,1.662,1.662,0,0,0-1.343.74,2.8,2.8,0,0,0-.568,1.754V793.5h-1.613V785.4h1.613v1.859l.089-.141q1.162-1.878,2.326-1.877a2.868,2.868,0,0,1,1.894.916Zm6.183,5.938h-1.6V785.4h1.6Zm-.159-9.858h-.987l1.19-2.643h1.788Zm11.337,9.391a5.237,5.237,0,0,1-.876.48,1.9,1.9,0,0,1-.692.128q-1.031,0-1.216-.811a3.489,3.489,0,0,1-2.176.793,1.92,1.92,0,0,1-1.41-.559,1.9,1.9,0,0,1-.564-1.405,1.974,1.974,0,0,1,.551-1.369,3.724,3.724,0,0,1,1.563-.956l2.053-.7V788.2a1.293,1.293,0,0,0-1.463-1.462,3.523,3.523,0,0,0-2.555,1.356v-1.753a3.328,3.328,0,0,1,2.687-1.1,3.1,3.1,0,0,1,2.106.687,2.16,2.16,0,0,1,.476.585,2.128,2.128,0,0,1,.269.732,10.88,10.88,0,0,1,.057,1.388v3.445c0,.276.093.414.282.414a1.946,1.946,0,0,0,.907-.432Z" transform="translate(-876.638 -778.283)" fill="#fff"/><path d="M1425.588,797.739a1.188,1.188,0,0,0-.018,1.643,1.136,1.136,0,0,0,.833.318,2.016,2.016,0,0,0,1.418-.626v-2.405l-1.075.414A3.644,3.644,0,0,0,1425.588,797.739Z" transform="translate(-1090.745 -785.458)" fill="#fff"/><path d="M1313.966,797.739a1.188,1.188,0,0,0-.018,1.643,1.135,1.135,0,0,0,.832.318,2.015,2.015,0,0,0,1.418-.626v-2.405l-1.074.414A3.63,3.63,0,0,0,1313.966,797.739Z" transform="translate(-1047.182 -785.458)" fill="#fff"/><path d="M998.261,791.973a1.977,1.977,0,0,0-1.414.519,2.576,2.576,0,0,0-.718,1.48h4.078a2.238,2.238,0,0,0-.573-1.48A1.84,1.84,0,0,0,998.261,791.973Z" transform="translate(-923.272 -783.626)" fill="#fff"/><path d="M946.74,791.973a1.975,1.975,0,0,0-1.414.519,2.574,2.574,0,0,0-.718,1.48h4.079a2.241,2.241,0,0,0-.573-1.48A1.84,1.84,0,0,0,946.74,791.973Z" transform="translate(-903.165 -783.626)" fill="#fff"/></g></g></svg>
