<svg xmlns="http://www.w3.org/2000/svg" width="37.339" height="29.794" viewBox="0 0 37.339 29.794">
  <path id="gorjeo" d="M13.083,28.7a30.09,30.09,0,0,1-4.647-.369,21.812,21.812,0,0,1-6.357-2.314L0,24.883l2.25-.74c2.459-.809,3.955-1.31,5.806-2.1a7.724,7.724,0,0,1-3.971-4.6l-.523-1.589.429.066a7.8,7.8,0,0,1-.977-1.205,7.4,7.4,0,0,1-1.255-4.4l.1-1.387.83.322a7.761,7.761,0,0,1-.752-2.108,8.022,8.022,0,0,1,.855-5.4L3.513.418,4.48,1.58A17.8,17.8,0,0,0,16.011,8.072a6.9,6.9,0,0,1,.419-3.664,6.861,6.861,0,0,1,2.789-3.2A8.378,8.378,0,0,1,24.081.016a7.766,7.766,0,0,1,4.774,1.969A16.025,16.025,0,0,0,30.6,1.4c.383-.144.818-.308,1.361-.5l2-.69L32.661,3.948c.086-.007.175-.013.268-.017l2.139-.1L33.8,5.561c-.073.1-.091.127-.117.166-.1.154-.229.345-1.964,2.662a3.269,3.269,0,0,0-.611,2.129,20.134,20.134,0,0,1-1.1,8.1,14.33,14.33,0,0,1-3.847,5.7,16.99,16.99,0,0,1-8.053,3.894A24.792,24.792,0,0,1,13.083,28.7Zm0,0" transform="translate(1.252 0.593)" fill="#003868" stroke="rgba(112,112,112,0)" stroke-width="1"/>
</svg>
