<svg xmlns="http://www.w3.org/2000/svg" xmlns:xlink="http://www.w3.org/1999/xlink" viewBox="0 0 791.75 191.58"><g fill="#fff"><path d="M226.66 93.12l16.46-17.95h11.1v48.4h-12.75v-30.2l-13.82 15.2h-1.94l-13.8-15.2v30.22h-12.76V75.16h11.1l16.4 17.96zm45.16 30.45h-12.76v-48.4h12.76v48.4zm56.74-48.4v48.4H317.8l-28.3-31v31h-12.75v-48.4h11.68l27.35 29.6v-29.6h12.77zm42.54 0h12.76v27.47c0 7.07-2.2 12.43-6.64 16.1-4.42 3.64-10.73 5.47-18.94 5.47-8.12 0-14.4-1.86-18.9-5.55-4.5-3.7-6.73-9-6.73-15.94V75.16h12.8V103c0 3.37 1.18 6.07 3.5 8.1 2.34 2.04 5.4 3.05 9.18 3.05 3.94 0 7.08-1.04 9.43-3.12 2.36-2.07 3.54-5.03 3.54-8.87v-27zm63.1 0v8.87h-18.54v39.54H402.9V84.04h-18.54v-8.87h49.84zm23.13-.62c-8.75 0-15.83 2.48-21.24 7.45-5.4 4.97-8.12 10.78-8.12 17.4 0 6.74 2.73 12.57 8.18 17.47 5.44 4.9 12.5 7.35 21.18 7.35 8.57 0 15.6-2.46 21.08-7.38 5.47-4.92 8.2-10.74 8.2-17.43 0-6.6-2.7-12.4-8.1-17.38-5.4-5-12.46-7.48-21.18-7.48m0 39.6c-4.87 0-8.78-1.36-11.75-4.07-2.97-2.72-4.46-6.28-4.46-10.7 0-4.44 1.5-8 4.46-10.7s6.88-4.06 11.75-4.06c4.84 0 8.73 1.35 11.7 4.06 2.95 2.7 4.43 6.27 4.43 10.7 0 4.4-1.48 7.97-4.43 10.7-2.97 2.7-6.86 4.07-11.7 4.07m52.37-39h22.58c8.72 0 15.6 2.26 20.7 6.78 5.07 4.52 7.6 10.35 7.6 17.52 0 7.5-2.58 13.4-7.72 17.7-5.14 4.28-12.48 6.42-22 6.42H509.7v-48.4zm12.76 8.88v30.67h8.32c5.4 0 9.52-1.4 12.38-4.2 2.85-2.8 4.3-6.5 4.3-11.1 0-4.75-1.45-8.5-4.34-11.25-2.9-2.73-7.06-4.1-12.48-4.1h-8.17zm78.46 30.66v8.87h-37.74v-48.4h37.23v8.87h-24.48V94.2h23.36v8.87h-23.36v11.64h25zm23.62-39.54h22.58c8.72 0 15.6 2.26 20.7 6.78 5.07 4.52 7.6 10.35 7.6 17.52 0 7.5-2.58 13.4-7.72 17.7-5.14 4.28-12.5 6.42-22 6.42h-21.15v-48.4zm12.76 8.88v30.67h8.32c5.4 0 9.52-1.4 12.38-4.2 2.85-2.8 4.3-6.5 4.3-11.1 0-4.75-1.45-8.5-4.34-11.25-2.9-2.73-7.06-4.1-12.48-4.1h-8.17zm53.77 39.53H678.3v-48.4h12.76v48.4zm32.03-49.03c8.72 0 15.8 2.5 21.18 7.47 5.4 4.98 8.1 10.76 8.1 17.38 0 6.7-2.74 12.5-8.2 17.43-5.48 4.92-12.5 7.38-21.08 7.38-8.67 0-15.74-2.45-21.18-7.35-5.46-4.9-8.18-10.73-8.18-17.47 0-6.62 2.72-12.43 8.12-17.4 5.4-4.96 12.5-7.44 21.24-7.44m0 39.6c4.84 0 8.73-1.36 11.7-4.07 2.95-2.72 4.43-6.28 4.43-10.7 0-4.44-1.48-8-4.43-10.7-2.97-2.7-6.85-4.06-11.7-4.06-4.87 0-8.78 1.35-11.75 4.06-2.96 2.7-4.45 6.27-4.45 10.7 0 4.4 1.5 7.97 4.45 10.7 2.97 2.7 6.88 4.07 11.75 4.07m66.33-35.86v9.46c-6.8-2.9-12.2-4.34-16.22-4.34-2.3 0-4.13.37-5.48 1.1-1.36.72-2.04 1.7-2.04 2.9 0 .93.5 1.8 1.46 2.64.98.83 3.37 1.9 7.14 3.23 3.8 1.3 6.82 2.53 9.1 3.67s4.23 2.73 5.88 4.78c1.65 2.06 2.48 4.66 2.48 7.8 0 4.47-1.8 8.04-5.4 10.7-3.6 2.65-8.36 4-14.24 4-6.36 0-12.5-1.56-18.48-4.68V109.1c3.43 2.18 6.46 3.76 9.1 4.76s5.43 1.5 8.4 1.5c5 0 7.5-1.5 7.5-4.47 0-1.02-.5-1.97-1.5-2.87s-3.42-2-7.24-3.3-6.84-2.5-9.08-3.6-4.16-2.7-5.8-4.75c-1.63-2.06-2.44-4.7-2.44-7.9 0-4.15 1.78-7.5 5.32-10.06s8.28-3.83 14.22-3.83c5.47-.04 11.25 1.2 17.33 3.7M221.3 59.55v4.34c-2.8 1.32-5.7 1.98-8.76 1.98-3.96 0-7.1-.98-9.46-2.92-2.34-1.95-3.52-4.35-3.52-7.2s1.24-5.28 3.7-7.27c2.48-2 5.7-3 9.7-3 3.18 0 5.88.6 8.08 1.75v4.42c-2.7-1.36-5.26-2.04-7.68-2.04-2.37 0-4.3.57-5.8 1.7s-2.26 2.58-2.26 4.33c0 1.76.74 3.22 2.23 4.37 1.48 1.14 3.38 1.72 5.7 1.72a13.91 13.91 0 0 0 3.32-.4c1.06-.27 2.65-.86 4.75-1.78m13.24-14.07c3.8 0 6.88 1.02 9.23 3.07 2.35 2.04 3.53 4.42 3.53 7.13 0 2.75-1.2 5.13-3.57 7.16-2.4 2.02-5.45 3.03-9.18 3.03-3.78 0-6.85-1-9.22-3.02-2.38-2-3.56-4.4-3.56-7.17 0-2.72 1.18-5.1 3.54-7.14 2.33-2.04 5.42-3.06 9.23-3.06m0 16.26c2.1 0 3.8-.56 5.1-1.67 1.3-1.12 1.93-2.58 1.93-4.4s-.64-3.3-1.93-4.4-3-1.67-5.1-1.67c-2.12 0-3.83.55-5.12 1.67-1.3 1.1-1.94 2.57-1.94 4.4 0 1.8.65 3.27 1.94 4.4 1.3 1.1 3 1.67 5.12 1.67m13.76-16h9.96c2.16 0 3.92.56 5.27 1.67 1.35 1.12 2.03 2.47 2.03 4.05 0 2.2-1.27 3.8-3.83 4.87 1.13.45 2.2 1.67 3.2 3.66l2.92 5.63h-6.1c-.36-.66-1-1.9-1.9-3.74-.9-1.83-1.67-3.02-2.32-3.54-.64-.52-1.34-.78-2.07-.78h-1.6v8.06h-5.56v-19.9zm5.56 3.65v4.53h2.94c.94 0 1.68-.2 2.22-.6.55-.4.82-.95.82-1.7 0-1.5-1.06-2.25-3.18-2.25h-2.8zm13.77-3.65V65.6h5.56v-7.98h4.42c2.27 0 4.06-.6 5.37-1.76 1.3-1.18 1.97-2.6 1.97-4.24 0-1.6-.66-2.97-2-4.14s-3.13-1.75-5.38-1.75h-9.95zm5.56 3.65h1.96c1.5 0 2.54.17 3.16.5.6.34.93.94.93 1.8 0 1.53-1.16 2.3-3.47 2.3h-2.58v-4.6zm24.47-3.9c3.8 0 6.88 1.02 9.22 3.07 2.35 2.04 3.53 4.42 3.53 7.13 0 2.75-1.2 5.13-3.57 7.16-2.4 2.02-5.45 3.03-9.18 3.03-3.78 0-6.86-1-9.23-3.02-2.38-2-3.56-4.4-3.56-7.17 0-2.72 1.18-5.1 3.54-7.14s5.44-3.06 9.25-3.06m0 16.26c2.1 0 3.8-.56 5.1-1.67 1.3-1.12 1.93-2.58 1.93-4.4s-.64-3.3-1.93-4.4-3-1.67-5.1-1.67c-2.12 0-3.83.55-5.12 1.67-1.3 1.1-1.94 2.57-1.94 4.4 0 1.8.65 3.27 1.94 4.4 1.3 1.1 3 1.67 5.12 1.67m13.76-16h9.96c2.16 0 3.92.56 5.27 1.67 1.35 1.12 2.03 2.47 2.03 4.05 0 2.2-1.28 3.8-3.83 4.87 1.13.45 2.2 1.67 3.2 3.66l2.92 5.63h-6.1c-.36-.66-1-1.9-1.9-3.74-.9-1.83-1.67-3.02-2.32-3.54-.64-.52-1.34-.78-2.07-.78h-1.6v8.06h-5.56v-19.9zm5.56 3.65v4.53h2.94c.94 0 1.68-.2 2.22-.6.55-.4.82-.95.82-1.7 0-1.5-1.06-2.25-3.18-2.25h-2.8zm26.6-3.65h-6.45l-9 19.87h5.9l1.66-3.93h9.98l1.84 3.93h5.97l-9.9-19.87zm.45 12.48h-6.86l3.27-7.72 3.6 7.72zm28.5 1.34v4.34a20.21 20.21 0 0 1-8.76 1.98c-3.96 0-7.1-.98-9.46-2.92-2.34-1.95-3.52-4.35-3.52-7.2s1.24-5.28 3.7-7.27c2.48-2 5.7-3 9.7-3 3.18 0 5.87.6 8.08 1.75v4.42c-2.7-1.36-5.26-2.04-7.68-2.04-2.37 0-4.3.57-5.8 1.7s-2.26 2.58-2.26 4.33c0 1.76.74 3.22 2.23 4.37 1.48 1.14 3.38 1.72 5.7 1.72 1.15 0 2.25-.14 3.32-.4 1.05-.27 2.64-.86 4.74-1.78m7.16 6.06h-5.56v-19.9h5.56V65.6zm13.95-20.13c3.8 0 6.88 1.02 9.22 3.07 2.36 2.04 3.53 4.42 3.53 7.13 0 2.75-1.2 5.13-3.58 7.16-2.4 2.02-5.45 3.03-9.18 3.03-3.78 0-6.85-1-9.23-3.02s-3.56-4.4-3.56-7.17c0-2.72 1.18-5.1 3.54-7.14s5.45-3.06 9.26-3.06m0 16.26c2.1 0 3.8-.56 5.1-1.67 1.3-1.12 1.93-2.58 1.93-4.4s-.64-3.3-1.93-4.4-3-1.67-5.1-1.67c-2.12 0-3.83.55-5.12 1.67-1.3 1.1-1.94 2.57-1.94 4.4 0 1.8.65 3.27 1.94 4.4 1.3 1.1 3 1.67 5.12 1.67m5.2-22.18l-5.4 4.25H391l2.43-4.25h5.4zm31.15 6.17V65.6h-4.68l-12.33-12.73V65.6h-5.55V45.73h5.1l11.9 12.15V45.73h5.56zm31.86 13.82v4.34a20.21 20.21 0 0 1-8.76 1.98c-3.96 0-7.1-.98-9.46-2.92-2.34-1.95-3.52-4.35-3.52-7.2s1.24-5.28 3.7-7.27c2.48-2 5.7-3 9.7-3 3.18 0 5.87.6 8.08 1.75v4.42c-2.7-1.36-5.26-2.04-7.68-2.04-2.37 0-4.3.57-5.8 1.7s-2.26 2.58-2.26 4.33c0 1.76.74 3.22 2.23 4.37 1.48 1.14 3.38 1.72 5.7 1.72a13.91 13.91 0 0 0 3.32-.4c1.06-.27 2.64-.86 4.75-1.78m17.9 2.42v3.64H463.3v-19.9h16.2v3.64h-10.66v4.17H479v3.64h-10.17v4.78h10.9zm23.82-16.24V65.6h-4.68l-12.33-12.73V65.6H481V45.73h5.1L498 57.88V45.73h5.56zm22.12 0v3.64h-8.08v16.2h-5.56V49.38h-8.08v-3.64h21.72zm.37 0H536c2.16 0 3.92.56 5.27 1.67 1.35 1.12 2.03 2.47 2.03 4.05 0 2.2-1.27 3.8-3.83 4.87 1.13.45 2.2 1.67 3.2 3.66l2.9 5.63h-6.12c-.36-.66-1-1.9-1.9-3.74-.9-1.83-1.67-3.02-2.32-3.54-.64-.52-1.33-.78-2.06-.78h-1.6v8.06h-5.56v-19.9zm5.56 3.65v4.53h2.94c.94 0 1.68-.2 2.22-.6.55-.4.82-.95.82-1.7 0-1.5-1.06-2.25-3.18-2.25h-2.8zm24.88-3.9c-3.8 0-6.9 1.02-9.25 3.06s-3.54 4.42-3.54 7.14c0 2.77 1.2 5.16 3.56 7.17s5.45 3.02 9.23 3.02c3.73 0 6.8-1 9.18-3.03 2.38-2.02 3.57-4.4 3.57-7.16 0-2.72-1.18-5.1-3.53-7.13-2.34-2.05-5.42-3.07-9.22-3.07m0 16.26c-2.12 0-3.83-.56-5.12-1.67-1.3-1.12-1.94-2.58-1.94-4.4s.65-3.3 1.94-4.4 3-1.67 5.12-1.67c2.1 0 3.8.55 5.1 1.67 1.3 1.1 1.93 2.57 1.93 4.4 0 1.8-.64 3.27-1.93 4.4-1.28 1.1-2.98 1.67-5.1 1.67m43.63-2.2v4.34a20.18 20.18 0 0 1-8.76 1.98c-3.96 0-7.1-.98-9.46-2.92-2.34-1.95-3.52-4.35-3.52-7.2s1.24-5.28 3.7-7.27c2.48-2 5.7-3 9.7-3 3.18 0 5.87.6 8.08 1.75v4.42c-2.7-1.36-5.26-2.04-7.68-2.04-2.37 0-4.3.57-5.8 1.7s-2.26 2.58-2.26 4.33c0 1.76.74 3.22 2.23 4.37 1.48 1.14 3.38 1.72 5.7 1.72a13.91 13.91 0 0 0 3.32-.4c1.05-.27 2.64-.86 4.74-1.78m14.45-13.82h-6.45l-9 19.87h5.9l1.66-3.93h9.98l1.84 3.93h5.97l-9.9-19.87zm.45 12.48h-6.87l3.27-7.72 3.6 7.72zm9.02-12.48H634c2.16 0 3.92.56 5.27 1.67 1.35 1.12 2.03 2.47 2.03 4.05 0 2.2-1.28 3.8-3.83 4.87 1.13.45 2.2 1.67 3.2 3.66l2.9 5.63h-6.1c-.36-.66-1-1.9-1.9-3.74-.9-1.83-1.67-3.02-2.3-3.54s-1.34-.78-2.07-.78h-1.6v8.06h-5.56v-19.9zm5.56 3.65v4.53h2.94c.94 0 1.68-.2 2.22-.6.55-.4.82-.95.82-1.7 0-1.5-1.06-2.25-3.18-2.25h-2.8zm19.3-3.65h-5.56V65.6h5.56V45.73zm17.25 1.3v3.88c-2.96-1.2-5.3-1.78-7.07-1.78-1 0-1.8.15-2.4.45s-.9.7-.9 1.18c0 .38.2.74.64 1.08.42.34 1.46.78 3.1 1.32s2.97 1.04 3.96 1.5 1.84 1.12 2.56 1.96c.72.85 1.08 1.9 1.08 3.2 0 1.84-.78 3.3-2.35 4.4s-3.64 1.64-6.2 1.64c-2.77 0-5.45-.64-8.05-1.92v-4.28c1.5.9 2.8 1.54 3.96 1.95s2.37.6 3.66.6c2.18 0 3.27-.6 3.27-1.84 0-.42-.22-.8-.65-1.18-.44-.38-1.5-.82-3.15-1.36-1.66-.53-2.98-1.03-3.96-1.48a7.45 7.45 0 0 1-2.52-1.95c-.7-.85-1.06-1.92-1.06-3.24 0-1.7.77-3.08 2.32-4.13s3.6-1.57 6.2-1.57c2.37.02 4.9.53 7.54 1.56m13.6 6.1l7.17-7.37h4.83V65.6h-5.55V53.2l-6.02 6.23h-.84l-6.02-6.23v12.4h-5.56V45.73h4.84l7.15 7.38zm26.97-7.38h-6.45l-9 19.87h5.9l1.66-3.93h9.98l1.84 3.93h5.97l-9.9-19.87zm.44 12.48h-6.87l3.27-7.72 3.6 7.72zm2-18.65l-5.4 4.25h-2.43l2.43-4.25h5.4zm27.14 6.17v3.64h-8.08v16.2h-5.56V49.38h-8.07v-3.64h21.7zm6.1 19.88h-5.56v-19.9h5.56V65.6zm22.9-6.06v4.34c-2.8 1.32-5.7 1.98-8.76 1.98-3.96 0-7.1-.98-9.46-2.92-2.34-1.95-3.52-4.35-3.52-7.2s1.24-5.28 3.7-7.27c2.48-2 5.7-3 9.7-3 3.18 0 5.88.6 8.08 1.75v4.42c-2.7-1.36-5.26-2.04-7.68-2.04-2.37 0-4.3.57-5.8 1.7s-2.26 2.58-2.26 4.33c0 1.76.74 3.22 2.23 4.37 1.48 1.14 3.38 1.72 5.7 1.72 1.15 0 2.25-.14 3.32-.4 1.06-.27 2.64-.86 4.75-1.78M778.5 45.5c3.8 0 6.88 1.02 9.23 3.07 2.35 2.04 3.53 4.42 3.53 7.13 0 2.75-1.2 5.13-3.57 7.16-2.38 2.02-5.45 3.03-9.18 3.03-3.78 0-6.85-1-9.22-3.02-2.38-2-3.56-4.4-3.56-7.17 0-2.72 1.18-5.1 3.54-7.14 2.34-2.04 5.43-3.06 9.23-3.06m0 16.26c2.1 0 3.8-.56 5.1-1.67 1.28-1.12 1.93-2.58 1.93-4.4s-.64-3.3-1.93-4.4-3-1.67-5.1-1.67c-2.12 0-3.82.55-5.12 1.67-1.3 1.1-1.94 2.57-1.94 4.4 0 1.8.65 3.27 1.94 4.4 1.3 1.1 3 1.67 5.12 1.67"/><use xlink:href="#B"/><use xlink:href="#B" x="30.17"/><use xlink:href="#B" x="60.34"/><use xlink:href="#C"/><path d="M417.43 151.74h-5.62v-8.47c0-1.12-.2-1.96-.55-2.52-.37-.56-.95-.83-1.75-.83-.78 0-1.42.24-1.92.7s-1 1.07-1.5 1.8v9.33h-5.62v-8.47c0-1.07-.17-1.9-.52-2.48-.34-.58-.95-.87-1.83-.87-.42 0-.8.08-1.15.25s-.63.35-.85.56-.48.52-.8.92l-.6.76v9.33h-5.62v-15.88h5.62v2.28c.84-.9 1.7-1.54 2.57-1.95s1.88-.6 3.03-.6a7.59 7.59 0 0 1 1.54.15c.5.1.97.27 1.44.5s.9.57 1.3.98c.38.42.7.9.92 1.45.9-1.02 1.84-1.8 2.82-2.3.97-.52 2.1-.78 3.36-.78s2.33.26 3.2.76c.86.5 1.5 1.25 1.9 2.2s.62 2.13.62 3.5v9.68zm12.13 0h-5.63v-15.88h5.63v15.88zm-.45-19.55a2.25 2.25 0 0 1-.7 1.67 2.31 2.31 0 0 1-1.67.69c-.44 0-.83-.1-1.2-.3a2.31 2.31 0 0 1-.85-.85 2.43 2.43 0 0 1-.3-1.2 2.31 2.31 0 0 1 .69-1.67 2.22 2.22 0 0 1 1.67-.7 2.28 2.28 0 0 1 1.67.7c.45.47.7 1.02.7 1.67zm24.15 19.55h-5.62v-8.56c0-.88-.14-1.64-.43-2.3s-.9-.97-1.88-.97a2.79 2.79 0 0 0-1.2.26c-.34.16-.66.4-.94.66s-.5.53-.7.78l-.58.8v9.33h-5.62v-15.88h5.62v2.28c.88-.95 1.77-1.6 2.66-2s1.88-.57 2.97-.57c3.8 0 5.7 2.28 5.7 6.83v9.33zm22.98 0h-5.62v-2.26c-.8.85-1.62 1.5-2.5 1.9-.87.42-1.92.63-3.14.63-2.4 0-3.95-.7-4.65-2.1s-1.06-2.98-1.06-4.74v-9.33h5.62v8.58c0 .86.14 1.62.43 2.27s.9.97 1.87.97c.83 0 1.48-.23 1.96-.7s.97-1.07 1.47-1.8v-9.33h5.62v15.9zm19-.92c-.58.28-1.4.55-2.4.8s-2 .4-2.94.4c-4.05 0-6.07-1.98-6.07-5.93v-6.33h-2.54v-.98l7.54-7.68h.64v4.76h5.37v3.9h-5.37v5.1c0 .6.04 1.07.1 1.44s.28.67.62.9.85.37 1.54.37c.9 0 2.07-.37 3.53-1.12v4.37zm22.87-7.04c0 1.58-.34 3-1.03 4.23s-1.7 2.2-3.08 2.93-3.03 1.08-5 1.08-3.63-.36-5-1.08-2.4-1.7-3.07-2.93c-.68-1.24-1.02-2.65-1.02-4.23 0-1.2.2-2.28.57-3.26s.96-1.84 1.73-2.6c.77-.75 1.73-1.33 2.86-1.74s2.44-.6 3.93-.6c1.5 0 2.82.2 3.97.62s2.1 1 2.86 1.72a7.41 7.41 0 0 1 1.71 2.59c.38 1 .57 2.1.57 3.28zm-5.9 0c0-1.26-.27-2.24-.82-2.96-.55-.7-1.34-1.07-2.38-1.07-1.03 0-1.82.36-2.36 1.07-.55.7-.82 1.7-.82 2.96 0 1.25.28 2.24.83 2.96.55.73 1.34 1.1 2.36 1.1 1.04 0 1.83-.36 2.38-1.08.54-.72.8-1.7.8-2.97zm28.5 7.96h-5.63v-1.44a9.64 9.64 0 0 1-1.88 1.23c-.66.33-1.57.48-2.74.48-1.16 0-2.3-.3-3.4-.86s-2.03-1.46-2.75-2.68c-.72-1.2-1.08-2.74-1.08-4.58 0-1.45.27-2.8.8-4.06s1.4-2.3 2.54-3.08 2.57-1.2 4.24-1.2c1.04 0 1.88.12 2.53.34.65.23 1.22.52 1.72.87v-6.68h5.63v21.65zm-5.63-5.05v-6.07l-1.54-.78c-.37-.16-.8-.23-1.3-.23-.88 0-1.62.38-2.2 1.12-.6.75-.88 1.77-.88 3.06 0 1.4.3 2.43.93 3.07s1.34.96 2.16.96c.68 0 1.22-.1 1.64-.32a7.44 7.44 0 0 0 1.2-.81zm28.35-1.53h-11.2a3.9 3.9 0 0 0 1.6 2.37c.85.62 1.82.92 2.9.92 1.9 0 3.98-.53 6.27-1.6v3.48c-.82.43-1.82.8-3 1.16s-2.66.52-4.47.52c-1.96 0-3.62-.36-5-1.1s-2.4-1.72-3.08-2.96c-.68-1.25-1.02-2.66-1.02-4.24 0-1.56.34-2.96 1.02-4.2s1.7-2.2 3.08-2.9 3.04-1.05 5-1.05c1.3 0 2.54.28 3.74.83 1.2.56 2.2 1.47 2.97 2.73s1.16 2.9 1.16 4.9v1.12zm-5.27-2.78c0-1.02-.25-1.83-.76-2.44-.5-.6-1.23-.9-2.18-.9-.94 0-1.7.3-2.27.93s-.87 1.43-.87 2.43h6.08zm27.73 9.36h-5.63v-1.44a9.64 9.64 0 0 1-1.88 1.23c-.66.33-1.57.48-2.74.48-1.15 0-2.3-.3-3.4-.86s-2.03-1.46-2.75-2.68c-.72-1.2-1.08-2.74-1.08-4.58 0-1.45.27-2.8.8-4.06s1.4-2.3 2.54-3.08 2.57-1.2 4.24-1.2c1.04 0 1.88.12 2.53.34a7.3 7.3 0 0 1 1.72.87v-6.68h5.63v21.65zm-5.64-5.05v-6.07l-1.54-.78c-.37-.16-.8-.23-1.3-.23-.88 0-1.62.38-2.2 1.12-.6.75-.88 1.77-.88 3.06 0 1.4.3 2.43.93 3.07s1.34.96 2.16.96c.68 0 1.22-.1 1.64-.32s.82-.5 1.2-.8zm17.97 5.05h-5.63v-15.88h5.63v15.88zm-.45-19.55a2.25 2.25 0 0 1-.7 1.67 2.31 2.31 0 0 1-1.67.69 2.43 2.43 0 0 1-1.2-.3 2.31 2.31 0 0 1-.85-.85 2.43 2.43 0 0 1-.3-1.2 2.31 2.31 0 0 1 .69-1.67 2.22 2.22 0 0 1 1.67-.7 2.28 2.28 0 0 1 1.67.7c.46.47.7 1.02.7 1.67zm24.74 11.6c0 1.58-.34 3-1.03 4.23s-1.7 2.2-3.08 2.93-3.03 1.08-5 1.08-3.63-.36-5-1.08-2.4-1.7-3.07-2.93c-.68-1.24-1.02-2.65-1.02-4.23 0-1.2.2-2.28.57-3.26s.96-1.84 1.73-2.6c.77-.75 1.73-1.33 2.86-1.74s2.44-.6 3.93-.6c1.5 0 2.82.2 3.97.62s2.1 1 2.86 1.72a7.41 7.41 0 0 1 1.71 2.59c.37 1 .57 2.1.57 3.28zm-5.92 0c0-1.26-.27-2.24-.82-2.96-.54-.7-1.34-1.07-2.38-1.07-1.03 0-1.82.36-2.36 1.07-.55.7-.82 1.7-.82 2.96 0 1.25.28 2.24.83 2.96.55.73 1.34 1.1 2.36 1.1 1.04 0 1.83-.36 2.38-1.08.54-.72.8-1.7.8-2.97zm24.13 3.32c0 1.46-.53 2.64-1.6 3.55s-2.65 1.37-4.75 1.37c-1.18 0-2.22-.1-3.14-.32s-1.9-.52-3-.9v-4c.95.54 1.77.95 2.46 1.23.7.28 1.46.42 2.3.42 1.4 0 2.1-.38 2.1-1.15a.97.97 0 0 0-.3-.7c-.2-.2-.56-.43-1.06-.7l-2.02-.9c-1.04-.46-1.92-1.07-2.65-1.84s-1.1-1.7-1.1-2.82c0-.8.24-1.55.73-2.28.48-.73 1.2-1.32 2.2-1.8.98-.46 2.16-.7 3.54-.7.33 0 .76.02 1.27.07.52.05 1.16.17 1.95.37s1.53.48 2.24.84v3.88l-.83-.5c-.22-.14-.52-.3-.9-.45-.38-.17-.8-.3-1.32-.45-.5-.13-1.02-.2-1.55-.2-.65 0-1.1.12-1.33.38-.24.25-.36.5-.36.75 0 .26.12.5.38.72.25.22.8.5 1.67.84 1.25.48 2.25.97 3 1.47s1.28 1.06 1.6 1.66c.3.6.47 1.32.47 2.14z"/><use xlink:href="#C" x="269.37"/><path d="M669.14 134.14c-.85-.2-1.54-.3-2.07-.3-.6 0-1.07.2-1.4.6s-.5.96-.5 1.7v.56H668v3.8h-2.84v11.25h-5.63V140.5h-2.6v-3.8h2.6v-.28a7.91 7.91 0 0 1 .65-3.16c.43-1 1.15-1.8 2.16-2.46s2.34-.97 4-.97c.94 0 1.88.1 2.82.3v4.03zm32.33 17.6h-5.62v-8.47c0-1.12-.2-1.96-.55-2.52-.37-.56-.95-.83-1.75-.83-.78 0-1.42.24-1.92.7s-1 1.07-1.5 1.8v9.33h-5.62v-8.47c0-1.07-.17-1.9-.52-2.48-.34-.58-.95-.87-1.82-.87-.42 0-.8.08-1.15.25s-.63.35-.85.56-.48.52-.8.92l-.6.76v9.33h-5.62v-15.88h5.62v2.28c.84-.9 1.7-1.54 2.58-1.95.87-.4 1.88-.6 3.03-.6a7.59 7.59 0 0 1 1.54.15c.5.1.97.27 1.44.5s.9.57 1.3.98c.38.42.7.9.92 1.45.9-1.02 1.84-1.8 2.82-2.3.97-.52 2.1-.78 3.36-.78s2.33.26 3.2.76c.86.5 1.5 1.25 1.9 2.2s.62 2.13.62 3.5v9.68z"/></g><g fill-rule="evenodd"><path d="M10.2 24.2h161c5.62 0 10.2 4.7 10.2 10.45V154.8c0 5.75-4.6 10.45-10.2 10.45h-161c-5.62 0-10.2-4.7-10.2-10.45V34.64C0 28.9 4.6 24.2 10.2 24.2" fill="#00437a"/><path d="M22.73 60.77v70.7H44.2v-33.1l15.55 18.8 15.1-19.56v33.85h59.03c46.55-8.03 36.46-70.7-3.84-70.7H75.6L59.84 85.12l-16.4-24.35h-20.7zm96.58 17.3c30.1-1.25 25.73 38.87 0 34.6v-34.6z" fill="#efcd1f"/><path d="M88.57 5.92L86.9 7.7l-.4 1.2-2.72.32-.68 8.02 1.82.95-.7.64 3.5.5.22 13.9 1.38.01-.3 22.35-12.8 6.6-4.7 4.18-5.05 4.1-11.9 9.6-7.54 5.04L33.17 94c-3.38 1.33-3.1 10.85 3.86 9.08l17.13-10.62L74.9 78.92l.84-3.12 12.78-8.04 2.34 47.4 1.76 3.1.67 55.52.35 15.5 2.27 1.4c2.4.98 8.85 1.5 8.55-.13l-.48-19.73.02-25.78-1.12-1.18-.47-31.23-1.37-1.46-.02-14.25-2.44-3.6-.16-29.52 4-1.35L130.6 42l21.68-15.35 3.34-3.03.5-1.46-2.57-5-2.27-.4-13.24 8.84-10.2 7.06-3.26 2.45-4.54 2.48-6.13 3.97-15.37 10.87-.01-16-.5-31.93-.47-1.15-6.34 1.34-2.66 1.23z" fill="#00437a"/><path d="M90.2 2.57l-1.67 1.78-.4 1.2-2.72.32-.68 8.02 1.82.95-.7.64 3.5.5.22 13.9 1.38.01-.3 22.35-12.8 6.6-4.7 4.2-5.06 4.1-11.9 9.6-7.54 5.04-13.86 8.87c-3.38 1.33-3.1 10.85 3.86 9.1L55.78 89.1l20.74-13.55.84-3.13 12.78-8.04 2.34 47.4 1.76 3.1.67 55.52.35 15.5 2.27 1.4c2.4.98 8.85 1.5 8.55-.13l-.48-19.73.02-25.8-1.12-1.17-.47-31.23-1.37-1.46-.02-14.25-2.45-3.6-.16-29.5 4-1.35 28.2-20.46 21.68-15.35 3.34-3.03.5-1.46-2.57-5-2.27-.4-13.24 8.84-10.2 7.06-3.26 2.45-4.54 2.48-6.13 3.97-15.38 10.88-.01-16.02-.5-31.93L99.2 0l-6.34 1.34-2.66 1.23z" fill="#fff"/></g><defs ><path id="B" d="M312.06 135.86l-6.27 15.88h-3.54l-3.54-8.66-3.53 8.66h-3.54l-6.43-15.88h5.7l2.9 8.02 3.1-8.02h3.57l3.14 8.02 2.8-8.02h5.63z"/><path id="C" d="M383.35 148.67c0 .94-.32 1.73-.96 2.38s-1.43.97-2.36.97-1.72-.33-2.4-.98c-.67-.66-1-1.45-1-2.37 0-.94.33-1.73 1-2.38s1.46-.97 2.4-.97c.58 0 1.14.15 1.66.45s.93.7 1.22 1.22a3.29 3.29 0 0 1 .44 1.68z"/></defs></svg>
