<svg xmlns="http://www.w3.org/2000/svg" xmlns:xlink="http://www.w3.org/1999/xlink" width="100" height="28.813" viewBox="0 0 343.586 98.996"><defs><linearGradient id="a" x1="-2.675" y1="2.146" x2="-1.898" y2="0.979" gradientUnits="objectBoundingBox"><stop offset="0" stop-color="#1391bc" stop-opacity="0.302"/><stop offset="0.126" stop-color="#1391bc" stop-opacity="0.243"/><stop offset="0.561" stop-color="#1391bc" stop-opacity="0.067"/><stop offset="0.8" stop-color="#1391bc" stop-opacity="0"/></linearGradient><linearGradient id="b" x1="-58.551" y1="-12.889" x2="-57.548" y2="-12.225" xlink:href="#a"/></defs><g transform="translate(-757.416 -979.668)"><path d="M911.652,1038.848H898.1V993.906h13.552Z" fill="#fff"/><path d="M969.1,1038.848H951.687l-4.767-5.643q-.228-.322-2.82-3.453t-3.438-4.264q-3.891,5.253-6.355,8.3l-4.118,5.059H913.035l19.067-23.379L913.91,993.906h17.317l3.08,3.76q2.656,3.276,6.355,8.172,3.534-5.188,5.643-7.686l3.533-4.246H966.83l-17.478,21.563Z" fill="#fff"/><path d="M1013.51,1004.832H997.039v34.016H983.518v-34.016H967.045V993.906h46.465Z" fill="#fff"/><path d="M1063.6,1018.711a20.788,20.788,0,0,1-2.156,9.842,17.288,17.288,0,0,1-5.708,6.435,24.558,24.558,0,0,1-7.652,3.4,33.3,33.3,0,0,1-8.187,1.039,32.478,32.478,0,0,1-11.106-1.948,19.734,19.734,0,0,1-9.031-6.613q-3.63-4.669-3.631-12.16v-24.8h13.522v21.3a18.217,18.217,0,0,0,1.281,7.344,8.887,8.887,0,0,0,3.566,4.248,11.329,11.329,0,0,0,10.684.015,8.774,8.774,0,0,0,3.584-4.214,18.157,18.157,0,0,0,1.281-7.329V993.906H1063.6Z" fill="#fff"/><path d="M1101,1025.779a12.4,12.4,0,0,1-2.156,7.3,13.635,13.635,0,0,1-6.014,4.717,22.479,22.479,0,0,1-8.852,1.639q-1.393,0-3.421-.18a38.5,38.5,0,0,1-5.383-.988,42.2,42.2,0,0,1-6.988-2.4V1024.84a49.5,49.5,0,0,0,6.7,3.5,17.88,17.88,0,0,0,7.053,1.394q3.468,0,4.49-1.152a3.366,3.366,0,0,0,1.021-2.156,3.678,3.678,0,0,0-1.752-3.065,24.8,24.8,0,0,0-5.09-2.576,40.313,40.313,0,0,1-6.484-3.389,15.371,15.371,0,0,1-4.557-4.589,11.812,11.812,0,0,1-1.767-6.516,11.927,11.927,0,0,1,7.23-11.252,20.64,20.64,0,0,1,8.951-1.752,31.2,31.2,0,0,1,6.955.731,30.069,30.069,0,0,1,5.268,1.636,20.919,20.919,0,0,1,2.854,1.428v10.537a36.879,36.879,0,0,0-6.145-3.533,17.127,17.127,0,0,0-7.246-1.557,5.585,5.585,0,0,0-3.664.973,3.032,3.032,0,0,0-1.135,2.4,2.942,2.942,0,0,0,1.135,2.3,19.9,19.9,0,0,0,4.053,2.367,80.723,80.723,0,0,1,8.3,4.377,16.391,16.391,0,0,1,4.881,4.492A10.851,10.851,0,0,1,1101,1025.779Z" fill="#fff"/><path d="M907.537,1053.943l5.555-6.41h3.744v17.285h-4.307v-10.789l-4.67,5.42h-.646l-4.668-5.42v10.789h-4.307v-17.285h3.739Z" fill="#fff"/><path d="M923.34,1047.533v17.285h-4.307v-17.285Z" fill="#fff"/><path d="M943.059,1047.533v17.285h-3.637l-9.541-11.074v11.074h-4.307v-17.285h3.949l9.229,10.567v-10.567Z" fill="#fff"/><path d="M957.988,1047.533h4.307v9.813a7.207,7.207,0,0,1-2.24,5.74,11.359,11.359,0,0,1-12.776-.023,7.153,7.153,0,0,1-2.269-5.694v-9.836h4.318v9.936a3.745,3.745,0,0,0,1.182,2.9,4.394,4.394,0,0,0,3.1,1.088,4.487,4.487,0,0,0,3.186-1.113,4.115,4.115,0,0,0,1.193-3.168Z" fill="#fff"/><path d="M979.861,1047.533v3.168H973.6v14.117h-4.307V1050.7h-6.26v-3.168Z" fill="#fff"/><path d="M988.232,1047.311a9.807,9.807,0,0,1,7.153,2.666,8.4,8.4,0,0,1,2.734,6.2,8.316,8.316,0,0,1-2.771,6.224,10.991,10.991,0,0,1-14.266.012,8.311,8.311,0,0,1-2.76-6.236,8.4,8.4,0,0,1,2.74-6.211A9.86,9.86,0,0,1,988.232,1047.311Zm0,14.142A5.425,5.425,0,0,0,992.18,1060a5.621,5.621,0,0,0,0-7.641,6.125,6.125,0,0,0-7.912,0,5.6,5.6,0,0,0,0,7.641A5.46,5.46,0,0,0,988.232,1061.453Z" fill="#fff"/><path d="M1004.705,1047.533h7.623a9.78,9.78,0,0,1,6.985,2.418,8.217,8.217,0,0,1,2.568,6.256,7.977,7.977,0,0,1-2.606,6.316q-2.6,2.3-7.429,2.3h-7.141Zm4.307,3.168v10.949h2.808a5.538,5.538,0,0,0,4.182-1.5,6.191,6.191,0,0,0-.018-7.982,5.708,5.708,0,0,0-4.212-1.465Z" fill="#fff"/><path d="M1036.068,1061.65v3.168h-12.746v-17.285H1035.9v3.168h-8.266v3.625h7.883v3.168h-7.883v4.156Z" fill="#fff"/><path d="M1042.826,1047.533h7.623a9.778,9.778,0,0,1,6.985,2.418,8.213,8.213,0,0,1,2.568,6.256,7.98,7.98,0,0,1-2.6,6.316q-2.605,2.3-7.43,2.3h-7.141Zm4.307,3.168v10.949h2.808a5.538,5.538,0,0,0,4.182-1.5,6.191,6.191,0,0,0-.018-7.982,5.708,5.708,0,0,0-4.212-1.465Z" fill="#fff"/><path d="M1065.85,1047.533v17.285h-4.3v-17.285Z" fill="#fff"/><path d="M1077.228,1047.311a9.806,9.806,0,0,1,7.153,2.666,8.4,8.4,0,0,1,2.734,6.2,8.316,8.316,0,0,1-2.771,6.224,10.991,10.991,0,0,1-14.266.012,8.416,8.416,0,0,1-.019-12.447A9.856,9.856,0,0,1,1077.228,1047.311Zm0,14.142a5.425,5.425,0,0,0,3.948-1.453,5.621,5.621,0,0,0,0-7.641,6.125,6.125,0,0,0-7.912,0,5.6,5.6,0,0,0,0,7.641A5.462,5.462,0,0,0,1077.228,1061.453Z" fill="#fff"/><path d="M1100.19,1048.647v3.378a14.422,14.422,0,0,0-5.481-1.547,3.759,3.759,0,0,0-1.85.389,1.166,1.166,0,0,0-.687,1.033,1.278,1.278,0,0,0,.5.942,8.814,8.814,0,0,0,2.412,1.15,26.614,26.614,0,0,1,3.068,1.311,5.965,5.965,0,0,1,1.987,1.709,4.479,4.479,0,0,1,.834,2.783,4.6,4.6,0,0,1-1.824,3.824,7.61,7.61,0,0,1-4.807,1.422,12.721,12.721,0,0,1-6.236-1.67v-3.724a16.868,16.868,0,0,0,3.068,1.7,7.582,7.582,0,0,0,2.834.531q2.533,0,2.535-1.594a1.409,1.409,0,0,0-.508-1.027,8.077,8.077,0,0,0-2.443-1.174,24.739,24.739,0,0,1-3.068-1.287,5.79,5.79,0,0,1-1.955-1.7,4.591,4.591,0,0,1-.823-2.823,4.306,4.306,0,0,1,1.8-3.595,7.717,7.717,0,0,1,4.8-1.367A14.715,14.715,0,0,1,1100.19,1048.647Z" fill="#fff"/><path d="M823.178,1024.217l14.141-14.143-30.4-30.406-49.5,49.5,14.143,14.143,35.355-35.355Z" fill="#1391bc"/><rect width="20.001" height="32.999" transform="translate(847.219 1048.258) rotate(-45)" fill="#1391bc"/><path d="M806.914,1078.664l-49.5-49.5,14.143-14.143,35.355,35.355,63.639-63.639,14.143,14.141Z" fill="#1daa56"/><rect width="30.015" height="20.001" transform="translate(771.552 1015.029) rotate(-45)" fill="url(#a)"/><rect width="20.001" height="32.999" transform="translate(847.219 1048.258) rotate(-45)" fill="url(#b)"/></g></svg>
